<svg width="32" height="32" viewBox="0 0 32 32" fill="none" xmlns="http://www.w3.org/2000/svg">
<path d="M16 20.5C14.8065 20.5 13.6619 20.0259 12.818 19.182C11.9741 18.3381 11.5 17.1935 11.5 16C11.5 14.8065 11.9741 13.6619 12.818 12.818C13.6619 11.9741 14.8065 11.5 16 11.5C17.1935 11.5 18.3381 11.9741 19.182 12.818C20.0259 13.6619 20.5 14.8065 20.5 16C20.5 17.1935 20.0259 18.3381 19.182 19.182C18.3381 20.0259 17.1935 20.5 16 20.5ZM16 22C17.5913 22 19.1174 21.3679 20.2426 20.2426C21.3679 19.1174 22 17.5913 22 16C22 14.4087 21.3679 12.8826 20.2426 11.7574C19.1174 10.6321 17.5913 10 16 10C14.4087 10 12.8826 10.6321 11.7574 11.7574C10.6321 12.8826 10 14.4087 10 16C10 17.5913 10.6321 19.1174 11.7574 20.2426C12.8826 21.3679 14.4087 22 16 22ZM16 4C16.1989 4 16.3897 4.07902 16.5303 4.21967C16.671 4.36032 16.75 4.55109 16.75 4.75V7.75C16.75 7.94891 16.671 8.13968 16.5303 8.28033C16.3897 8.42098 16.1989 8.5 16 8.5C15.8011 8.5 15.6103 8.42098 15.4697 8.28033C15.329 8.13968 15.25 7.94891 15.25 7.75V4.75C15.25 4.55109 15.329 4.36032 15.4697 4.21967C15.6103 4.07902 15.8011 4 16 4ZM16 23.5C16.1989 23.5 16.3897 23.579 16.5303 23.7197C16.671 23.8603 16.75 24.0511 16.75 24.25V27.25C16.75 27.4489 16.671 27.6397 16.5303 27.7803C16.3897 27.921 16.1989 28 16 28C15.8011 28 15.6103 27.921 15.4697 27.7803C15.329 27.6397 15.25 27.4489 15.25 27.25V24.25C15.25 24.0511 15.329 23.8603 15.4697 23.7197C15.6103 23.579 15.8011 23.5 16 23.5ZM28 16C28 16.1989 27.921 16.3897 27.7803 16.5303C27.6397 16.671 27.4489 16.75 27.25 16.75H24.25C24.0511 16.75 23.8603 16.671 23.7197 16.5303C23.579 16.3897 23.5 16.1989 23.5 16C23.5 15.8011 23.579 15.6103 23.7197 15.4697C23.8603 15.329 24.0511 15.25 24.25 15.25H27.25C27.4489 15.25 27.6397 15.329 27.7803 15.4697C27.921 15.6103 28 15.8011 28 16ZM8.5 16C8.5 16.1989 8.42098 16.3897 8.28033 16.5303C8.13968 16.671 7.94891 16.75 7.75 16.75H4.75C4.55109 16.75 4.36032 16.671 4.21967 16.5303C4.07902 16.3897 4 16.1989 4 16C4 15.8011 4.07902 15.6103 4.21967 15.4697C4.36032 15.329 4.55109 15.25 4.75 15.25H7.75C7.94891 15.25 8.13968 15.329 8.28033 15.4697C8.42098 15.6103 8.5 15.8011 8.5 16ZM24.4855 7.5145C24.6261 7.65515 24.7051 7.84588 24.7051 8.04475C24.7051 8.24362 24.6261 8.43435 24.4855 8.575L22.3645 10.6975C22.2948 10.7671 22.212 10.8224 22.1209 10.86C22.0299 10.8976 21.9323 10.917 21.8337 10.9169C21.6347 10.9168 21.4439 10.8376 21.3032 10.6967C21.2336 10.627 21.1784 10.5443 21.1408 10.4532C21.1031 10.3621 21.0838 10.2645 21.0838 10.166C21.084 9.96695 21.1632 9.77613 21.304 9.6355L23.425 7.5145C23.5656 7.3739 23.7564 7.29491 23.9552 7.29491C24.1541 7.29491 24.3449 7.3739 24.4855 7.5145ZM10.696 21.304C10.8366 21.4446 10.9156 21.6354 10.9156 21.8342C10.9156 22.0331 10.8366 22.2239 10.696 22.3645L8.575 24.4855C8.43355 24.6221 8.2441 24.6977 8.04745 24.696C7.8508 24.6943 7.66269 24.6154 7.52364 24.4764C7.38458 24.3373 7.3057 24.1492 7.30399 23.9526C7.30229 23.7559 7.37788 23.5665 7.5145 23.425L9.6355 21.304C9.77615 21.1634 9.96688 21.0844 10.1657 21.0844C10.3646 21.0844 10.5554 21.1634 10.696 21.304ZM24.4855 24.4855C24.3449 24.6261 24.1541 24.7051 23.9552 24.7051C23.7564 24.7051 23.5656 24.6261 23.425 24.4855L21.304 22.3645C21.1674 22.223 21.0918 22.0336 21.0935 21.8369C21.0952 21.6403 21.1741 21.4522 21.3131 21.3131C21.4522 21.1741 21.6403 21.0952 21.8369 21.0935C22.0336 21.0918 22.223 21.1674 22.3645 21.304L24.4855 23.425C24.6261 23.5656 24.7051 23.7564 24.7051 23.9552C24.7051 24.1541 24.6261 24.3449 24.4855 24.4855ZM10.696 10.6975C10.5554 10.8381 10.3646 10.9171 10.1657 10.9171C9.96688 10.9171 9.77615 10.8381 9.6355 10.6975L7.5145 8.575C7.44287 8.50582 7.38573 8.42306 7.34642 8.33155C7.30712 8.24005 7.28643 8.14164 7.28556 8.04205C7.2847 7.94247 7.30367 7.84371 7.34138 7.75153C7.37909 7.65936 7.43478 7.57562 7.5052 7.5052C7.57562 7.43478 7.65936 7.37909 7.75153 7.34138C7.84371 7.30367 7.94247 7.2847 8.04205 7.28556C8.14164 7.28643 8.24005 7.30712 8.33155 7.34642C8.42306 7.38573 8.50582 7.44287 8.575 7.5145L10.696 9.6355C10.7658 9.70517 10.8213 9.78793 10.8591 9.87905C10.8969 9.97017 10.9163 10.0678 10.9163 10.1665C10.9163 10.2652 10.8969 10.3628 10.8591 10.454C10.8213 10.5451 10.7658 10.6278 10.696 10.6975Z" fill="#51506E"/>
</svg>
