<svg width="32" height="32" viewBox="0 0 32 32" fill="none" xmlns="http://www.w3.org/2000/svg">
<path d="M14.1246 6.34719C14.2463 6.49562 14.3209 6.67704 14.3387 6.86815C14.3565 7.05927 14.3168 7.25134 14.2246 7.41971C13.5016 8.74641 13.1241 10.2338 13.1271 11.7448C13.1271 16.7711 17.2247 20.8412 22.2748 20.8412C22.9348 20.8403 23.5735 20.7737 24.191 20.6412C24.3799 20.6007 24.5766 20.6166 24.7565 20.6868C24.9365 20.7571 25.0919 20.8785 25.2036 21.0362C25.3217 21.2002 25.3819 21.3989 25.3749 21.6009C25.3679 21.803 25.294 21.9969 25.1648 22.1524C24.1843 23.3567 22.9475 24.327 21.5445 24.9926C20.1415 25.6582 18.6076 26.0024 17.0547 26C11.2921 26 6.62453 21.3574 6.62453 15.6373C6.62453 11.3323 9.26707 7.63971 13.0296 6.07469C13.217 5.99506 13.4252 5.97859 13.6227 6.02775C13.8203 6.07691 13.9965 6.18904 14.1246 6.34719ZM12.6971 7.63846C11.2504 8.41462 10.041 9.56817 9.19741 10.9766C8.35378 12.385 7.90743 13.9956 7.9058 15.6373C7.9058 20.6624 12.0046 24.7325 17.0547 24.7325C18.264 24.7343 19.4616 24.4964 20.5784 24.0325C21.6952 23.5686 22.7089 22.888 23.561 22.0299C23.1394 22.0824 22.7106 22.1087 22.2748 22.1087C16.5122 22.1087 11.8459 17.4661 11.8459 11.746C11.8459 10.2873 12.1484 8.89848 12.6971 7.63846Z" fill="#0D033C"/>
</svg>
