<svg width="64" height="235" viewBox="0 0 64 235" fill="none" xmlns="http://www.w3.org/2000/svg">
<path d="M0 0H64V118C64 122.418 60.4183 126 56 126H8C3.58172 126 0 122.418 0 118V0Z" fill="#4E3A34"/>
<path d="M22.2002 130.7H41.7998C45.5001 130.7 48.5 133.7 48.5 137.4V227C48.5 230.7 45.5001 233.7 41.7998 233.7H22.2002C18.4999 233.7 15.5 230.7 15.5 227V137.4C15.5 133.7 18.4999 130.7 22.2002 130.7Z" fill="#4E3A34" fill-opacity="0.1"/>
<path d="M22.2002 130.7H41.7998C45.5001 130.7 48.5 133.7 48.5 137.4V227C48.5 230.7 45.5001 233.7 41.7998 233.7H22.2002C18.4999 233.7 15.5 230.7 15.5 227V137.4C15.5 133.7 18.4999 130.7 22.2002 130.7Z" stroke="#4E3A34"/>
<rect x="17.3999" y="167.8" width="28.8" height="28.8" rx="14.4" fill="#4E3A34"/>
<circle cx="31.8" cy="182.2" r="10.8" fill="#837571"/>
<circle cx="31.8001" cy="182.2" r="7.2" fill="#4E3A34"/>
<circle cx="31.8001" cy="143.2" r="6.7" fill="#B8B0AE" stroke="#4E3A34"/>
<circle cx="31.7997" cy="182.2" r="3.6" fill="#B8B0AE"/>
<circle cx="31.7997" cy="143.2" r="3.1" fill="#E5E0D7" stroke="#4E3A34"/>
<path d="M32 109.7C35.0376 109.7 37.5 112.162 37.5 115.2V139.2C37.5 142.238 35.0376 144.7 32 144.7C28.9624 144.7 26.5 142.238 26.5 139.2V115.2C26.5 112.162 28.9624 109.7 32 109.7Z" fill="#837571" stroke="#4E3A34"/>
</svg>
