<svg width="381" height="112" viewBox="0 0 381 112" fill="none" xmlns="http://www.w3.org/2000/svg">
<g clip-path="url(#clip0_40000144_46194)">
<rect x="2.54014" y="2.54014" width="375.92" height="106.045" rx="3.80838" fill="#161719"/>
<circle cx="6.98514" cy="6.98514" r="4.445" fill="#2F3134"/>
<circle cx="17.7802" cy="6.98514" r="4.445" fill="#2F3134"/>
<circle cx="28.5754" cy="6.98514" r="4.445" fill="#2F3134"/>
<circle cx="39.3705" cy="6.98514" r="4.445" fill="#2F3134"/>
<circle cx="50.1651" cy="6.98514" r="4.445" fill="#2F3134"/>
<circle cx="60.9602" cy="6.98514" r="4.445" fill="#2F3134"/>
<circle cx="71.7553" cy="6.98514" r="4.445" fill="#2F3134"/>
<circle cx="82.5504" cy="6.98514" r="4.445" fill="#2F3134"/>
<circle cx="93.345" cy="6.98514" r="4.445" fill="#2F3134"/>
<circle cx="104.14" cy="6.98514" r="4.445" fill="#2F3134"/>
<circle cx="114.935" cy="6.98514" r="4.445" fill="#2F3134"/>
<circle cx="125.73" cy="6.98514" r="4.445" fill="#2F3134"/>
<circle cx="136.525" cy="6.98514" r="4.445" fill="#2F3134"/>
<circle cx="147.32" cy="6.98514" r="4.445" fill="#2F3134"/>
<circle cx="158.115" cy="6.98514" r="4.445" fill="#2F3134"/>
<circle cx="168.91" cy="6.98514" r="4.445" fill="#2F3134"/>
<circle cx="179.705" cy="6.98514" r="4.445" fill="#2F3134"/>
<circle cx="190.5" cy="6.98514" r="4.445" fill="#2F3134"/>
<circle cx="201.295" cy="6.98514" r="4.445" fill="#2F3134"/>
<circle cx="212.09" cy="6.98514" r="4.445" fill="#2F3134"/>
<circle cx="222.885" cy="6.98514" r="4.445" fill="#2F3134"/>
<circle cx="233.68" cy="6.98514" r="4.445" fill="#2F3134"/>
<circle cx="244.475" cy="6.98514" r="4.445" fill="#2F3134"/>
<circle cx="255.27" cy="6.98514" r="4.445" fill="#2F3134"/>
<circle cx="266.065" cy="6.98514" r="4.445" fill="#2F3134"/>
<circle cx="276.86" cy="6.98514" r="4.445" fill="#2F3134"/>
<circle cx="287.655" cy="6.98514" r="4.445" fill="#2F3134"/>
<circle cx="298.45" cy="6.98514" r="4.445" fill="#2F3134"/>
<circle cx="309.245" cy="6.98514" r="4.445" fill="#2F3134"/>
<circle cx="320.04" cy="6.98514" r="4.445" fill="#2F3134"/>
<circle cx="330.835" cy="6.98514" r="4.445" fill="#2F3134"/>
<circle cx="341.63" cy="6.98514" r="4.445" fill="#2F3134"/>
<circle cx="352.425" cy="6.98514" r="4.445" fill="#2F3134"/>
<circle cx="363.22" cy="6.98514" r="4.445" fill="#2F3134"/>
<circle cx="374.015" cy="6.98514" r="4.445" fill="#2F3134"/>
<circle cx="6.98514" cy="17.7798" r="4.445" fill="#2F3134"/>
<circle cx="17.7802" cy="17.7798" r="4.445" fill="#2F3134"/>
<circle cx="28.5754" cy="17.7798" r="4.445" fill="#2F3134"/>
<circle cx="39.3705" cy="17.7798" r="4.445" fill="#2F3134"/>
<circle cx="50.1651" cy="17.7798" r="4.445" fill="#2F3134"/>
<circle cx="60.9602" cy="17.7798" r="4.445" fill="#2F3134"/>
<circle cx="71.7553" cy="17.7798" r="4.445" fill="#2F3134"/>
<circle cx="82.5504" cy="17.7798" r="4.445" fill="#2F3134"/>
<circle cx="93.345" cy="17.7798" r="4.445" fill="#2F3134"/>
<circle cx="104.14" cy="17.7798" r="4.445" fill="#2F3134"/>
<circle cx="114.935" cy="17.7798" r="4.445" fill="#2F3134"/>
<circle cx="125.73" cy="17.7798" r="4.445" fill="#2F3134"/>
<circle cx="136.525" cy="17.7798" r="4.445" fill="#2F3134"/>
<circle cx="147.32" cy="17.7798" r="4.445" fill="#2F3134"/>
<circle cx="158.115" cy="17.7798" r="4.445" fill="#2F3134"/>
<circle cx="168.91" cy="17.7798" r="4.445" fill="#2F3134"/>
<circle cx="179.705" cy="17.7798" r="4.445" fill="#2F3134"/>
<circle cx="190.5" cy="17.7798" r="4.445" fill="#2F3134"/>
<circle cx="201.295" cy="17.7798" r="4.445" fill="#2F3134"/>
<circle cx="212.09" cy="17.7798" r="4.445" fill="#2F3134"/>
<circle cx="222.885" cy="17.7798" r="4.445" fill="#2F3134"/>
<circle cx="233.68" cy="17.7798" r="4.445" fill="#2F3134"/>
<circle cx="244.475" cy="17.7798" r="4.445" fill="#2F3134"/>
<circle cx="255.27" cy="17.7798" r="4.445" fill="#2F3134"/>
<circle cx="266.065" cy="17.7798" r="4.445" fill="#2F3134"/>
<circle cx="276.86" cy="17.7798" r="4.445" fill="#2F3134"/>
<circle cx="287.655" cy="17.7798" r="4.445" fill="#2F3134"/>
<circle cx="298.45" cy="17.7798" r="4.445" fill="#2F3134"/>
<circle cx="309.245" cy="17.7798" r="4.445" fill="#2F3134"/>
<circle cx="320.04" cy="17.7798" r="4.445" fill="#2F3134"/>
<circle cx="330.835" cy="17.7798" r="4.445" fill="#2F3134"/>
<circle cx="341.63" cy="17.7798" r="4.445" fill="#2F3134"/>
<circle cx="352.425" cy="17.7798" r="4.445" fill="#2F3134"/>
<circle cx="363.22" cy="17.7798" r="4.445" fill="#2F3134"/>
<circle cx="374.015" cy="17.7798" r="4.445" fill="#2F3134"/>
<circle cx="6.98514" cy="28.5754" r="4.445" fill="#2F3134"/>
<circle cx="17.7802" cy="28.5754" r="4.445" fill="#2F3134"/>
<circle cx="28.5754" cy="28.5754" r="4.445" fill="#2F3134"/>
<circle cx="39.3705" cy="28.5754" r="4.445" fill="#2F3134"/>
<circle cx="50.1651" cy="28.5754" r="4.445" fill="#FF82B8"/>
<circle cx="60.9602" cy="28.5754" r="4.445" fill="#FF82B8"/>
<circle cx="71.7553" cy="28.5754" r="4.445" fill="#2F3134"/>
<circle cx="82.5504" cy="28.5754" r="4.445" fill="#2F3134"/>
<circle cx="93.345" cy="28.5754" r="4.445" fill="#FF82B8"/>
<circle cx="104.14" cy="28.5754" r="4.445" fill="#FF82B8"/>
<circle cx="114.935" cy="28.5754" r="4.445" fill="#2F3134"/>
<circle cx="125.73" cy="28.5754" r="4.445" fill="#2F3134"/>
<circle cx="136.525" cy="28.5754" r="4.445" fill="#FF82B8"/>
<circle cx="147.32" cy="28.5754" r="4.445" fill="#FF82B8"/>
<circle cx="158.115" cy="28.5754" r="4.445" fill="#FF82B8"/>
<circle cx="168.91" cy="28.5754" r="4.445" fill="#2F3134"/>
<circle cx="179.705" cy="28.5754" r="4.445" fill="#FF82B8"/>
<circle cx="190.5" cy="28.5754" r="4.445" fill="#FF82B8"/>
<circle cx="201.295" cy="28.5754" r="4.445" fill="#FF82B8"/>
<circle cx="212.09" cy="28.5754" r="4.445" fill="#2F3134"/>
<circle cx="222.885" cy="28.5754" r="4.445" fill="#FF82B8"/>
<circle cx="233.68" cy="28.5754" r="4.445" fill="#FF82B8"/>
<circle cx="244.475" cy="28.5754" r="4.445" fill="#FF82B8"/>
<circle cx="255.27" cy="28.5754" r="4.445" fill="#2F3134"/>
<circle cx="266.065" cy="28.5754" r="4.445" fill="#FF82B8"/>
<circle cx="276.86" cy="28.5754" r="4.445" fill="#FF82B8"/>
<circle cx="287.655" cy="28.5754" r="4.445" fill="#FF82B8"/>
<circle cx="298.45" cy="28.5754" r="4.445" fill="#2F3134"/>
<circle cx="309.245" cy="28.5754" r="4.445" fill="#2F3134"/>
<circle cx="320.04" cy="28.5754" r="4.445" fill="#FF82B8"/>
<circle cx="330.835" cy="28.5754" r="4.445" fill="#FF82B8"/>
<circle cx="341.63" cy="28.5754" r="4.445" fill="#2F3134"/>
<circle cx="352.425" cy="28.5754" r="4.445" fill="#2F3134"/>
<circle cx="363.22" cy="28.5754" r="4.445" fill="#2F3134"/>
<circle cx="374.015" cy="28.5754" r="4.445" fill="#2F3134"/>
<circle cx="6.98514" cy="39.37" r="4.445" fill="#2F3134"/>
<circle cx="17.7802" cy="39.37" r="4.445" fill="#2F3134"/>
<circle cx="28.5754" cy="39.37" r="4.445" fill="#2F3134"/>
<circle cx="39.3705" cy="39.37" r="4.445" fill="#FF82B8"/>
<circle cx="50.1651" cy="39.37" r="4.445" fill="#2F3134"/>
<circle cx="60.9602" cy="39.37" r="4.445" fill="#2F3134"/>
<circle cx="71.7553" cy="39.37" r="4.445" fill="#2F3134"/>
<circle cx="82.5504" cy="39.37" r="4.445" fill="#FF82B8"/>
<circle cx="93.345" cy="39.37" r="4.445" fill="#2F3134"/>
<circle cx="104.14" cy="39.37" r="4.445" fill="#2F3134"/>
<circle cx="114.935" cy="39.37" r="4.445" fill="#FF82B8"/>
<circle cx="125.73" cy="39.37" r="4.445" fill="#2F3134"/>
<circle cx="136.525" cy="39.37" r="4.445" fill="#FF82B8"/>
<circle cx="147.32" cy="39.37" r="4.445" fill="#2F3134"/>
<circle cx="158.115" cy="39.37" r="4.445" fill="#2F3134"/>
<circle cx="168.91" cy="39.37" r="4.445" fill="#2F3134"/>
<circle cx="179.705" cy="39.37" r="4.445" fill="#FF82B8"/>
<circle cx="190.5" cy="39.37" r="4.445" fill="#2F3134"/>
<circle cx="201.295" cy="39.37" r="4.445" fill="#2F3134"/>
<circle cx="212.09" cy="39.37" r="4.445" fill="#2F3134"/>
<circle cx="222.885" cy="39.37" r="4.445" fill="#FF82B8"/>
<circle cx="233.68" cy="39.37" r="4.445" fill="#2F3134"/>
<circle cx="244.475" cy="39.37" r="4.445" fill="#2F3134"/>
<circle cx="255.27" cy="39.37" r="4.445" fill="#2F3134"/>
<circle cx="266.065" cy="39.37" r="4.445" fill="#FF82B8"/>
<circle cx="276.86" cy="39.37" r="4.445" fill="#2F3134"/>
<circle cx="287.655" cy="39.37" r="4.445" fill="#2F3134"/>
<circle cx="298.45" cy="39.37" r="4.445" fill="#2F3134"/>
<circle cx="309.245" cy="39.37" r="4.445" fill="#FF82B8"/>
<circle cx="320.04" cy="39.37" r="4.445" fill="#2F3134"/>
<circle cx="330.835" cy="39.37" r="4.445" fill="#2F3134"/>
<circle cx="341.63" cy="39.37" r="4.445" fill="#FF82B8"/>
<circle cx="352.425" cy="39.37" r="4.445" fill="#2F3134"/>
<circle cx="363.22" cy="39.37" r="4.445" fill="#2F3134"/>
<circle cx="374.015" cy="39.37" r="4.445" fill="#2F3134"/>
<circle cx="6.98514" cy="50.1656" r="4.445" fill="#2F3134"/>
<circle cx="17.7802" cy="50.1656" r="4.445" fill="#2F3134"/>
<circle cx="28.5754" cy="50.1656" r="4.445" fill="#2F3134"/>
<circle cx="39.3705" cy="50.1656" r="4.445" fill="#FF82B8"/>
<circle cx="50.1651" cy="50.1656" r="4.445" fill="#2F3134"/>
<circle cx="60.9602" cy="50.1656" r="4.445" fill="#2F3134"/>
<circle cx="71.7553" cy="50.1656" r="4.445" fill="#2F3134"/>
<circle cx="82.5504" cy="50.1656" r="4.445" fill="#FF82B8"/>
<circle cx="93.345" cy="50.1656" r="4.445" fill="#2F3134"/>
<circle cx="104.14" cy="50.1656" r="4.445" fill="#2F3134"/>
<circle cx="114.935" cy="50.1656" r="4.445" fill="#FF82B8"/>
<circle cx="125.73" cy="50.1656" r="4.445" fill="#2F3134"/>
<circle cx="136.525" cy="50.1656" r="4.445" fill="#FF82B8"/>
<circle cx="147.32" cy="50.1656" r="4.445" fill="#FF82B8"/>
<circle cx="158.115" cy="50.1656" r="4.445" fill="#FF82B8"/>
<circle cx="168.91" cy="50.1656" r="4.445" fill="#2F3134"/>
<circle cx="179.705" cy="50.1656" r="4.445" fill="#FF82B8"/>
<circle cx="190.5" cy="50.1656" r="4.445" fill="#FF82B8"/>
<circle cx="201.295" cy="50.1656" r="4.445" fill="#FF82B8"/>
<circle cx="212.09" cy="50.1656" r="4.445" fill="#2F3134"/>
<circle cx="222.885" cy="50.1656" r="4.445" fill="#FF82B8"/>
<circle cx="233.68" cy="50.1656" r="4.445" fill="#FF82B8"/>
<circle cx="244.475" cy="50.1656" r="4.445" fill="#FF82B8"/>
<circle cx="255.27" cy="50.1656" r="4.445" fill="#2F3134"/>
<circle cx="266.065" cy="50.1656" r="4.445" fill="#FF82B8"/>
<circle cx="276.86" cy="50.1656" r="4.445" fill="#FF82B8"/>
<circle cx="287.655" cy="50.1656" r="4.445" fill="#FF82B8"/>
<circle cx="298.45" cy="50.1656" r="4.445" fill="#2F3134"/>
<circle cx="309.245" cy="50.1656" r="4.445" fill="#2F3134"/>
<circle cx="320.04" cy="50.1656" r="4.445" fill="#2F3134"/>
<circle cx="330.835" cy="50.1656" r="4.445" fill="#2F3134"/>
<circle cx="341.63" cy="50.1656" r="4.445" fill="#FF82B8"/>
<circle cx="352.425" cy="50.1656" r="4.445" fill="#2F3134"/>
<circle cx="363.22" cy="50.1656" r="4.445" fill="#2F3134"/>
<circle cx="374.015" cy="50.1656" r="4.445" fill="#2F3134"/>
<circle cx="6.98514" cy="60.9602" r="4.445" fill="#2F3134"/>
<circle cx="17.7802" cy="60.9602" r="4.445" fill="#2F3134"/>
<circle cx="28.5754" cy="60.9602" r="4.445" fill="#2F3134"/>
<circle cx="39.3705" cy="60.9602" r="4.445" fill="#FF82B8"/>
<circle cx="50.1651" cy="60.9602" r="4.445" fill="#2F3134"/>
<circle cx="60.9602" cy="60.9602" r="4.445" fill="#2F3134"/>
<circle cx="71.7553" cy="60.9602" r="4.445" fill="#2F3134"/>
<circle cx="82.5504" cy="60.9602" r="4.445" fill="#FF82B8"/>
<circle cx="93.345" cy="60.9602" r="4.445" fill="#2F3134"/>
<circle cx="104.14" cy="60.9602" r="4.445" fill="#2F3134"/>
<circle cx="114.935" cy="60.9602" r="4.445" fill="#FF82B8"/>
<circle cx="125.73" cy="60.9602" r="4.445" fill="#2F3134"/>
<circle cx="136.525" cy="60.9602" r="4.445" fill="#FF82B8"/>
<circle cx="147.32" cy="60.9602" r="4.445" fill="#2F3134"/>
<circle cx="158.115" cy="60.9602" r="4.445" fill="#2F3134"/>
<circle cx="168.91" cy="60.9602" r="4.445" fill="#2F3134"/>
<circle cx="179.705" cy="60.9602" r="4.445" fill="#FF82B8"/>
<circle cx="190.5" cy="60.9602" r="4.445" fill="#2F3134"/>
<circle cx="201.295" cy="60.9602" r="4.445" fill="#2F3134"/>
<circle cx="212.09" cy="60.9602" r="4.445" fill="#2F3134"/>
<circle cx="222.885" cy="60.9602" r="4.445" fill="#FF82B8"/>
<circle cx="233.68" cy="60.9602" r="4.445" fill="#2F3134"/>
<circle cx="244.475" cy="60.9602" r="4.445" fill="#2F3134"/>
<circle cx="255.27" cy="60.9602" r="4.445" fill="#2F3134"/>
<circle cx="266.065" cy="60.9602" r="4.445" fill="#FF82B8"/>
<circle cx="276.86" cy="60.9602" r="4.445" fill="#2F3134"/>
<circle cx="287.655" cy="60.9602" r="4.445" fill="#2F3134"/>
<circle cx="298.45" cy="60.9602" r="4.445" fill="#2F3134"/>
<circle cx="309.245" cy="60.9602" r="4.445" fill="#2F3134"/>
<circle cx="320.04" cy="60.9602" r="4.445" fill="#FF82B8"/>
<circle cx="330.835" cy="60.9602" r="4.445" fill="#FF82B8"/>
<circle cx="341.63" cy="60.9602" r="4.445" fill="#2F3134"/>
<circle cx="352.425" cy="60.9602" r="4.445" fill="#2F3134"/>
<circle cx="363.22" cy="60.9602" r="4.445" fill="#2F3134"/>
<circle cx="374.015" cy="60.9602" r="4.445" fill="#2F3134"/>
<circle cx="6.98514" cy="71.7548" r="4.445" fill="#2F3134"/>
<circle cx="17.7802" cy="71.7548" r="4.445" fill="#2F3134"/>
<circle cx="28.5754" cy="71.7548" r="4.445" fill="#2F3134"/>
<circle cx="39.3705" cy="71.7548" r="4.445" fill="#FF82B8"/>
<circle cx="50.1651" cy="71.7548" r="4.445" fill="#2F3134"/>
<circle cx="60.9602" cy="71.7548" r="4.445" fill="#2F3134"/>
<circle cx="71.7553" cy="71.7548" r="4.445" fill="#2F3134"/>
<circle cx="82.5504" cy="71.7548" r="4.445" fill="#FF82B8"/>
<circle cx="93.345" cy="71.7548" r="4.445" fill="#2F3134"/>
<circle cx="104.14" cy="71.7548" r="4.445" fill="#2F3134"/>
<circle cx="114.935" cy="71.7548" r="4.445" fill="#FF82B8"/>
<circle cx="125.73" cy="71.7548" r="4.445" fill="#2F3134"/>
<circle cx="136.525" cy="71.7548" r="4.445" fill="#FF82B8"/>
<circle cx="147.32" cy="71.7548" r="4.445" fill="#2F3134"/>
<circle cx="158.115" cy="71.7548" r="4.445" fill="#2F3134"/>
<circle cx="168.91" cy="71.7548" r="4.445" fill="#2F3134"/>
<circle cx="179.705" cy="71.7548" r="4.445" fill="#FF82B8"/>
<circle cx="190.5" cy="71.7548" r="4.445" fill="#2F3134"/>
<circle cx="201.295" cy="71.7548" r="4.445" fill="#2F3134"/>
<circle cx="212.09" cy="71.7548" r="4.445" fill="#2F3134"/>
<circle cx="222.885" cy="71.7548" r="4.445" fill="#FF82B8"/>
<circle cx="233.68" cy="71.7548" r="4.445" fill="#2F3134"/>
<circle cx="244.475" cy="71.7548" r="4.445" fill="#2F3134"/>
<circle cx="255.27" cy="71.7548" r="4.445" fill="#2F3134"/>
<circle cx="266.065" cy="71.7548" r="4.445" fill="#FF82B8"/>
<circle cx="276.86" cy="71.7548" r="4.445" fill="#2F3134"/>
<circle cx="287.655" cy="71.7548" r="4.445" fill="#2F3134"/>
<circle cx="298.45" cy="71.7548" r="4.445" fill="#2F3134"/>
<circle cx="309.245" cy="71.7548" r="4.445" fill="#2F3134"/>
<circle cx="320.04" cy="71.7548" r="4.445" fill="#FF82B8"/>
<circle cx="330.835" cy="71.7548" r="4.445" fill="#2F3134"/>
<circle cx="341.63" cy="71.7548" r="4.445" fill="#2F3134"/>
<circle cx="352.425" cy="71.7548" r="4.445" fill="#2F3134"/>
<circle cx="363.22" cy="71.7548" r="4.445" fill="#2F3134"/>
<circle cx="374.015" cy="71.7548" r="4.445" fill="#2F3134"/>
<circle cx="6.98514" cy="82.5504" r="4.445" fill="#2F3134"/>
<circle cx="17.7802" cy="82.5504" r="4.445" fill="#2F3134"/>
<circle cx="28.5754" cy="82.5504" r="4.445" fill="#2F3134"/>
<circle cx="39.3705" cy="82.5504" r="4.445" fill="#2F3134"/>
<circle cx="50.1651" cy="82.5504" r="4.445" fill="#FF82B8"/>
<circle cx="60.9602" cy="82.5504" r="4.445" fill="#FF82B8"/>
<circle cx="71.7553" cy="82.5504" r="4.445" fill="#2F3134"/>
<circle cx="82.5504" cy="82.5504" r="4.445" fill="#2F3134"/>
<circle cx="93.345" cy="82.5504" r="4.445" fill="#FF82B8"/>
<circle cx="104.14" cy="82.5504" r="4.445" fill="#FF82B8"/>
<circle cx="114.935" cy="82.5504" r="4.445" fill="#2F3134"/>
<circle cx="125.73" cy="82.5504" r="4.445" fill="#2F3134"/>
<circle cx="136.525" cy="82.5504" r="4.445" fill="#FF82B8"/>
<circle cx="147.32" cy="82.5504" r="4.445" fill="#2F3134"/>
<circle cx="158.115" cy="82.5504" r="4.445" fill="#2F3134"/>
<circle cx="168.91" cy="82.5504" r="4.445" fill="#2F3134"/>
<circle cx="179.705" cy="82.5504" r="4.445" fill="#FF82B8"/>
<circle cx="190.5" cy="82.5504" r="4.445" fill="#2F3134"/>
<circle cx="201.295" cy="82.5504" r="4.445" fill="#2F3134"/>
<circle cx="212.09" cy="82.5504" r="4.445" fill="#2F3134"/>
<circle cx="222.885" cy="82.5504" r="4.445" fill="#FF82B8"/>
<circle cx="233.68" cy="82.5504" r="4.445" fill="#FF82B8"/>
<circle cx="244.475" cy="82.5504" r="4.445" fill="#FF82B8"/>
<circle cx="255.27" cy="82.5504" r="4.445" fill="#2F3134"/>
<circle cx="266.065" cy="82.5504" r="4.445" fill="#FF82B8"/>
<circle cx="276.86" cy="82.5504" r="4.445" fill="#FF82B8"/>
<circle cx="287.655" cy="82.5504" r="4.445" fill="#FF82B8"/>
<circle cx="298.45" cy="82.5504" r="4.445" fill="#2F3134"/>
<circle cx="309.245" cy="82.5504" r="4.445" fill="#2F3134"/>
<circle cx="320.04" cy="82.5504" r="4.445" fill="#2F3134"/>
<circle cx="330.835" cy="82.5504" r="4.445" fill="#2F3134"/>
<circle cx="341.63" cy="82.5504" r="4.445" fill="#2F3134"/>
<circle cx="352.425" cy="82.5504" r="4.445" fill="#2F3134"/>
<circle cx="363.22" cy="82.5504" r="4.445" fill="#2F3134"/>
<circle cx="374.015" cy="82.5504" r="4.445" fill="#2F3134"/>
<circle cx="6.98514" cy="93.345" r="4.445" fill="#2F3134"/>
<circle cx="17.7802" cy="93.345" r="4.445" fill="#2F3134"/>
<circle cx="28.5754" cy="93.345" r="4.445" fill="#2F3134"/>
<circle cx="39.3705" cy="93.345" r="4.445" fill="#2F3134"/>
<circle cx="50.1651" cy="93.345" r="4.445" fill="#2F3134"/>
<circle cx="60.9602" cy="93.345" r="4.445" fill="#2F3134"/>
<circle cx="71.7553" cy="93.345" r="4.445" fill="#2F3134"/>
<circle cx="82.5504" cy="93.345" r="4.445" fill="#2F3134"/>
<circle cx="93.345" cy="93.345" r="4.445" fill="#2F3134"/>
<circle cx="104.14" cy="93.345" r="4.445" fill="#2F3134"/>
<circle cx="114.935" cy="93.345" r="4.445" fill="#2F3134"/>
<circle cx="125.73" cy="93.345" r="4.445" fill="#2F3134"/>
<circle cx="136.525" cy="93.345" r="4.445" fill="#2F3134"/>
<circle cx="147.32" cy="93.345" r="4.445" fill="#2F3134"/>
<circle cx="158.115" cy="93.345" r="4.445" fill="#2F3134"/>
<circle cx="168.91" cy="93.345" r="4.445" fill="#2F3134"/>
<circle cx="179.705" cy="93.345" r="4.445" fill="#2F3134"/>
<circle cx="190.5" cy="93.345" r="4.445" fill="#2F3134"/>
<circle cx="201.295" cy="93.345" r="4.445" fill="#2F3134"/>
<circle cx="212.09" cy="93.345" r="4.445" fill="#2F3134"/>
<circle cx="222.885" cy="93.345" r="4.445" fill="#2F3134"/>
<circle cx="233.68" cy="93.345" r="4.445" fill="#2F3134"/>
<circle cx="244.475" cy="93.345" r="4.445" fill="#2F3134"/>
<circle cx="255.27" cy="93.345" r="4.445" fill="#2F3134"/>
<circle cx="266.065" cy="93.345" r="4.445" fill="#2F3134"/>
<circle cx="276.86" cy="93.345" r="4.445" fill="#2F3134"/>
<circle cx="287.655" cy="93.345" r="4.445" fill="#2F3134"/>
<circle cx="298.45" cy="93.345" r="4.445" fill="#2F3134"/>
<circle cx="309.245" cy="93.345" r="4.445" fill="#2F3134"/>
<circle cx="320.04" cy="93.345" r="4.445" fill="#FF82B8"/>
<circle cx="330.835" cy="93.345" r="4.445" fill="#2F3134"/>
<circle cx="341.63" cy="93.345" r="4.445" fill="#2F3134"/>
<circle cx="352.425" cy="93.345" r="4.445" fill="#2F3134"/>
<circle cx="363.22" cy="93.345" r="4.445" fill="#2F3134"/>
<circle cx="374.015" cy="93.345" r="4.445" fill="#2F3134"/>
<circle cx="6.98514" cy="104.14" r="4.445" fill="#2F3134"/>
<circle cx="17.7802" cy="104.14" r="4.445" fill="#2F3134"/>
<circle cx="28.5754" cy="104.14" r="4.445" fill="#2F3134"/>
<circle cx="39.3705" cy="104.14" r="4.445" fill="#2F3134"/>
<circle cx="50.1651" cy="104.14" r="4.445" fill="#2F3134"/>
<circle cx="60.9602" cy="104.14" r="4.445" fill="#2F3134"/>
<circle cx="71.7553" cy="104.14" r="4.445" fill="#2F3134"/>
<circle cx="82.5504" cy="104.14" r="4.445" fill="#2F3134"/>
<circle cx="93.345" cy="104.14" r="4.445" fill="#2F3134"/>
<circle cx="104.14" cy="104.14" r="4.445" fill="#2F3134"/>
<circle cx="114.935" cy="104.14" r="4.445" fill="#2F3134"/>
<circle cx="125.73" cy="104.14" r="4.445" fill="#2F3134"/>
<circle cx="136.525" cy="104.14" r="4.445" fill="#2F3134"/>
<circle cx="147.32" cy="104.14" r="4.445" fill="#2F3134"/>
<circle cx="158.115" cy="104.14" r="4.445" fill="#2F3134"/>
<circle cx="168.91" cy="104.14" r="4.445" fill="#2F3134"/>
<circle cx="179.705" cy="104.14" r="4.445" fill="#2F3134"/>
<circle cx="190.5" cy="104.14" r="4.445" fill="#2F3134"/>
<circle cx="201.295" cy="104.14" r="4.445" fill="#2F3134"/>
<circle cx="212.09" cy="104.14" r="4.445" fill="#2F3134"/>
<circle cx="222.885" cy="104.14" r="4.445" fill="#2F3134"/>
<circle cx="233.68" cy="104.14" r="4.445" fill="#2F3134"/>
<circle cx="244.475" cy="104.14" r="4.445" fill="#2F3134"/>
<circle cx="255.27" cy="104.14" r="4.445" fill="#2F3134"/>
<circle cx="266.065" cy="104.14" r="4.445" fill="#2F3134"/>
<circle cx="276.86" cy="104.14" r="4.445" fill="#2F3134"/>
<circle cx="287.655" cy="104.14" r="4.445" fill="#2F3134"/>
<circle cx="298.45" cy="104.14" r="4.445" fill="#2F3134"/>
<circle cx="309.245" cy="104.14" r="4.445" fill="#2F3134"/>
<circle cx="320.04" cy="104.14" r="4.445" fill="#2F3134"/>
<circle cx="330.835" cy="104.14" r="4.445" fill="#2F3134"/>
<circle cx="341.63" cy="104.14" r="4.445" fill="#2F3134"/>
<circle cx="352.425" cy="104.14" r="4.445" fill="#2F3134"/>
<circle cx="363.22" cy="104.14" r="4.445" fill="#2F3134"/>
<circle cx="374.015" cy="104.14" r="4.445" fill="#2F3134"/>
</g>
<rect x="1.27068" y="1.27068" width="378.459" height="108.584" rx="5.07784" stroke="#161719" stroke-width="2.53892"/>
<defs>
<clipPath id="clip0_40000144_46194">
<rect x="2.54014" y="2.54014" width="375.92" height="106.045" rx="3.80838" fill="white"/>
</clipPath>
</defs>
</svg>
