<svg width="376" height="172" viewBox="0 0 376 172" fill="none" xmlns="http://www.w3.org/2000/svg">
<g clip-path="url(#clip0_40000149_52629)">
<mask id="path-1-inside-1_40000149_52629" fill="white">
<rect width="376" height="171.996" rx="2"/>
</mask>
<rect width="376" height="171.996" rx="2" fill="#161719"/>
<ellipse cx="4.39938" cy="4.43677" rx="4.39938" ry="4.43677" fill="#2F3134"/>
<ellipse cx="15.1992" cy="4.43677" rx="4.39938" ry="4.43677" fill="#2F3134"/>
<ellipse cx="25.9996" cy="4.43677" rx="4.39938" ry="4.43677" fill="#2F3134"/>
<ellipse cx="36.7994" cy="4.43677" rx="4.39938" ry="4.43677" fill="#2F3134"/>
<ellipse cx="47.5997" cy="4.43677" rx="4.39938" ry="4.43677" fill="#2F3134"/>
<ellipse cx="58.3996" cy="4.43677" rx="4.39938" ry="4.43677" fill="#2F3134"/>
<ellipse cx="69.1994" cy="4.43677" rx="4.39938" ry="4.43677" fill="#2F3134"/>
<ellipse cx="79.9997" cy="4.43677" rx="4.39938" ry="4.43677" fill="#2F3134"/>
<ellipse cx="90.7996" cy="4.43677" rx="4.39938" ry="4.43677" fill="#2F3134"/>
<ellipse cx="101.6" cy="4.43677" rx="4.39938" ry="4.43677" fill="#2F3134"/>
<ellipse cx="112.4" cy="4.43677" rx="4.39938" ry="4.43677" fill="#2F3134"/>
<ellipse cx="123.2" cy="4.43677" rx="4.39938" ry="4.43677" fill="#2F3134"/>
<ellipse cx="134" cy="4.43677" rx="4.39938" ry="4.43677" fill="#2F3134"/>
<ellipse cx="144.8" cy="4.43677" rx="4.39938" ry="4.43677" fill="#2F3134"/>
<ellipse cx="155.6" cy="4.43677" rx="4.39938" ry="4.43677" fill="#2F3134"/>
<ellipse cx="166.4" cy="4.43677" rx="4.39938" ry="4.43677" fill="#2F3134"/>
<ellipse cx="177.2" cy="4.43677" rx="4.39938" ry="4.43677" fill="#2F3134"/>
<ellipse cx="188" cy="4.43677" rx="4.39938" ry="4.43677" fill="#2F3134"/>
<ellipse cx="198.8" cy="4.43677" rx="4.39938" ry="4.43677" fill="#2F3134"/>
<ellipse cx="209.6" cy="4.43677" rx="4.39938" ry="4.43677" fill="#2F3134"/>
<ellipse cx="220.4" cy="4.43677" rx="4.39938" ry="4.43677" fill="#2F3134"/>
<ellipse cx="231.2" cy="4.43677" rx="4.39938" ry="4.43677" fill="#2F3134"/>
<ellipse cx="242" cy="4.43677" rx="4.39938" ry="4.43677" fill="#2F3134"/>
<ellipse cx="252.8" cy="4.43677" rx="4.39938" ry="4.43677" fill="#2F3134"/>
<ellipse cx="263.6" cy="4.43677" rx="4.39938" ry="4.43677" fill="#2F3134"/>
<ellipse cx="274.4" cy="4.43677" rx="4.39938" ry="4.43677" fill="#2F3134"/>
<ellipse cx="285.2" cy="4.43677" rx="4.39938" ry="4.43677" fill="#2F3134"/>
<ellipse cx="296" cy="4.43677" rx="4.39938" ry="4.43677" fill="#2F3134"/>
<ellipse cx="306.8" cy="4.43677" rx="4.39938" ry="4.43677" fill="#2F3134"/>
<ellipse cx="317.601" cy="4.43677" rx="4.39938" ry="4.43677" fill="#2F3134"/>
<ellipse cx="328.4" cy="4.43677" rx="4.39938" ry="4.43677" fill="#2F3134"/>
<ellipse cx="339.2" cy="4.43677" rx="4.39938" ry="4.43677" fill="#2F3134"/>
<ellipse cx="350.001" cy="4.43677" rx="4.39938" ry="4.43677" fill="#2F3134"/>
<ellipse cx="360.8" cy="4.43677" rx="4.39938" ry="4.43677" fill="#2F3134"/>
<ellipse cx="371.6" cy="4.43677" rx="4.39938" ry="4.43677" fill="#2F3134"/>
<ellipse cx="4.39938" cy="15.3119" rx="4.39938" ry="4.43677" fill="#2F3134"/>
<ellipse cx="15.1992" cy="15.3119" rx="4.39938" ry="4.43677" fill="#2F3134"/>
<ellipse cx="25.9996" cy="15.3119" rx="4.39938" ry="4.43677" fill="#2F3134"/>
<ellipse cx="36.7994" cy="15.3119" rx="4.39938" ry="4.43677" fill="#2F3134"/>
<ellipse cx="47.5997" cy="15.3119" rx="4.39938" ry="4.43677" fill="#2F3134"/>
<ellipse cx="58.3996" cy="15.3119" rx="4.39938" ry="4.43677" fill="#2F3134"/>
<ellipse cx="69.1994" cy="15.3119" rx="4.39938" ry="4.43677" fill="#2F3134"/>
<ellipse cx="79.9997" cy="15.3119" rx="4.39938" ry="4.43677" fill="#2F3134"/>
<ellipse cx="90.7996" cy="15.3119" rx="4.39938" ry="4.43677" fill="#2F3134"/>
<ellipse cx="101.6" cy="15.3119" rx="4.39938" ry="4.43677" fill="#2F3134"/>
<ellipse cx="112.4" cy="15.3119" rx="4.39938" ry="4.43677" fill="#2F3134"/>
<ellipse cx="123.2" cy="15.3119" rx="4.39938" ry="4.43677" fill="#2F3134"/>
<ellipse cx="134" cy="15.3119" rx="4.39938" ry="4.43677" fill="#2F3134"/>
<ellipse cx="144.8" cy="15.3119" rx="4.39938" ry="4.43677" fill="#2F3134"/>
<ellipse cx="155.6" cy="15.3119" rx="4.39938" ry="4.43677" fill="#2F3134"/>
<ellipse cx="166.4" cy="15.3119" rx="4.39938" ry="4.43677" fill="#2F3134"/>
<ellipse cx="177.2" cy="15.3119" rx="4.39938" ry="4.43677" fill="#2F3134"/>
<ellipse cx="188" cy="15.3119" rx="4.39938" ry="4.43677" fill="#2F3134"/>
<ellipse cx="198.8" cy="15.3119" rx="4.39938" ry="4.43677" fill="#2F3134"/>
<ellipse cx="209.6" cy="15.3119" rx="4.39938" ry="4.43677" fill="#2F3134"/>
<ellipse cx="220.4" cy="15.3119" rx="4.39938" ry="4.43677" fill="#2F3134"/>
<ellipse cx="231.2" cy="15.3119" rx="4.39938" ry="4.43677" fill="#2F3134"/>
<ellipse cx="242" cy="15.3119" rx="4.39938" ry="4.43677" fill="#2F3134"/>
<ellipse cx="252.8" cy="15.3119" rx="4.39938" ry="4.43677" fill="#2F3134"/>
<ellipse cx="263.6" cy="15.3119" rx="4.39938" ry="4.43677" fill="#2F3134"/>
<ellipse cx="274.4" cy="15.3119" rx="4.39938" ry="4.43677" fill="#2F3134"/>
<ellipse cx="285.2" cy="15.3119" rx="4.39938" ry="4.43677" fill="#2F3134"/>
<ellipse cx="296" cy="15.3119" rx="4.39938" ry="4.43677" fill="#2F3134"/>
<ellipse cx="306.8" cy="15.3119" rx="4.39938" ry="4.43677" fill="#2F3134"/>
<ellipse cx="317.601" cy="15.3119" rx="4.39938" ry="4.43677" fill="#2F3134"/>
<ellipse cx="328.4" cy="15.3119" rx="4.39938" ry="4.43677" fill="#2F3134"/>
<ellipse cx="339.2" cy="15.3119" rx="4.39938" ry="4.43677" fill="#2F3134"/>
<ellipse cx="350.001" cy="15.3119" rx="4.39938" ry="4.43677" fill="#2F3134"/>
<ellipse cx="360.8" cy="15.3119" rx="4.39938" ry="4.43677" fill="#2F3134"/>
<ellipse cx="371.6" cy="15.3119" rx="4.39938" ry="4.43677" fill="#2F3134"/>
<ellipse cx="4.39938" cy="26.186" rx="4.39938" ry="4.43677" fill="#2F3134"/>
<ellipse cx="15.1992" cy="26.186" rx="4.39938" ry="4.43677" fill="#2F3134"/>
<ellipse cx="25.9996" cy="26.186" rx="4.39938" ry="4.43677" fill="#2F3134"/>
<ellipse cx="36.7994" cy="26.186" rx="4.39938" ry="4.43677" fill="#2F3134"/>
<ellipse cx="47.5997" cy="26.186" rx="4.39938" ry="4.43677" fill="#2F3134"/>
<ellipse cx="58.3996" cy="26.186" rx="4.39938" ry="4.43677" fill="#2F3134"/>
<ellipse cx="69.1994" cy="26.186" rx="4.39938" ry="4.43677" fill="#2F3134"/>
<ellipse cx="79.9997" cy="26.186" rx="4.39938" ry="4.43677" fill="#2F3134"/>
<ellipse cx="90.7996" cy="26.186" rx="4.39938" ry="4.43677" fill="#2F3134"/>
<ellipse cx="101.6" cy="26.186" rx="4.39938" ry="4.43677" fill="#2F3134"/>
<ellipse cx="112.4" cy="26.186" rx="4.39938" ry="4.43677" fill="#2F3134"/>
<ellipse cx="123.2" cy="26.186" rx="4.39938" ry="4.43677" fill="#2F3134"/>
<ellipse cx="134" cy="26.186" rx="4.39938" ry="4.43677" fill="#2F3134"/>
<ellipse cx="144.8" cy="26.186" rx="4.39938" ry="4.43677" fill="#2F3134"/>
<ellipse cx="155.6" cy="26.186" rx="4.39938" ry="4.43677" fill="#2F3134"/>
<ellipse cx="166.4" cy="26.186" rx="4.39938" ry="4.43677" fill="#2F3134"/>
<ellipse cx="177.2" cy="26.186" rx="4.39938" ry="4.43677" fill="#2F3134"/>
<ellipse cx="188" cy="26.186" rx="4.39938" ry="4.43677" fill="#2F3134"/>
<ellipse cx="198.8" cy="26.186" rx="4.39938" ry="4.43677" fill="#2F3134"/>
<ellipse cx="209.6" cy="26.186" rx="4.39938" ry="4.43677" fill="#2F3134"/>
<ellipse cx="220.4" cy="26.186" rx="4.39938" ry="4.43677" fill="#2F3134"/>
<ellipse cx="231.2" cy="26.186" rx="4.39938" ry="4.43677" fill="#2F3134"/>
<ellipse cx="242" cy="26.186" rx="4.39938" ry="4.43677" fill="#2F3134"/>
<ellipse cx="252.8" cy="26.186" rx="4.39938" ry="4.43677" fill="#2F3134"/>
<ellipse cx="263.6" cy="26.186" rx="4.39938" ry="4.43677" fill="#2F3134"/>
<ellipse cx="274.4" cy="26.186" rx="4.39938" ry="4.43677" fill="#2F3134"/>
<ellipse cx="285.2" cy="26.186" rx="4.39938" ry="4.43677" fill="#2F3134"/>
<ellipse cx="296" cy="26.186" rx="4.39938" ry="4.43677" fill="#2F3134"/>
<ellipse cx="306.8" cy="26.186" rx="4.39938" ry="4.43677" fill="#2F3134"/>
<ellipse cx="317.601" cy="26.186" rx="4.39938" ry="4.43677" fill="#2F3134"/>
<ellipse cx="328.4" cy="26.186" rx="4.39938" ry="4.43677" fill="#2F3134"/>
<ellipse cx="339.2" cy="26.186" rx="4.39938" ry="4.43677" fill="#2F3134"/>
<ellipse cx="350.001" cy="26.186" rx="4.39938" ry="4.43677" fill="#2F3134"/>
<ellipse cx="360.8" cy="26.186" rx="4.39938" ry="4.43677" fill="#2F3134"/>
<ellipse cx="371.6" cy="26.186" rx="4.39938" ry="4.43677" fill="#2F3134"/>
<ellipse cx="4.39938" cy="37.061" rx="4.39938" ry="4.43677" fill="#2F3134"/>
<ellipse cx="15.1992" cy="37.061" rx="4.39938" ry="4.43677" fill="#2F3134"/>
<ellipse cx="25.9996" cy="37.061" rx="4.39938" ry="4.43677" fill="#2F3134"/>
<ellipse cx="36.7994" cy="37.061" rx="4.39938" ry="4.43677" fill="#2F3134"/>
<ellipse cx="47.5997" cy="37.061" rx="4.39938" ry="4.43677" fill="#2F3134"/>
<ellipse cx="58.3996" cy="37.061" rx="4.39938" ry="4.43677" fill="#2F3134"/>
<ellipse cx="69.1994" cy="37.061" rx="4.39938" ry="4.43677" fill="#2F3134"/>
<ellipse cx="79.9997" cy="37.061" rx="4.39938" ry="4.43677" fill="#2F3134"/>
<ellipse cx="90.7996" cy="37.061" rx="4.39938" ry="4.43677" fill="#2F3134"/>
<ellipse cx="101.6" cy="37.061" rx="4.39938" ry="4.43677" fill="#2F3134"/>
<ellipse cx="112.4" cy="37.061" rx="4.39938" ry="4.43677" fill="#2F3134"/>
<ellipse cx="123.2" cy="37.061" rx="4.39938" ry="4.43677" fill="#2F3134"/>
<ellipse cx="134" cy="37.061" rx="4.39938" ry="4.43677" fill="#2F3134"/>
<ellipse cx="144.8" cy="37.061" rx="4.39938" ry="4.43677" fill="#2F3134"/>
<ellipse cx="155.6" cy="37.061" rx="4.39938" ry="4.43677" fill="#2F3134"/>
<ellipse cx="166.4" cy="37.061" rx="4.39938" ry="4.43677" fill="#2F3134"/>
<ellipse cx="177.2" cy="37.061" rx="4.39938" ry="4.43677" fill="#2F3134"/>
<ellipse cx="188" cy="37.061" rx="4.39938" ry="4.43677" fill="#2F3134"/>
<ellipse cx="198.8" cy="37.061" rx="4.39938" ry="4.43677" fill="#2F3134"/>
<ellipse cx="209.6" cy="37.061" rx="4.39938" ry="4.43677" fill="#2F3134"/>
<ellipse cx="220.4" cy="37.061" rx="4.39938" ry="4.43677" fill="#2F3134"/>
<ellipse cx="231.2" cy="37.061" rx="4.39938" ry="4.43677" fill="#2F3134"/>
<ellipse cx="242" cy="37.061" rx="4.39938" ry="4.43677" fill="#2F3134"/>
<ellipse cx="252.8" cy="37.061" rx="4.39938" ry="4.43677" fill="#2F3134"/>
<ellipse cx="263.6" cy="37.061" rx="4.39938" ry="4.43677" fill="#2F3134"/>
<ellipse cx="274.4" cy="37.061" rx="4.39938" ry="4.43677" fill="#2F3134"/>
<ellipse cx="285.2" cy="37.061" rx="4.39938" ry="4.43677" fill="#2F3134"/>
<ellipse cx="296" cy="37.061" rx="4.39938" ry="4.43677" fill="#2F3134"/>
<ellipse cx="306.8" cy="37.061" rx="4.39938" ry="4.43677" fill="#2F3134"/>
<ellipse cx="317.601" cy="37.061" rx="4.39938" ry="4.43677" fill="#2F3134"/>
<ellipse cx="328.4" cy="37.061" rx="4.39938" ry="4.43677" fill="#2F3134"/>
<ellipse cx="339.2" cy="37.061" rx="4.39938" ry="4.43677" fill="#2F3134"/>
<ellipse cx="350.001" cy="37.061" rx="4.39938" ry="4.43677" fill="#2F3134"/>
<ellipse cx="360.8" cy="37.061" rx="4.39938" ry="4.43677" fill="#2F3134"/>
<ellipse cx="371.6" cy="37.061" rx="4.39938" ry="4.43677" fill="#2F3134"/>
<ellipse cx="4.39938" cy="47.9361" rx="4.39938" ry="4.43677" fill="#2F3134"/>
<ellipse cx="15.1992" cy="47.9361" rx="4.39938" ry="4.43677" fill="#2F3134"/>
<ellipse cx="25.9996" cy="47.9361" rx="4.39938" ry="4.43677" fill="#2F3134"/>
<ellipse cx="36.7994" cy="47.9361" rx="4.39938" ry="4.43677" fill="#2F3134"/>
<ellipse cx="47.5997" cy="47.9361" rx="4.39938" ry="4.43677" fill="#2F3134"/>
<ellipse cx="58.3996" cy="47.9361" rx="4.39938" ry="4.43677" fill="#2F3134"/>
<ellipse cx="69.1994" cy="47.9361" rx="4.39938" ry="4.43677" fill="#2F3134"/>
<ellipse cx="79.9997" cy="47.9361" rx="4.39938" ry="4.43677" fill="#2F3134"/>
<ellipse cx="90.7996" cy="47.9361" rx="4.39938" ry="4.43677" fill="#2F3134"/>
<ellipse cx="101.6" cy="47.9361" rx="4.39938" ry="4.43677" fill="#2F3134"/>
<ellipse cx="112.4" cy="47.9361" rx="4.39938" ry="4.43677" fill="#2F3134"/>
<ellipse cx="123.2" cy="47.9361" rx="4.39938" ry="4.43677" fill="#2F3134"/>
<ellipse cx="134" cy="47.9361" rx="4.39938" ry="4.43677" fill="#2F3134"/>
<ellipse cx="144.8" cy="47.9361" rx="4.39938" ry="4.43677" fill="#2F3134"/>
<ellipse cx="155.6" cy="47.9361" rx="4.39938" ry="4.43677" fill="#2F3134"/>
<ellipse cx="166.4" cy="47.9361" rx="4.39938" ry="4.43677" fill="#2F3134"/>
<ellipse cx="177.2" cy="47.9361" rx="4.39938" ry="4.43677" fill="#2F3134"/>
<ellipse cx="188" cy="47.9361" rx="4.39938" ry="4.43677" fill="#2F3134"/>
<ellipse cx="198.8" cy="47.9361" rx="4.39938" ry="4.43677" fill="#2F3134"/>
<ellipse cx="209.6" cy="47.9361" rx="4.39938" ry="4.43677" fill="#2F3134"/>
<ellipse cx="220.4" cy="47.9361" rx="4.39938" ry="4.43677" fill="#2F3134"/>
<ellipse cx="231.2" cy="47.9361" rx="4.39938" ry="4.43677" fill="#2F3134"/>
<ellipse cx="242" cy="47.9361" rx="4.39938" ry="4.43677" fill="#2F3134"/>
<ellipse cx="252.8" cy="47.9361" rx="4.39938" ry="4.43677" fill="#2F3134"/>
<ellipse cx="263.6" cy="47.9361" rx="4.39938" ry="4.43677" fill="#2F3134"/>
<ellipse cx="274.4" cy="47.9361" rx="4.39938" ry="4.43677" fill="#2F3134"/>
<ellipse cx="285.2" cy="47.9361" rx="4.39938" ry="4.43677" fill="#2F3134"/>
<ellipse cx="296" cy="47.9361" rx="4.39938" ry="4.43677" fill="#2F3134"/>
<ellipse cx="306.8" cy="47.9361" rx="4.39938" ry="4.43677" fill="#2F3134"/>
<ellipse cx="317.601" cy="47.9361" rx="4.39938" ry="4.43677" fill="#2F3134"/>
<ellipse cx="328.4" cy="47.9361" rx="4.39938" ry="4.43677" fill="#2F3134"/>
<ellipse cx="339.2" cy="47.9361" rx="4.39938" ry="4.43677" fill="#2F3134"/>
<ellipse cx="350.001" cy="47.9361" rx="4.39938" ry="4.43677" fill="#2F3134"/>
<ellipse cx="360.8" cy="47.9361" rx="4.39938" ry="4.43677" fill="#2F3134"/>
<ellipse cx="371.6" cy="47.9361" rx="4.39938" ry="4.43677" fill="#2F3134"/>
<ellipse cx="4.39938" cy="58.8112" rx="4.39938" ry="4.43677" fill="#2F3134"/>
<ellipse cx="15.1992" cy="58.8112" rx="4.39938" ry="4.43677" fill="#2F3134"/>
<ellipse cx="25.9996" cy="58.8112" rx="4.39938" ry="4.43677" fill="#2F3134"/>
<ellipse cx="36.7994" cy="58.8112" rx="4.39938" ry="4.43677" fill="#2F3134"/>
<ellipse cx="47.5997" cy="58.8112" rx="4.39938" ry="4.43677" fill="#FF82B8"/>
<ellipse cx="58.3996" cy="58.8112" rx="4.39938" ry="4.43677" fill="#FF82B8"/>
<ellipse cx="69.1994" cy="58.8112" rx="4.39938" ry="4.43677" fill="#2F3134"/>
<ellipse cx="79.9997" cy="58.8112" rx="4.39938" ry="4.43677" fill="#2F3134"/>
<ellipse cx="90.7996" cy="58.8112" rx="4.39938" ry="4.43677" fill="#FF82B8"/>
<ellipse cx="101.6" cy="58.8112" rx="4.39938" ry="4.43677" fill="#FF82B8"/>
<ellipse cx="112.4" cy="58.8112" rx="4.39938" ry="4.43677" fill="#2F3134"/>
<ellipse cx="123.2" cy="58.8112" rx="4.39938" ry="4.43677" fill="#2F3134"/>
<ellipse cx="134" cy="58.8112" rx="4.39938" ry="4.43677" fill="#FF82B8"/>
<ellipse cx="144.8" cy="58.8112" rx="4.39938" ry="4.43677" fill="#FF82B8"/>
<ellipse cx="155.6" cy="58.8112" rx="4.39938" ry="4.43677" fill="#FF82B8"/>
<ellipse cx="166.4" cy="58.8112" rx="4.39938" ry="4.43677" fill="#2F3134"/>
<ellipse cx="177.2" cy="58.8112" rx="4.39938" ry="4.43677" fill="#FF82B8"/>
<ellipse cx="188" cy="58.8112" rx="4.39938" ry="4.43677" fill="#FF82B8"/>
<ellipse cx="198.8" cy="58.8112" rx="4.39938" ry="4.43677" fill="#FF82B8"/>
<ellipse cx="209.6" cy="58.8112" rx="4.39938" ry="4.43677" fill="#2F3134"/>
<ellipse cx="220.4" cy="58.8112" rx="4.39938" ry="4.43677" fill="#FF82B8"/>
<ellipse cx="231.2" cy="58.8112" rx="4.39938" ry="4.43677" fill="#FF82B8"/>
<ellipse cx="242" cy="58.8112" rx="4.39938" ry="4.43677" fill="#FF82B8"/>
<ellipse cx="252.8" cy="58.8112" rx="4.39938" ry="4.43677" fill="#2F3134"/>
<ellipse cx="263.6" cy="58.8112" rx="4.39938" ry="4.43677" fill="#FF82B8"/>
<ellipse cx="274.4" cy="58.8112" rx="4.39938" ry="4.43677" fill="#FF82B8"/>
<ellipse cx="285.2" cy="58.8112" rx="4.39938" ry="4.43677" fill="#FF82B8"/>
<ellipse cx="296" cy="58.8112" rx="4.39938" ry="4.43677" fill="#2F3134"/>
<ellipse cx="306.8" cy="58.8112" rx="4.39938" ry="4.43677" fill="#2F3134"/>
<ellipse cx="317.601" cy="58.8112" rx="4.39938" ry="4.43677" fill="#FF82B8"/>
<ellipse cx="328.4" cy="58.8112" rx="4.39938" ry="4.43677" fill="#FF82B8"/>
<ellipse cx="339.2" cy="58.8112" rx="4.39938" ry="4.43677" fill="#2F3134"/>
<ellipse cx="350.001" cy="58.8112" rx="4.39938" ry="4.43677" fill="#2F3134"/>
<ellipse cx="360.8" cy="58.8112" rx="4.39938" ry="4.43677" fill="#2F3134"/>
<ellipse cx="371.6" cy="58.8112" rx="4.39938" ry="4.43677" fill="#2F3134"/>
<ellipse cx="4.39938" cy="69.6853" rx="4.39938" ry="4.43677" fill="#2F3134"/>
<ellipse cx="15.1992" cy="69.6853" rx="4.39938" ry="4.43677" fill="#2F3134"/>
<ellipse cx="25.9996" cy="69.6853" rx="4.39938" ry="4.43677" fill="#2F3134"/>
<ellipse cx="36.7994" cy="69.6853" rx="4.39938" ry="4.43677" fill="#FF82B8"/>
<ellipse cx="47.5997" cy="69.6853" rx="4.39938" ry="4.43677" fill="#2F3134"/>
<ellipse cx="58.3996" cy="69.6853" rx="4.39938" ry="4.43677" fill="#2F3134"/>
<ellipse cx="69.1994" cy="69.6853" rx="4.39938" ry="4.43677" fill="#2F3134"/>
<ellipse cx="79.9997" cy="69.6853" rx="4.39938" ry="4.43677" fill="#FF82B8"/>
<ellipse cx="90.7996" cy="69.6853" rx="4.39938" ry="4.43677" fill="#2F3134"/>
<ellipse cx="101.6" cy="69.6853" rx="4.39938" ry="4.43677" fill="#2F3134"/>
<ellipse cx="112.4" cy="69.6853" rx="4.39938" ry="4.43677" fill="#FF82B8"/>
<ellipse cx="123.2" cy="69.6853" rx="4.39938" ry="4.43677" fill="#2F3134"/>
<ellipse cx="134" cy="69.6853" rx="4.39938" ry="4.43677" fill="#FF82B8"/>
<ellipse cx="144.8" cy="69.6853" rx="4.39938" ry="4.43677" fill="#2F3134"/>
<ellipse cx="155.6" cy="69.6853" rx="4.39938" ry="4.43677" fill="#2F3134"/>
<ellipse cx="166.4" cy="69.6853" rx="4.39938" ry="4.43677" fill="#2F3134"/>
<ellipse cx="177.2" cy="69.6853" rx="4.39938" ry="4.43677" fill="#FF82B8"/>
<ellipse cx="188" cy="69.6853" rx="4.39938" ry="4.43677" fill="#2F3134"/>
<ellipse cx="198.8" cy="69.6853" rx="4.39938" ry="4.43677" fill="#2F3134"/>
<ellipse cx="209.6" cy="69.6853" rx="4.39938" ry="4.43677" fill="#2F3134"/>
<ellipse cx="220.4" cy="69.6853" rx="4.39938" ry="4.43677" fill="#FF82B8"/>
<ellipse cx="231.2" cy="69.6853" rx="4.39938" ry="4.43677" fill="#2F3134"/>
<ellipse cx="242" cy="69.6853" rx="4.39938" ry="4.43677" fill="#2F3134"/>
<ellipse cx="252.8" cy="69.6853" rx="4.39938" ry="4.43677" fill="#2F3134"/>
<ellipse cx="263.6" cy="69.6853" rx="4.39938" ry="4.43677" fill="#FF82B8"/>
<ellipse cx="274.4" cy="69.6853" rx="4.39938" ry="4.43677" fill="#2F3134"/>
<ellipse cx="285.2" cy="69.6853" rx="4.39938" ry="4.43677" fill="#2F3134"/>
<ellipse cx="296" cy="69.6853" rx="4.39938" ry="4.43677" fill="#2F3134"/>
<ellipse cx="306.8" cy="69.6853" rx="4.39938" ry="4.43677" fill="#FF82B8"/>
<ellipse cx="317.601" cy="69.6853" rx="4.39938" ry="4.43677" fill="#2F3134"/>
<ellipse cx="328.4" cy="69.6853" rx="4.39938" ry="4.43677" fill="#2F3134"/>
<ellipse cx="339.2" cy="69.6853" rx="4.39938" ry="4.43677" fill="#FF82B8"/>
<ellipse cx="350.001" cy="69.6853" rx="4.39938" ry="4.43677" fill="#2F3134"/>
<ellipse cx="360.8" cy="69.6853" rx="4.39938" ry="4.43677" fill="#2F3134"/>
<ellipse cx="371.6" cy="69.6853" rx="4.39938" ry="4.43677" fill="#2F3134"/>
<ellipse cx="4.39938" cy="80.5604" rx="4.39938" ry="4.43677" fill="#2F3134"/>
<ellipse cx="15.1992" cy="80.5604" rx="4.39938" ry="4.43677" fill="#2F3134"/>
<ellipse cx="25.9996" cy="80.5604" rx="4.39938" ry="4.43677" fill="#2F3134"/>
<ellipse cx="36.7994" cy="80.5604" rx="4.39938" ry="4.43677" fill="#FF82B8"/>
<ellipse cx="47.5997" cy="80.5604" rx="4.39938" ry="4.43677" fill="#2F3134"/>
<ellipse cx="58.3996" cy="80.5604" rx="4.39938" ry="4.43677" fill="#2F3134"/>
<ellipse cx="69.1994" cy="80.5604" rx="4.39938" ry="4.43677" fill="#2F3134"/>
<ellipse cx="79.9997" cy="80.5604" rx="4.39938" ry="4.43677" fill="#FF82B8"/>
<ellipse cx="90.7996" cy="80.5604" rx="4.39938" ry="4.43677" fill="#2F3134"/>
<ellipse cx="101.6" cy="80.5604" rx="4.39938" ry="4.43677" fill="#2F3134"/>
<ellipse cx="112.4" cy="80.5604" rx="4.39938" ry="4.43677" fill="#FF82B8"/>
<ellipse cx="123.2" cy="80.5604" rx="4.39938" ry="4.43677" fill="#2F3134"/>
<ellipse cx="134" cy="80.5604" rx="4.39938" ry="4.43677" fill="#FF82B8"/>
<ellipse cx="144.8" cy="80.5604" rx="4.39938" ry="4.43677" fill="#FF82B8"/>
<ellipse cx="155.6" cy="80.5604" rx="4.39938" ry="4.43677" fill="#FF82B8"/>
<ellipse cx="166.4" cy="80.5604" rx="4.39938" ry="4.43677" fill="#2F3134"/>
<ellipse cx="177.2" cy="80.5604" rx="4.39938" ry="4.43677" fill="#FF82B8"/>
<ellipse cx="188" cy="80.5604" rx="4.39938" ry="4.43677" fill="#FF82B8"/>
<ellipse cx="198.8" cy="80.5604" rx="4.39938" ry="4.43677" fill="#FF82B8"/>
<ellipse cx="209.6" cy="80.5604" rx="4.39938" ry="4.43677" fill="#2F3134"/>
<ellipse cx="220.4" cy="80.5604" rx="4.39938" ry="4.43677" fill="#FF82B8"/>
<ellipse cx="231.2" cy="80.5604" rx="4.39938" ry="4.43677" fill="#FF82B8"/>
<ellipse cx="242" cy="80.5604" rx="4.39938" ry="4.43677" fill="#FF82B8"/>
<ellipse cx="252.8" cy="80.5604" rx="4.39938" ry="4.43677" fill="#2F3134"/>
<ellipse cx="263.6" cy="80.5604" rx="4.39938" ry="4.43677" fill="#FF82B8"/>
<ellipse cx="274.4" cy="80.5604" rx="4.39938" ry="4.43677" fill="#FF82B8"/>
<ellipse cx="285.2" cy="80.5604" rx="4.39938" ry="4.43677" fill="#FF82B8"/>
<ellipse cx="296" cy="80.5604" rx="4.39938" ry="4.43677" fill="#2F3134"/>
<ellipse cx="306.8" cy="80.5604" rx="4.39938" ry="4.43677" fill="#2F3134"/>
<ellipse cx="317.601" cy="80.5604" rx="4.39938" ry="4.43677" fill="#2F3134"/>
<ellipse cx="328.4" cy="80.5604" rx="4.39938" ry="4.43677" fill="#2F3134"/>
<ellipse cx="339.2" cy="80.5604" rx="4.39938" ry="4.43677" fill="#FF82B8"/>
<ellipse cx="350.001" cy="80.5604" rx="4.39938" ry="4.43677" fill="#2F3134"/>
<ellipse cx="360.8" cy="80.5604" rx="4.39938" ry="4.43677" fill="#2F3134"/>
<ellipse cx="371.6" cy="80.5604" rx="4.39938" ry="4.43677" fill="#2F3134"/>
<ellipse cx="4.39938" cy="91.4355" rx="4.39938" ry="4.43677" fill="#2F3134"/>
<ellipse cx="15.1992" cy="91.4355" rx="4.39938" ry="4.43677" fill="#2F3134"/>
<ellipse cx="25.9996" cy="91.4355" rx="4.39938" ry="4.43677" fill="#2F3134"/>
<ellipse cx="36.7994" cy="91.4355" rx="4.39938" ry="4.43677" fill="#FF82B8"/>
<ellipse cx="47.5997" cy="91.4355" rx="4.39938" ry="4.43677" fill="#2F3134"/>
<ellipse cx="58.3996" cy="91.4355" rx="4.39938" ry="4.43677" fill="#2F3134"/>
<ellipse cx="69.1994" cy="91.4355" rx="4.39938" ry="4.43677" fill="#2F3134"/>
<ellipse cx="79.9997" cy="91.4355" rx="4.39938" ry="4.43677" fill="#FF82B8"/>
<ellipse cx="90.7996" cy="91.4355" rx="4.39938" ry="4.43677" fill="#2F3134"/>
<ellipse cx="101.6" cy="91.4355" rx="4.39938" ry="4.43677" fill="#2F3134"/>
<ellipse cx="112.4" cy="91.4355" rx="4.39938" ry="4.43677" fill="#FF82B8"/>
<ellipse cx="123.2" cy="91.4355" rx="4.39938" ry="4.43677" fill="#2F3134"/>
<ellipse cx="134" cy="91.4355" rx="4.39938" ry="4.43677" fill="#FF82B8"/>
<ellipse cx="144.8" cy="91.4355" rx="4.39938" ry="4.43677" fill="#2F3134"/>
<ellipse cx="155.6" cy="91.4355" rx="4.39938" ry="4.43677" fill="#2F3134"/>
<ellipse cx="166.4" cy="91.4355" rx="4.39938" ry="4.43677" fill="#2F3134"/>
<ellipse cx="177.2" cy="91.4355" rx="4.39938" ry="4.43677" fill="#FF82B8"/>
<ellipse cx="188" cy="91.4355" rx="4.39938" ry="4.43677" fill="#2F3134"/>
<ellipse cx="198.8" cy="91.4355" rx="4.39938" ry="4.43677" fill="#2F3134"/>
<ellipse cx="209.6" cy="91.4355" rx="4.39938" ry="4.43677" fill="#2F3134"/>
<ellipse cx="220.4" cy="91.4355" rx="4.39938" ry="4.43677" fill="#FF82B8"/>
<ellipse cx="231.2" cy="91.4355" rx="4.39938" ry="4.43677" fill="#2F3134"/>
<ellipse cx="242" cy="91.4355" rx="4.39938" ry="4.43677" fill="#2F3134"/>
<ellipse cx="252.8" cy="91.4355" rx="4.39938" ry="4.43677" fill="#2F3134"/>
<ellipse cx="263.6" cy="91.4355" rx="4.39938" ry="4.43677" fill="#FF82B8"/>
<ellipse cx="274.4" cy="91.4355" rx="4.39938" ry="4.43677" fill="#2F3134"/>
<ellipse cx="285.2" cy="91.4355" rx="4.39938" ry="4.43677" fill="#2F3134"/>
<ellipse cx="296" cy="91.4355" rx="4.39938" ry="4.43677" fill="#2F3134"/>
<ellipse cx="306.8" cy="91.4355" rx="4.39938" ry="4.43677" fill="#2F3134"/>
<ellipse cx="317.601" cy="91.4355" rx="4.39938" ry="4.43677" fill="#FF82B8"/>
<ellipse cx="328.4" cy="91.4355" rx="4.39938" ry="4.43677" fill="#FF82B8"/>
<ellipse cx="339.2" cy="91.4355" rx="4.39938" ry="4.43677" fill="#2F3134"/>
<ellipse cx="350.001" cy="91.4355" rx="4.39938" ry="4.43677" fill="#2F3134"/>
<ellipse cx="360.8" cy="91.4355" rx="4.39938" ry="4.43677" fill="#2F3134"/>
<ellipse cx="371.6" cy="91.4355" rx="4.39938" ry="4.43677" fill="#2F3134"/>
<ellipse cx="4.39938" cy="102.31" rx="4.39938" ry="4.43677" fill="#2F3134"/>
<ellipse cx="15.1992" cy="102.31" rx="4.39938" ry="4.43677" fill="#2F3134"/>
<ellipse cx="25.9996" cy="102.31" rx="4.39938" ry="4.43677" fill="#2F3134"/>
<ellipse cx="36.7994" cy="102.31" rx="4.39938" ry="4.43677" fill="#FF82B8"/>
<ellipse cx="47.5997" cy="102.31" rx="4.39938" ry="4.43677" fill="#2F3134"/>
<ellipse cx="58.3996" cy="102.31" rx="4.39938" ry="4.43677" fill="#2F3134"/>
<ellipse cx="69.1994" cy="102.31" rx="4.39938" ry="4.43677" fill="#2F3134"/>
<ellipse cx="79.9997" cy="102.31" rx="4.39938" ry="4.43677" fill="#FF82B8"/>
<ellipse cx="90.7996" cy="102.31" rx="4.39938" ry="4.43677" fill="#2F3134"/>
<ellipse cx="101.6" cy="102.31" rx="4.39938" ry="4.43677" fill="#2F3134"/>
<ellipse cx="112.4" cy="102.31" rx="4.39938" ry="4.43677" fill="#FF82B8"/>
<ellipse cx="123.2" cy="102.31" rx="4.39938" ry="4.43677" fill="#2F3134"/>
<ellipse cx="134" cy="102.31" rx="4.39938" ry="4.43677" fill="#FF82B8"/>
<ellipse cx="144.8" cy="102.31" rx="4.39938" ry="4.43677" fill="#2F3134"/>
<ellipse cx="155.6" cy="102.31" rx="4.39938" ry="4.43677" fill="#2F3134"/>
<ellipse cx="166.4" cy="102.31" rx="4.39938" ry="4.43677" fill="#2F3134"/>
<ellipse cx="177.2" cy="102.31" rx="4.39938" ry="4.43677" fill="#FF82B8"/>
<ellipse cx="188" cy="102.31" rx="4.39938" ry="4.43677" fill="#2F3134"/>
<ellipse cx="198.8" cy="102.31" rx="4.39938" ry="4.43677" fill="#2F3134"/>
<ellipse cx="209.6" cy="102.31" rx="4.39938" ry="4.43677" fill="#2F3134"/>
<ellipse cx="220.4" cy="102.31" rx="4.39938" ry="4.43677" fill="#FF82B8"/>
<ellipse cx="231.2" cy="102.31" rx="4.39938" ry="4.43677" fill="#2F3134"/>
<ellipse cx="242" cy="102.31" rx="4.39938" ry="4.43677" fill="#2F3134"/>
<ellipse cx="252.8" cy="102.31" rx="4.39938" ry="4.43677" fill="#2F3134"/>
<ellipse cx="263.6" cy="102.31" rx="4.39938" ry="4.43677" fill="#FF82B8"/>
<ellipse cx="274.4" cy="102.31" rx="4.39938" ry="4.43677" fill="#2F3134"/>
<ellipse cx="285.2" cy="102.31" rx="4.39938" ry="4.43677" fill="#2F3134"/>
<ellipse cx="296" cy="102.31" rx="4.39938" ry="4.43677" fill="#2F3134"/>
<ellipse cx="306.8" cy="102.31" rx="4.39938" ry="4.43677" fill="#2F3134"/>
<ellipse cx="317.601" cy="102.31" rx="4.39938" ry="4.43677" fill="#FF82B8"/>
<ellipse cx="328.4" cy="102.31" rx="4.39938" ry="4.43677" fill="#2F3134"/>
<ellipse cx="339.2" cy="102.31" rx="4.39938" ry="4.43677" fill="#2F3134"/>
<ellipse cx="350.001" cy="102.31" rx="4.39938" ry="4.43677" fill="#2F3134"/>
<ellipse cx="360.8" cy="102.31" rx="4.39938" ry="4.43677" fill="#2F3134"/>
<ellipse cx="371.6" cy="102.31" rx="4.39938" ry="4.43677" fill="#2F3134"/>
<ellipse cx="4.39938" cy="113.185" rx="4.39938" ry="4.43677" fill="#2F3134"/>
<ellipse cx="15.1992" cy="113.185" rx="4.39938" ry="4.43677" fill="#2F3134"/>
<ellipse cx="25.9996" cy="113.185" rx="4.39938" ry="4.43677" fill="#2F3134"/>
<ellipse cx="36.7994" cy="113.185" rx="4.39938" ry="4.43677" fill="#2F3134"/>
<ellipse cx="47.5997" cy="113.185" rx="4.39938" ry="4.43677" fill="#FF82B8"/>
<ellipse cx="58.3996" cy="113.185" rx="4.39938" ry="4.43677" fill="#FF82B8"/>
<ellipse cx="69.1994" cy="113.185" rx="4.39938" ry="4.43677" fill="#2F3134"/>
<ellipse cx="79.9997" cy="113.185" rx="4.39938" ry="4.43677" fill="#2F3134"/>
<ellipse cx="90.7996" cy="113.185" rx="4.39938" ry="4.43677" fill="#FF82B8"/>
<ellipse cx="101.6" cy="113.185" rx="4.39938" ry="4.43677" fill="#FF82B8"/>
<ellipse cx="112.4" cy="113.185" rx="4.39938" ry="4.43677" fill="#2F3134"/>
<ellipse cx="123.2" cy="113.185" rx="4.39938" ry="4.43677" fill="#2F3134"/>
<ellipse cx="134" cy="113.185" rx="4.39938" ry="4.43677" fill="#FF82B8"/>
<ellipse cx="144.8" cy="113.185" rx="4.39938" ry="4.43677" fill="#2F3134"/>
<ellipse cx="155.6" cy="113.185" rx="4.39938" ry="4.43677" fill="#2F3134"/>
<ellipse cx="166.4" cy="113.185" rx="4.39938" ry="4.43677" fill="#2F3134"/>
<ellipse cx="177.2" cy="113.185" rx="4.39938" ry="4.43677" fill="#FF82B8"/>
<ellipse cx="188" cy="113.185" rx="4.39938" ry="4.43677" fill="#2F3134"/>
<ellipse cx="198.8" cy="113.185" rx="4.39938" ry="4.43677" fill="#2F3134"/>
<ellipse cx="209.6" cy="113.185" rx="4.39938" ry="4.43677" fill="#2F3134"/>
<ellipse cx="220.4" cy="113.185" rx="4.39938" ry="4.43677" fill="#FF82B8"/>
<ellipse cx="231.2" cy="113.185" rx="4.39938" ry="4.43677" fill="#FF82B8"/>
<ellipse cx="242" cy="113.185" rx="4.39938" ry="4.43677" fill="#FF82B8"/>
<ellipse cx="252.8" cy="113.185" rx="4.39938" ry="4.43677" fill="#2F3134"/>
<ellipse cx="263.6" cy="113.185" rx="4.39938" ry="4.43677" fill="#FF82B8"/>
<ellipse cx="274.4" cy="113.185" rx="4.39938" ry="4.43677" fill="#FF82B8"/>
<ellipse cx="285.2" cy="113.185" rx="4.39938" ry="4.43677" fill="#FF82B8"/>
<ellipse cx="296" cy="113.185" rx="4.39938" ry="4.43677" fill="#2F3134"/>
<ellipse cx="306.8" cy="113.185" rx="4.39938" ry="4.43677" fill="#2F3134"/>
<ellipse cx="317.601" cy="113.185" rx="4.39938" ry="4.43677" fill="#2F3134"/>
<ellipse cx="328.4" cy="113.185" rx="4.39938" ry="4.43677" fill="#2F3134"/>
<ellipse cx="339.2" cy="113.185" rx="4.39938" ry="4.43677" fill="#2F3134"/>
<ellipse cx="350.001" cy="113.185" rx="4.39938" ry="4.43677" fill="#2F3134"/>
<ellipse cx="360.8" cy="113.185" rx="4.39938" ry="4.43677" fill="#2F3134"/>
<ellipse cx="371.6" cy="113.185" rx="4.39938" ry="4.43677" fill="#2F3134"/>
<ellipse cx="4.39938" cy="124.06" rx="4.39938" ry="4.43677" fill="#2F3134"/>
<ellipse cx="15.1992" cy="124.06" rx="4.39938" ry="4.43677" fill="#2F3134"/>
<ellipse cx="25.9996" cy="124.06" rx="4.39938" ry="4.43677" fill="#2F3134"/>
<ellipse cx="36.7994" cy="124.06" rx="4.39938" ry="4.43677" fill="#2F3134"/>
<ellipse cx="47.5997" cy="124.06" rx="4.39938" ry="4.43677" fill="#2F3134"/>
<ellipse cx="58.3996" cy="124.06" rx="4.39938" ry="4.43677" fill="#2F3134"/>
<ellipse cx="69.1994" cy="124.06" rx="4.39938" ry="4.43677" fill="#2F3134"/>
<ellipse cx="79.9997" cy="124.06" rx="4.39938" ry="4.43677" fill="#2F3134"/>
<ellipse cx="90.7996" cy="124.06" rx="4.39938" ry="4.43677" fill="#2F3134"/>
<ellipse cx="101.6" cy="124.06" rx="4.39938" ry="4.43677" fill="#2F3134"/>
<ellipse cx="112.4" cy="124.06" rx="4.39938" ry="4.43677" fill="#2F3134"/>
<ellipse cx="123.2" cy="124.06" rx="4.39938" ry="4.43677" fill="#2F3134"/>
<ellipse cx="134" cy="124.06" rx="4.39938" ry="4.43677" fill="#2F3134"/>
<ellipse cx="144.8" cy="124.06" rx="4.39938" ry="4.43677" fill="#2F3134"/>
<ellipse cx="155.6" cy="124.06" rx="4.39938" ry="4.43677" fill="#2F3134"/>
<ellipse cx="166.4" cy="124.06" rx="4.39938" ry="4.43677" fill="#2F3134"/>
<ellipse cx="177.2" cy="124.06" rx="4.39938" ry="4.43677" fill="#2F3134"/>
<ellipse cx="188" cy="124.06" rx="4.39938" ry="4.43677" fill="#2F3134"/>
<ellipse cx="198.8" cy="124.06" rx="4.39938" ry="4.43677" fill="#2F3134"/>
<ellipse cx="209.6" cy="124.06" rx="4.39938" ry="4.43677" fill="#2F3134"/>
<ellipse cx="220.4" cy="124.06" rx="4.39938" ry="4.43677" fill="#2F3134"/>
<ellipse cx="231.2" cy="124.06" rx="4.39938" ry="4.43677" fill="#2F3134"/>
<ellipse cx="242" cy="124.06" rx="4.39938" ry="4.43677" fill="#2F3134"/>
<ellipse cx="252.8" cy="124.06" rx="4.39938" ry="4.43677" fill="#2F3134"/>
<ellipse cx="263.6" cy="124.06" rx="4.39938" ry="4.43677" fill="#2F3134"/>
<ellipse cx="274.4" cy="124.06" rx="4.39938" ry="4.43677" fill="#2F3134"/>
<ellipse cx="285.2" cy="124.06" rx="4.39938" ry="4.43677" fill="#2F3134"/>
<ellipse cx="296" cy="124.06" rx="4.39938" ry="4.43677" fill="#2F3134"/>
<ellipse cx="306.8" cy="124.06" rx="4.39938" ry="4.43677" fill="#2F3134"/>
<ellipse cx="317.601" cy="124.06" rx="4.39938" ry="4.43677" fill="#FF82B8"/>
<ellipse cx="328.4" cy="124.06" rx="4.39938" ry="4.43677" fill="#2F3134"/>
<ellipse cx="339.2" cy="124.06" rx="4.39938" ry="4.43677" fill="#2F3134"/>
<ellipse cx="350.001" cy="124.06" rx="4.39938" ry="4.43677" fill="#2F3134"/>
<ellipse cx="360.8" cy="124.06" rx="4.39938" ry="4.43677" fill="#2F3134"/>
<ellipse cx="371.6" cy="124.06" rx="4.39938" ry="4.43677" fill="#2F3134"/>
<ellipse cx="4.39938" cy="134.935" rx="4.39938" ry="4.43677" fill="#2F3134"/>
<ellipse cx="15.1992" cy="134.935" rx="4.39938" ry="4.43677" fill="#2F3134"/>
<ellipse cx="25.9996" cy="134.935" rx="4.39938" ry="4.43677" fill="#2F3134"/>
<ellipse cx="36.7994" cy="134.935" rx="4.39938" ry="4.43677" fill="#2F3134"/>
<ellipse cx="47.5997" cy="134.935" rx="4.39938" ry="4.43677" fill="#2F3134"/>
<ellipse cx="58.3996" cy="134.935" rx="4.39938" ry="4.43677" fill="#2F3134"/>
<ellipse cx="69.1994" cy="134.935" rx="4.39938" ry="4.43677" fill="#2F3134"/>
<ellipse cx="79.9997" cy="134.935" rx="4.39938" ry="4.43677" fill="#2F3134"/>
<ellipse cx="90.7996" cy="134.935" rx="4.39938" ry="4.43677" fill="#2F3134"/>
<ellipse cx="101.6" cy="134.935" rx="4.39938" ry="4.43677" fill="#2F3134"/>
<ellipse cx="112.4" cy="134.935" rx="4.39938" ry="4.43677" fill="#2F3134"/>
<ellipse cx="123.2" cy="134.935" rx="4.39938" ry="4.43677" fill="#2F3134"/>
<ellipse cx="134" cy="134.935" rx="4.39938" ry="4.43677" fill="#2F3134"/>
<ellipse cx="144.8" cy="134.935" rx="4.39938" ry="4.43677" fill="#2F3134"/>
<ellipse cx="155.6" cy="134.935" rx="4.39938" ry="4.43677" fill="#2F3134"/>
<ellipse cx="166.4" cy="134.935" rx="4.39938" ry="4.43677" fill="#2F3134"/>
<ellipse cx="177.2" cy="134.935" rx="4.39938" ry="4.43677" fill="#2F3134"/>
<ellipse cx="188" cy="134.935" rx="4.39938" ry="4.43677" fill="#2F3134"/>
<ellipse cx="198.8" cy="134.935" rx="4.39938" ry="4.43677" fill="#2F3134"/>
<ellipse cx="209.6" cy="134.935" rx="4.39938" ry="4.43677" fill="#2F3134"/>
<ellipse cx="220.4" cy="134.935" rx="4.39938" ry="4.43677" fill="#2F3134"/>
<ellipse cx="231.2" cy="134.935" rx="4.39938" ry="4.43677" fill="#2F3134"/>
<ellipse cx="242" cy="134.935" rx="4.39938" ry="4.43677" fill="#2F3134"/>
<ellipse cx="252.8" cy="134.935" rx="4.39938" ry="4.43677" fill="#2F3134"/>
<ellipse cx="263.6" cy="134.935" rx="4.39938" ry="4.43677" fill="#2F3134"/>
<ellipse cx="274.4" cy="134.935" rx="4.39938" ry="4.43677" fill="#2F3134"/>
<ellipse cx="285.2" cy="134.935" rx="4.39938" ry="4.43677" fill="#2F3134"/>
<ellipse cx="296" cy="134.935" rx="4.39938" ry="4.43677" fill="#2F3134"/>
<ellipse cx="306.8" cy="134.935" rx="4.39938" ry="4.43677" fill="#2F3134"/>
<ellipse cx="317.601" cy="134.935" rx="4.39938" ry="4.43677" fill="#2F3134"/>
<ellipse cx="328.4" cy="134.935" rx="4.39938" ry="4.43677" fill="#2F3134"/>
<ellipse cx="339.2" cy="134.935" rx="4.39938" ry="4.43677" fill="#2F3134"/>
<ellipse cx="350.001" cy="134.935" rx="4.39938" ry="4.43677" fill="#2F3134"/>
<ellipse cx="360.8" cy="134.935" rx="4.39938" ry="4.43677" fill="#2F3134"/>
<ellipse cx="371.6" cy="134.935" rx="4.39938" ry="4.43677" fill="#2F3134"/>
<ellipse cx="4.39938" cy="145.809" rx="4.39938" ry="4.43677" fill="#2F3134"/>
<ellipse cx="15.1992" cy="145.809" rx="4.39938" ry="4.43677" fill="#2F3134"/>
<ellipse cx="25.9996" cy="145.809" rx="4.39938" ry="4.43677" fill="#2F3134"/>
<ellipse cx="36.7994" cy="145.809" rx="4.39938" ry="4.43677" fill="#2F3134"/>
<ellipse cx="47.5997" cy="145.809" rx="4.39938" ry="4.43677" fill="#2F3134"/>
<ellipse cx="58.3996" cy="145.809" rx="4.39938" ry="4.43677" fill="#2F3134"/>
<ellipse cx="69.1994" cy="145.809" rx="4.39938" ry="4.43677" fill="#2F3134"/>
<ellipse cx="79.9997" cy="145.809" rx="4.39938" ry="4.43677" fill="#2F3134"/>
<ellipse cx="90.7996" cy="145.809" rx="4.39938" ry="4.43677" fill="#2F3134"/>
<ellipse cx="101.6" cy="145.809" rx="4.39938" ry="4.43677" fill="#2F3134"/>
<ellipse cx="112.4" cy="145.809" rx="4.39938" ry="4.43677" fill="#2F3134"/>
<ellipse cx="123.2" cy="145.809" rx="4.39938" ry="4.43677" fill="#2F3134"/>
<ellipse cx="134" cy="145.809" rx="4.39938" ry="4.43677" fill="#2F3134"/>
<ellipse cx="144.8" cy="145.809" rx="4.39938" ry="4.43677" fill="#2F3134"/>
<ellipse cx="155.6" cy="145.809" rx="4.39938" ry="4.43677" fill="#2F3134"/>
<ellipse cx="166.4" cy="145.809" rx="4.39938" ry="4.43677" fill="#2F3134"/>
<ellipse cx="177.2" cy="145.809" rx="4.39938" ry="4.43677" fill="#2F3134"/>
<ellipse cx="188" cy="145.809" rx="4.39938" ry="4.43677" fill="#2F3134"/>
<ellipse cx="198.8" cy="145.809" rx="4.39938" ry="4.43677" fill="#2F3134"/>
<ellipse cx="209.6" cy="145.809" rx="4.39938" ry="4.43677" fill="#2F3134"/>
<ellipse cx="220.4" cy="145.809" rx="4.39938" ry="4.43677" fill="#2F3134"/>
<ellipse cx="231.2" cy="145.809" rx="4.39938" ry="4.43677" fill="#2F3134"/>
<ellipse cx="242" cy="145.809" rx="4.39938" ry="4.43677" fill="#2F3134"/>
<ellipse cx="252.8" cy="145.809" rx="4.39938" ry="4.43677" fill="#2F3134"/>
<ellipse cx="263.6" cy="145.809" rx="4.39938" ry="4.43677" fill="#2F3134"/>
<ellipse cx="274.4" cy="145.809" rx="4.39938" ry="4.43677" fill="#2F3134"/>
<ellipse cx="285.2" cy="145.809" rx="4.39938" ry="4.43677" fill="#2F3134"/>
<ellipse cx="296" cy="145.809" rx="4.39938" ry="4.43677" fill="#2F3134"/>
<ellipse cx="306.8" cy="145.809" rx="4.39938" ry="4.43677" fill="#2F3134"/>
<ellipse cx="317.601" cy="145.809" rx="4.39938" ry="4.43677" fill="#2F3134"/>
<ellipse cx="328.4" cy="145.809" rx="4.39938" ry="4.43677" fill="#2F3134"/>
<ellipse cx="339.2" cy="145.809" rx="4.39938" ry="4.43677" fill="#2F3134"/>
<ellipse cx="350.001" cy="145.809" rx="4.39938" ry="4.43677" fill="#2F3134"/>
<ellipse cx="360.8" cy="145.809" rx="4.39938" ry="4.43677" fill="#2F3134"/>
<ellipse cx="371.6" cy="145.809" rx="4.39938" ry="4.43677" fill="#2F3134"/>
<ellipse cx="4.39938" cy="156.684" rx="4.39938" ry="4.43677" fill="#2F3134"/>
<ellipse cx="15.1992" cy="156.684" rx="4.39938" ry="4.43677" fill="#2F3134"/>
<ellipse cx="25.9996" cy="156.684" rx="4.39938" ry="4.43677" fill="#2F3134"/>
<ellipse cx="36.7994" cy="156.684" rx="4.39938" ry="4.43677" fill="#2F3134"/>
<ellipse cx="47.5997" cy="156.684" rx="4.39938" ry="4.43677" fill="#2F3134"/>
<ellipse cx="58.3996" cy="156.684" rx="4.39938" ry="4.43677" fill="#2F3134"/>
<ellipse cx="69.1994" cy="156.684" rx="4.39938" ry="4.43677" fill="#2F3134"/>
<ellipse cx="79.9997" cy="156.684" rx="4.39938" ry="4.43677" fill="#2F3134"/>
<ellipse cx="90.7996" cy="156.684" rx="4.39938" ry="4.43677" fill="#2F3134"/>
<ellipse cx="101.6" cy="156.684" rx="4.39938" ry="4.43677" fill="#2F3134"/>
<ellipse cx="112.4" cy="156.684" rx="4.39938" ry="4.43677" fill="#2F3134"/>
<ellipse cx="123.2" cy="156.684" rx="4.39938" ry="4.43677" fill="#2F3134"/>
<ellipse cx="134" cy="156.684" rx="4.39938" ry="4.43677" fill="#2F3134"/>
<ellipse cx="144.8" cy="156.684" rx="4.39938" ry="4.43677" fill="#2F3134"/>
<ellipse cx="155.6" cy="156.684" rx="4.39938" ry="4.43677" fill="#2F3134"/>
<ellipse cx="166.4" cy="156.684" rx="4.39938" ry="4.43677" fill="#2F3134"/>
<ellipse cx="177.2" cy="156.684" rx="4.39938" ry="4.43677" fill="#2F3134"/>
<ellipse cx="188" cy="156.684" rx="4.39938" ry="4.43677" fill="#2F3134"/>
<ellipse cx="198.8" cy="156.684" rx="4.39938" ry="4.43677" fill="#2F3134"/>
<ellipse cx="209.6" cy="156.684" rx="4.39938" ry="4.43677" fill="#2F3134"/>
<ellipse cx="220.4" cy="156.684" rx="4.39938" ry="4.43677" fill="#2F3134"/>
<ellipse cx="231.2" cy="156.684" rx="4.39938" ry="4.43677" fill="#2F3134"/>
<ellipse cx="242" cy="156.684" rx="4.39938" ry="4.43677" fill="#2F3134"/>
<ellipse cx="252.8" cy="156.684" rx="4.39938" ry="4.43677" fill="#2F3134"/>
<ellipse cx="263.6" cy="156.684" rx="4.39938" ry="4.43677" fill="#2F3134"/>
<ellipse cx="274.4" cy="156.684" rx="4.39938" ry="4.43677" fill="#2F3134"/>
<ellipse cx="285.2" cy="156.684" rx="4.39938" ry="4.43677" fill="#2F3134"/>
<ellipse cx="296" cy="156.684" rx="4.39938" ry="4.43677" fill="#2F3134"/>
<ellipse cx="306.8" cy="156.684" rx="4.39938" ry="4.43677" fill="#2F3134"/>
<ellipse cx="317.601" cy="156.684" rx="4.39938" ry="4.43677" fill="#2F3134"/>
<ellipse cx="328.4" cy="156.684" rx="4.39938" ry="4.43677" fill="#2F3134"/>
<ellipse cx="339.2" cy="156.684" rx="4.39938" ry="4.43677" fill="#2F3134"/>
<ellipse cx="350.001" cy="156.684" rx="4.39938" ry="4.43677" fill="#2F3134"/>
<ellipse cx="360.8" cy="156.684" rx="4.39938" ry="4.43677" fill="#2F3134"/>
<ellipse cx="371.6" cy="156.684" rx="4.39938" ry="4.43677" fill="#2F3134"/>
<ellipse cx="4.39938" cy="167.559" rx="4.39938" ry="4.43677" fill="#2F3134"/>
<ellipse cx="15.1992" cy="167.559" rx="4.39938" ry="4.43677" fill="#2F3134"/>
<ellipse cx="25.9996" cy="167.559" rx="4.39938" ry="4.43677" fill="#2F3134"/>
<ellipse cx="36.7994" cy="167.559" rx="4.39938" ry="4.43677" fill="#2F3134"/>
<ellipse cx="47.5997" cy="167.559" rx="4.39938" ry="4.43677" fill="#2F3134"/>
<ellipse cx="58.3996" cy="167.559" rx="4.39938" ry="4.43677" fill="#2F3134"/>
<ellipse cx="69.1994" cy="167.559" rx="4.39938" ry="4.43677" fill="#2F3134"/>
<ellipse cx="79.9997" cy="167.559" rx="4.39938" ry="4.43677" fill="#2F3134"/>
<ellipse cx="90.7996" cy="167.559" rx="4.39938" ry="4.43677" fill="#2F3134"/>
<ellipse cx="101.6" cy="167.559" rx="4.39938" ry="4.43677" fill="#2F3134"/>
<ellipse cx="112.4" cy="167.559" rx="4.39938" ry="4.43677" fill="#2F3134"/>
<ellipse cx="123.2" cy="167.559" rx="4.39938" ry="4.43677" fill="#2F3134"/>
<ellipse cx="134" cy="167.559" rx="4.39938" ry="4.43677" fill="#2F3134"/>
<ellipse cx="144.8" cy="167.559" rx="4.39938" ry="4.43677" fill="#2F3134"/>
<ellipse cx="155.6" cy="167.559" rx="4.39938" ry="4.43677" fill="#2F3134"/>
<ellipse cx="166.4" cy="167.559" rx="4.39938" ry="4.43677" fill="#2F3134"/>
<ellipse cx="177.2" cy="167.559" rx="4.39938" ry="4.43677" fill="#2F3134"/>
<ellipse cx="188" cy="167.559" rx="4.39938" ry="4.43677" fill="#2F3134"/>
<ellipse cx="198.8" cy="167.559" rx="4.39938" ry="4.43677" fill="#2F3134"/>
<ellipse cx="209.6" cy="167.559" rx="4.39938" ry="4.43677" fill="#2F3134"/>
<ellipse cx="220.4" cy="167.559" rx="4.39938" ry="4.43677" fill="#2F3134"/>
<ellipse cx="231.2" cy="167.559" rx="4.39938" ry="4.43677" fill="#2F3134"/>
<ellipse cx="242" cy="167.559" rx="4.39938" ry="4.43677" fill="#2F3134"/>
<ellipse cx="252.8" cy="167.559" rx="4.39938" ry="4.43677" fill="#2F3134"/>
<ellipse cx="263.6" cy="167.559" rx="4.39938" ry="4.43677" fill="#2F3134"/>
<ellipse cx="274.4" cy="167.559" rx="4.39938" ry="4.43677" fill="#2F3134"/>
<ellipse cx="285.2" cy="167.559" rx="4.39938" ry="4.43677" fill="#2F3134"/>
<ellipse cx="296" cy="167.559" rx="4.39938" ry="4.43677" fill="#2F3134"/>
<ellipse cx="306.8" cy="167.559" rx="4.39938" ry="4.43677" fill="#2F3134"/>
<ellipse cx="317.601" cy="167.559" rx="4.39938" ry="4.43677" fill="#2F3134"/>
<ellipse cx="328.4" cy="167.559" rx="4.39938" ry="4.43677" fill="#2F3134"/>
<ellipse cx="339.2" cy="167.559" rx="4.39938" ry="4.43677" fill="#2F3134"/>
<ellipse cx="350.001" cy="167.559" rx="4.39938" ry="4.43677" fill="#2F3134"/>
<ellipse cx="360.8" cy="167.559" rx="4.39938" ry="4.43677" fill="#2F3134"/>
<ellipse cx="371.6" cy="167.559" rx="4.39938" ry="4.43677" fill="#2F3134"/>
</g>
<rect width="376" height="171.996" rx="2" stroke="#161719" stroke-width="6" mask="url(#path-1-inside-1_40000149_52629)"/>
<defs>
<clipPath id="clip0_40000149_52629">
<rect width="376" height="171.996" rx="2" fill="white"/>
</clipPath>
</defs>
</svg>
