<svg width="42" height="42" viewBox="0 0 42 42" fill="none" xmlns="http://www.w3.org/2000/svg">
<path fill-rule="evenodd" clip-rule="evenodd" d="M21.0005 0.4375C13.3954 0.4375 7.06199 6.27168 6.43901 13.8513L5.96761 19.5867C5.80371 21.5808 5.1705 23.5079 4.11968 25.2107L2.47731 27.8719C1.78623 28.9916 1.52418 30.3079 1.95911 31.4946C2.41286 32.7326 3.51552 33.531 4.91985 33.7446C7.69898 34.1675 12.5467 34.5625 21.0005 34.5625C29.4544 34.5625 34.3022 34.1675 37.0813 33.7446C38.4857 33.531 39.5882 32.7326 40.042 31.4946C40.477 30.3079 40.2149 28.9916 39.5238 27.8719L37.8815 25.2106C36.8307 23.5079 36.1974 21.5808 36.0335 19.5867L35.5621 13.8513C34.9391 6.27168 28.6058 0.4375 21.0005 0.4375ZM13.5591 37.0661C15.6805 37.1426 18.1423 37.1873 21.0009 37.1873C23.8591 37.1873 26.3206 37.1426 28.4418 37.0662C27.0789 39.7955 24.2586 41.67 21.0004 41.67C17.7423 41.67 14.922 39.7955 13.5591 37.0661ZM21.8756 4.59375C21.0299 4.59375 20.3444 5.27931 20.3444 6.125C20.3444 6.97069 21.0299 7.65625 21.8756 7.65625C25.0733 7.65625 27.9276 10.3517 28.2241 14.1201C28.2904 14.9632 29.0277 15.5929 29.8708 15.5265C30.7138 15.4602 31.3436 14.723 31.2771 13.8799C30.8728 8.74037 26.8851 4.59375 21.8756 4.59375Z" fill="#4E3A34"/>
</svg>
