<svg width="34" height="46" viewBox="0 0 34 46" fill="none" xmlns="http://www.w3.org/2000/svg" xmlns:xlink="http://www.w3.org/1999/xlink">
<use xlink:href="#stroke0_2065_58192" transform="translate(10.6034 9.82969) scale(0.00572127) rotate(-103.147)"/>
<use xlink:href="#stroke0_2065_58192" transform="translate(11.8701 7.39737) scale(0.00664829) rotate(79.288)"/>
<use xlink:href="#stroke0_2065_58192" transform="translate(11.1261 9.14279) scale(0.00522624) rotate(-160.652)"/>
<use xlink:href="#stroke0_2065_58192" transform="translate(11.6515 7.91588) scale(0.00609496) rotate(133.915)"/>
<use xlink:href="#stroke0_2065_58192" transform="translate(9.47006 6.47712) scale(0.00603979) rotate(14.9685)"/>
<use xlink:href="#stroke0_2065_58192" transform="translate(10.4176 8.13793) scale(0.00524999) rotate(176.079)"/>
<use xlink:href="#stroke0_2065_58192" transform="translate(10.2178 8.01992) scale(0.00614138) rotate(171.508)"/>
<use xlink:href="#stroke0_2065_58192" transform="translate(8.28135 8.44134) scale(0.00715072) rotate(-119.268)"/>
<use xlink:href="#stroke0_2065_58192" transform="translate(8.73478 8.07669) scale(0.00594139) rotate(-160.316)"/>
<use xlink:href="#stroke0_2065_58192" transform="translate(7.28907 8.32565) scale(0.00756149) rotate(-120.344)"/>
<use xlink:href="#stroke0_2065_58192" transform="translate(5.87523 6.58567) scale(0.00668829) rotate(-40.2115)"/>
<use xlink:href="#stroke0_2065_58192" transform="translate(5.38352 6.48101) scale(0.00667957) rotate(-36.5164)"/>
<use xlink:href="#stroke0_2065_58192" transform="translate(7.23483 6.17225) scale(0.0055757) rotate(99.4818)"/>
<use xlink:href="#stroke0_2065_58192" transform="translate(4.35775 7.7112) scale(0.00801883) rotate(-81.45)"/>
<use xlink:href="#stroke0_2065_58192" transform="translate(4.09871 7.81626) scale(0.00692982) rotate(-89.3823)"/>
<use xlink:href="#stroke0_2065_58192" transform="translate(4.70834 8.03525) scale(0.0052177) rotate(-137.867)"/>
<use xlink:href="#stroke0_2065_58192" transform="translate(5.79034 7.49581) scale(0.00783903) rotate(146.863)"/>
<use xlink:href="#stroke0_2065_58192" transform="translate(3.40469 5.68849) scale(0.00757178) rotate(31.604)"/>
<use xlink:href="#stroke0_2065_58192" transform="translate(2.73546 6.35477) scale(0.00562943) rotate(17.5321)"/>
<use xlink:href="#stroke0_2065_58192" transform="translate(1.44293 7.64669) scale(0.00658144) rotate(-48.9126)"/>
<use xlink:href="#stroke0_2065_58192" transform="translate(2.01335 8.93196) scale(0.00538722) rotate(-116.793)"/>
<use xlink:href="#stroke0_2065_58192" transform="translate(0.952296 8.7209) scale(0.00611804) rotate(-73.558)"/>
<use xlink:href="#stroke0_2065_58192" transform="translate(1.46486 9.64028) scale(0.00570097) rotate(-123.173)"/>
<use xlink:href="#stroke0_2065_58192" transform="translate(2.95782 9.35564) scale(0.00776161) rotate(148.444)"/>
<use xlink:href="#stroke0_2065_58192" transform="translate(1.74053 8.3989) scale(0.00519807) rotate(71.8508)"/>
<use xlink:href="#stroke0_2065_58192" transform="translate(0.448005 8.30835) scale(0.00788025) rotate(18.6248)"/>
<use xlink:href="#stroke0_2065_58192" transform="translate(0.726909 9.05199) scale(0.00644545) rotate(28.7551)"/>
<use xlink:href="#stroke0_2065_58192" transform="translate(2.0083 11.1823) scale(0.00523279) rotate(152.701)"/>
<use xlink:href="#stroke0_2065_58192" transform="translate(0.883497 10.1268) scale(0.00519607) rotate(34.5871)"/>
<use xlink:href="#stroke0_2065_58192" transform="translate(0.020115 12.3736) scale(0.00611287) rotate(-85.4325)"/>
<use xlink:href="#stroke0_2065_58192" transform="translate(0.000110626 12.9646) scale(0.00677616) rotate(-86.6638)"/>
<use xlink:href="#stroke0_2065_58192" transform="translate(-0.164507 13.3379) scale(0.00776626) rotate(-74.8317)"/>
<use xlink:href="#stroke0_2065_58192" transform="translate(1.54126 11.7701) scale(0.00657678) rotate(42.8529)"/>
<use xlink:href="#stroke0_2065_58192" transform="translate(0.70163 12.4028) scale(0.00784393) rotate(-1.1256)"/>
<use xlink:href="#stroke0_2065_58192" transform="translate(3.12147 13.7977) scale(0.00520218) rotate(120.271)"/>
<use xlink:href="#stroke0_2065_58192" transform="translate(1.18746 14.6362) scale(0.00573765) rotate(-63.5183)"/>
<use xlink:href="#stroke0_2065_58192" transform="translate(4.08151 14.6667) scale(0.00684799) rotate(131.434)"/>
<use xlink:href="#stroke0_2065_58192" transform="translate(4.41604 16.019) scale(0.00798317) rotate(169.941)"/>
<use xlink:href="#stroke0_2065_58192" transform="translate(4.73548 13.9185) scale(0.00789562) rotate(80.8241)"/>
<use xlink:href="#stroke0_2065_58192" transform="translate(4.2849 14.0586) scale(0.00563842) rotate(44.7237)"/>
<use xlink:href="#stroke0_2065_58192" transform="translate(4.51999 14.1528) scale(0.00523684) rotate(35.4348)"/>
<use xlink:href="#stroke0_2065_58192" transform="translate(5.52062 16.1751) scale(0.00522597) rotate(-165.684)"/>
<use xlink:href="#stroke0_2065_58192" transform="translate(5.38028 16.357) scale(0.0056371) rotate(-135.417)"/>
<use xlink:href="#stroke0_2065_58192" transform="translate(6.86161 14.2442) scale(0.00645542) rotate(87.5279)"/>
<use xlink:href="#stroke0_2065_58192" transform="translate(7.28865 16.0743) scale(0.0072532) rotate(157.141)"/>
<use xlink:href="#stroke0_2065_58192" transform="translate(6.56641 16.5421) scale(0.00588653) rotate(169.33)"/>
<use xlink:href="#stroke0_2065_58192" transform="translate(6.25059 15.4657) scale(0.00560048) rotate(99.4946)"/>
<use xlink:href="#stroke0_2065_58192" transform="translate(5.20479 15.2666) scale(0.00550616) rotate(53.0272)"/>
<use xlink:href="#stroke0_2065_58192" transform="translate(3.63176 15.7295) scale(0.00729763) rotate(-4.16441)"/>
<use xlink:href="#stroke0_2065_58192" transform="translate(5.95288 17.8386) scale(0.00773731) rotate(151.306)"/>
<use xlink:href="#stroke0_2065_58192" transform="translate(3.09697 16.7396) scale(0.00778821) rotate(-4.66353)"/>
<use xlink:href="#stroke0_2065_58192" transform="translate(2.76638 18.4595) scale(0.00645356) rotate(-52.4339)"/>
<use xlink:href="#stroke0_2065_58192" transform="translate(2.59226 19.7758) scale(0.00798126) rotate(-80.3883)"/>
<use xlink:href="#stroke0_2065_58192" transform="translate(3.98972 17.9751) scale(0.00738581) rotate(42.9043)"/>
<use xlink:href="#stroke0_2065_58192" transform="translate(5.40002 20.3114) scale(0.00718008) rotate(141.61)"/>
<use xlink:href="#stroke0_2065_58192" transform="translate(4.04579 21.6677) scale(0.00552971) rotate(-143.591)"/>
<use xlink:href="#stroke0_2065_58192" transform="translate(2.68661 21.7698) scale(0.00722989) rotate(-78.8824)"/>
<use xlink:href="#stroke0_2065_58192" transform="translate(3.8362 22.6404) scale(0.00569697) rotate(-126.008)"/>
<use xlink:href="#stroke0_2065_58192" transform="translate(5.68349 21.7005) scale(0.00688691) rotate(121.902)"/>
<use xlink:href="#stroke0_2065_58192" transform="translate(3.66878 23.6934) scale(0.00737772) rotate(-104.941)"/>
<use xlink:href="#stroke0_2065_58192" transform="translate(5.92076 22.6167) scale(0.00563906) rotate(120.152)"/>
<use xlink:href="#stroke0_2065_58192" transform="translate(4.94699 24.7225) scale(0.00745761) rotate(-131.687)"/>
<use xlink:href="#stroke0_2065_58192" transform="translate(4.40815 23.0474) scale(0.00594039) rotate(-26.9293)"/>
<use xlink:href="#stroke0_2065_58192" transform="translate(5.53064 22.4712) scale(0.00647835) rotate(22.8879)"/>
<use xlink:href="#stroke0_2065_58192" transform="translate(5.78623 25.2063) scale(0.00690755) rotate(-111.989)"/>
<use xlink:href="#stroke0_2065_58192" transform="translate(8.07926 24.3061) scale(0.00588664) rotate(142.448)"/>
<use xlink:href="#stroke0_2065_58192" transform="translate(8.47109 24.028) scale(0.00563612) rotate(124.543)"/>
<use xlink:href="#stroke0_2065_58192" transform="translate(7.57142 22.9961) scale(0.00608632) rotate(32.696)"/>
<use xlink:href="#stroke0_2065_58192" transform="translate(9.05914 25.3994) scale(0.00672048) rotate(-174.552)"/>
<use xlink:href="#stroke0_2065_58192" transform="translate(8.71236 25.8108) scale(0.00764392) rotate(-135.77)"/>
<use xlink:href="#stroke0_2065_58192" transform="translate(7.99955 24.9507) scale(0.00798167) rotate(-85.3699)"/>
<use xlink:href="#stroke0_2065_58192" transform="translate(10.7089 22.8716) scale(0.0060353) rotate(95.3528)"/>
<use xlink:href="#stroke0_2065_58192" transform="translate(11.6101 23.6504) scale(0.00786389) rotate(147.38)"/>
<use xlink:href="#stroke0_2065_58192" transform="translate(8.91645 22.8879) scale(0.00707262) rotate(-54.9016)"/>
<use xlink:href="#stroke0_2065_58192" transform="translate(9.56542 21.7414) scale(0.0055478) rotate(-19.7761)"/>
<use xlink:href="#stroke0_2065_58192" transform="translate(9.76766 21.2588) scale(0.00555858) rotate(-14.7141)"/>
<use xlink:href="#stroke0_2065_58192" transform="translate(11.8158 22.0779) scale(0.00547666) rotate(162.413)"/>
<use xlink:href="#stroke0_2065_58192" transform="translate(11.2939 22.5286) scale(0.00746793) rotate(-150.165)"/>
<use xlink:href="#stroke0_2065_58192" transform="translate(11.3426 18.9899) scale(0.00730084) rotate(50.0834)"/>
<use xlink:href="#stroke0_2065_58192" transform="translate(9.90072 19.3477) scale(0.00711878) rotate(-24.5514)"/>
<use xlink:href="#stroke0_2065_58192" transform="translate(10.3495 20.0942) scale(0.00545679) rotate(-43.2977)"/>
<use xlink:href="#stroke0_2065_58192" transform="translate(12.8982 19.8883) scale(0.00790744) rotate(101.207)"/>
<use xlink:href="#stroke0_2065_58192" transform="translate(12.3033 20.1551) scale(0.00659774) rotate(76.969)"/>
<use xlink:href="#stroke0_2065_58192" transform="translate(10.2768 22.0247) scale(0.00662891) rotate(-60.1345)"/>
<use xlink:href="#stroke0_2065_58192" transform="translate(11.0968 23.6703) scale(0.00769056) rotate(-111.667)"/>
<use xlink:href="#stroke0_2065_58192" transform="translate(10.9139 22.7936) scale(0.00552653) rotate(-53.0788)"/>
<use xlink:href="#stroke0_2065_58192" transform="translate(11.1397 23.23) scale(0.0055951) rotate(-57.0816)"/>
<use xlink:href="#stroke0_2065_58192" transform="translate(13.3956 24.4875) scale(0.00655824) rotate(-177.233)"/>
<use xlink:href="#stroke0_2065_58192" transform="translate(13.5001 22.608) scale(0.00674265) rotate(68.9734)"/>
<use xlink:href="#stroke0_2065_58192" transform="translate(12.8593 23.0365) scale(0.00584573) rotate(26.1611)"/>
<use xlink:href="#stroke0_2065_58192" transform="translate(13.3368 25.7675) scale(0.00618848) rotate(-130.589)"/>
<use xlink:href="#stroke0_2065_58192" transform="translate(14.3159 23.6597) scale(0.00585243) rotate(62.6029)"/>
<use xlink:href="#stroke0_2065_58192" transform="translate(13.4856 26.0996) scale(0.00645449) rotate(-102.026)"/>
<use xlink:href="#stroke0_2065_58192" transform="translate(13.3265 25.3421) scale(0.00679662) rotate(-51.597)"/>
<use xlink:href="#stroke0_2065_58192" transform="translate(14.3151 24.57) scale(0.00602235) rotate(-2.17141)"/>
<use xlink:href="#stroke0_2065_58192" transform="translate(16.9523 24.9357) scale(0.00724534) rotate(102.892)"/>
<use xlink:href="#stroke0_2065_58192" transform="translate(14.8771 25.1589) scale(0.00699122) rotate(-21.5731)"/>
<use xlink:href="#stroke0_2065_58192" transform="translate(17.9682 26.9696) scale(0.00796482) rotate(171.817)"/>
<use xlink:href="#stroke0_2065_58192" transform="translate(17.5556 27.2204) scale(0.00652706) rotate(-150.785)"/>
<use xlink:href="#stroke0_2065_58192" transform="translate(19.3512 26.3672) scale(0.00789487) rotate(150.577)"/>
<use xlink:href="#stroke0_2065_58192" transform="translate(19.9914 25.8567) scale(0.00779337) rotate(137.423)"/>
<use xlink:href="#stroke0_2065_58192" transform="translate(20.2143 25.6315) scale(0.0064316) rotate(137.542)"/>
<use xlink:href="#stroke0_2065_58192" transform="translate(18.3906 24.5411) scale(0.00535165) rotate(-10.4783)"/>
<use xlink:href="#stroke0_2065_58192" transform="translate(19.5721 23.7424) scale(0.00578071) rotate(41.6108)"/>
<use xlink:href="#stroke0_2065_58192" transform="translate(19.0079 25.2903) scale(0.00523976) rotate(-86.131)"/>
<use xlink:href="#stroke0_2065_58192" transform="translate(20.9199 23.467) scale(0.00563439) rotate(83.1548)"/>
<use xlink:href="#stroke0_2065_58192" transform="translate(21.7982 24.6511) scale(0.00742232) rotate(159.317)"/>
<use xlink:href="#stroke0_2065_58192" transform="translate(21.6663 23.0731) scale(0.00520232) rotate(106.558)"/>
<use xlink:href="#stroke0_2065_58192" transform="translate(20.2886 24.3231) scale(0.0065325) rotate(-111.834)"/>
<use xlink:href="#stroke0_2065_58192" transform="translate(21.5054 23.9086) scale(0.00634075) rotate(-157.242)"/>
<use xlink:href="#stroke0_2065_58192" transform="translate(21.4633 23.5679) scale(0.00668539) rotate(-147.028)"/>
<use xlink:href="#stroke0_2065_58192" transform="translate(21.3687 23.1116) scale(0.00681882) rotate(-137.794)"/>
<use xlink:href="#stroke0_2065_58192" transform="translate(22.4302 19.8899) scale(0.00776408) rotate(78.9217)"/>
<use xlink:href="#stroke0_2065_58192" transform="translate(21.7716 19.5622) scale(0.00550701) rotate(57.3913)"/>
<use xlink:href="#stroke0_2065_58192" transform="translate(21.7363 21.2675) scale(0.00519438) rotate(-155.665)"/>
<use xlink:href="#stroke0_2065_58192" transform="translate(22.7701 19.4742) scale(0.00709645) rotate(119.151)"/>
<use xlink:href="#stroke0_2065_58192" transform="translate(21.4579 20.4614) scale(0.00570065) rotate(-150.118)"/>
<use xlink:href="#stroke0_2065_58192" transform="translate(21.1446 17.3383) scale(0.00749395) rotate(47.4094)"/>
<use xlink:href="#stroke0_2065_58192" transform="translate(20.0408 19.5063) scale(0.00568295) rotate(-107.594)"/>
<use xlink:href="#stroke0_2065_58192" transform="translate(19.2346 18.2243) scale(0.00524594) rotate(-47.2689)"/>
<use xlink:href="#stroke0_2065_58192" transform="translate(20.9956 17.1694) scale(0.00668191) rotate(92.9182)"/>
<use xlink:href="#stroke0_2065_58192" transform="translate(18.0563 18.5313) scale(0.00716893) rotate(-72.3972)"/>
<use xlink:href="#stroke0_2065_58192" transform="translate(19.8149 19.8454) scale(0.00782262) rotate(-138.575)"/>
<use xlink:href="#stroke0_2065_58192" transform="translate(20.8424 19.8487) scale(0.00721832) rotate(-158.047)"/>
<use xlink:href="#stroke0_2065_58192" transform="translate(20.751 17.4136) scale(0.00584702) rotate(38.2552)"/>
<use xlink:href="#stroke0_2065_58192" transform="translate(20.2312 19.3425) scale(0.00565459) rotate(-79.1216)"/>
<use xlink:href="#stroke0_2065_58192" transform="translate(22.713 19.2588) scale(0.0055318) rotate(151.452)"/>
<use xlink:href="#stroke0_2065_58192" transform="translate(22.6805 19.804) scale(0.00518546) rotate(-175.201)"/>
<use xlink:href="#stroke0_2065_58192" transform="translate(22.7615 20.5793) scale(0.00778276) rotate(-146.692)"/>
<use xlink:href="#stroke0_2065_58192" transform="translate(23.6826 17.4547) scale(0.00788412) rotate(61.2227)"/>
<use xlink:href="#stroke0_2065_58192" transform="translate(24.2223 19.8504) scale(0.00534492) rotate(-170.991)"/>
<use xlink:href="#stroke0_2065_58192" transform="translate(23.0588 19.7305) scale(0.00658806) rotate(-89.7357)"/>
<use xlink:href="#stroke0_2065_58192" transform="translate(24.2723 17.5407) scale(0.00592569) rotate(28.5254)"/>
<use xlink:href="#stroke0_2065_58192" transform="translate(26.4038 18.2049) scale(0.00699629) rotate(115.44)"/>
<use xlink:href="#stroke0_2065_58192" transform="translate(26.3426 17.0217) scale(0.00786693) rotate(70.2061)"/>
<use xlink:href="#stroke0_2065_58192" transform="translate(27.1489 18.1736) scale(0.0054054) rotate(126.206)"/>
<use xlink:href="#stroke0_2065_58192" transform="translate(26.9992 19.0779) scale(0.00553388) rotate(-169.26)"/>
<use xlink:href="#stroke0_2065_58192" transform="translate(27.4993 18.7135) scale(0.00535962) rotate(-179.759)"/>
<use xlink:href="#stroke0_2065_58192" transform="translate(25.8023 17.8203) scale(0.0065355) rotate(-57.874)"/>
<use xlink:href="#stroke0_2065_58192" transform="translate(25.9581 17.7168) scale(0.00796742) rotate(-66.5857)"/>
<use xlink:href="#stroke0_2065_58192" transform="translate(27.1407 15.7066) scale(0.00633321) rotate(7.653)"/>
<use xlink:href="#stroke0_2065_58192" transform="translate(29.3465 16.2691) scale(0.00584036) rotate(123.8)"/>
<use xlink:href="#stroke0_2065_58192" transform="translate(29.0845 17.2612) scale(0.00678927) rotate(-166.788)"/>
<use xlink:href="#stroke0_2065_58192" transform="translate(29.7883 16.3345) scale(0.00666466) rotate(165.295)"/>
<use xlink:href="#stroke0_2065_58192" transform="translate(27.3003 14.964) scale(0.00734638) rotate(-44.9272)"/>
<use xlink:href="#stroke0_2065_58192" transform="translate(29.5977 13.2143) scale(0.00716637) rotate(69.4137)"/>
<use xlink:href="#stroke0_2065_58192" transform="translate(29.0282 15.5077) scale(0.00753637) rotate(-141.278)"/>
<use xlink:href="#stroke0_2065_58192" transform="translate(30.0631 13.5335) scale(0.00527222) rotate(134.704)"/>
<use xlink:href="#stroke0_2065_58192" transform="translate(27.5478 12.8725) scale(0.00706854) rotate(-43.5225)"/>
<use xlink:href="#stroke0_2065_58192" transform="translate(28.7332 13.8108) scale(0.00660819) rotate(-126.918)"/>
<use xlink:href="#stroke0_2065_58192" transform="translate(29.4541 13.3722) scale(0.00729113) rotate(-157.342)"/>
<use xlink:href="#stroke0_2065_58192" transform="translate(30.0743 11.6252) scale(0.00595468) rotate(139.161)"/>
<use xlink:href="#stroke0_2065_58192" transform="translate(29.4112 9.73651) scale(0.00712821) rotate(71.8879)"/>
<use xlink:href="#stroke0_2065_58192" transform="translate(29.0102 9.56688) scale(0.00565974) rotate(71.3587)"/>
<use xlink:href="#stroke0_2065_58192" transform="translate(28.8105 9.14658) scale(0.00591863) rotate(71.5695)"/>
<use xlink:href="#stroke0_2065_58192" transform="translate(27.8444 11.2263) scale(0.00703017) rotate(-135.017)"/>
<use xlink:href="#stroke0_2065_58192" transform="translate(28.4298 8.2523) scale(0.00678019) rotate(77.817)"/>
<use xlink:href="#stroke0_2065_58192" transform="translate(25.7377 9.10478) scale(0.00720381) rotate(-52.3935)"/>
<use xlink:href="#stroke0_2065_58192" transform="translate(25.7649 7.93361) scale(0.0062788) rotate(-12.8808)"/>
<use xlink:href="#stroke0_2065_58192" transform="translate(25.8881 9.7408) scale(0.00693442) rotate(-117.743)"/>
<use xlink:href="#stroke0_2065_58192" transform="matrix(-0.005 -0.00318231 0.00318231 -0.005 26.161 9.36698)"/>
<use xlink:href="#stroke0_2065_58192" transform="translate(24.3931 8.39629) scale(0.00606535) rotate(-69.114)"/>
<use xlink:href="#stroke0_2065_58192" transform="translate(25.6944 8.83855) scale(0.0057655) rotate(-166.132)"/>
<use xlink:href="#stroke0_2065_58192" transform="translate(24.237 6.50557) scale(0.00611718) rotate(19.4097)"/>
<use xlink:href="#stroke0_2065_58192" transform="translate(24.9468 8.77379) scale(0.00648649) rotate(-171.104)"/>
<use xlink:href="#stroke0_2065_58192" transform="translate(22.4516 6.97712) scale(0.00706049) rotate(-19.0241)"/>
<use xlink:href="#stroke0_2065_58192" transform="translate(24.5951 7.00003) scale(0.0080285) rotate(102.329)"/>
<use xlink:href="#stroke0_2065_58192" transform="translate(23.2016 6.75726) scale(0.00661743) rotate(66.3933)"/>
<use xlink:href="#stroke0_2065_58192" transform="translate(23.0185 6.96997) scale(0.0074747) rotate(75.7637)"/>
<use xlink:href="#stroke0_2065_58192" transform="translate(21.673 7.05072) scale(0.0072759) rotate(41.1232)"/>
<use xlink:href="#stroke0_2065_58192" transform="translate(22.1643 9.4738) scale(0.00523322) rotate(167.888)"/>
<use xlink:href="#stroke0_2065_58192" transform="translate(22.4186 8.49254) scale(0.00803513) rotate(108.246)"/>
<use xlink:href="#stroke0_2065_58192" transform="translate(20.4116 8.2458) scale(0.00588721) rotate(38.646)"/>
<use xlink:href="#stroke0_2065_58192" transform="translate(19.9753 8.64949) scale(0.00529979) rotate(32.6429)"/>
<use xlink:href="#stroke0_2065_58192" transform="translate(20.6815 10.9718) scale(0.00613421) rotate(179.254)"/>
<use xlink:href="#stroke0_2065_58192" transform="translate(18.3051 10.3235) scale(0.00657021) rotate(-46.8716)"/>
<use xlink:href="#stroke0_2065_58192" transform="translate(18.8923 9.65488) scale(0.00519133) rotate(-30.2155)"/>
<use xlink:href="#stroke0_2065_58192" transform="translate(21.5777 9.58672) scale(0.00697927) rotate(131.201)"/>
<use xlink:href="#stroke0_2065_58192" transform="translate(21.469 10.3445) scale(0.00795145) rotate(-178.694)"/>
<use xlink:href="#stroke0_2065_58192" transform="translate(19.8501 7.68067) scale(0.00601778) rotate(0.663867)"/>
<use xlink:href="#stroke0_2065_58192" transform="translate(21.6868 8.98813) scale(0.00550954) rotate(173.807)"/>
<use xlink:href="#stroke0_2065_58192" transform="translate(19.8522 7.72264) scale(0.00554256) rotate(-43.3832)"/>
<use xlink:href="#stroke0_2065_58192" transform="translate(20.0805 8.13753) scale(0.00602644) rotate(-85.4362)"/>
<use xlink:href="#stroke0_2065_58192" transform="translate(22.1926 7.2912) scale(0.00547478) rotate(148.62)"/>
<use xlink:href="#stroke0_2065_58192" transform="translate(22.2395 5.78835) scale(0.0064062) rotate(98.4641)"/>
<use xlink:href="#stroke0_2065_58192" transform="translate(21.8105 6.91765) scale(0.00531828) rotate(-176.879)"/>
<use xlink:href="#stroke0_2065_58192" transform="translate(21.9834 4.74678) scale(0.00598455) rotate(85.7345)"/>
<use xlink:href="#stroke0_2065_58192" transform="translate(19.9933 5.28053) scale(0.0053852) rotate(-53.0181)"/>
<use xlink:href="#stroke0_2065_58192" transform="translate(22.1353 3.82095) scale(0.00695645) rotate(91.988)"/>
<use xlink:href="#stroke0_2065_58192" transform="translate(21.4589 3.1004) scale(0.00618616) rotate(67.3191)"/>
<use xlink:href="#stroke0_2065_58192" transform="translate(22.3308 3.84799) scale(0.00791819) rotate(134.985)"/>
<use xlink:href="#stroke0_2065_58192" transform="translate(19.3166 4.20796) scale(0.00714111) rotate(-89.5507)"/>
<use xlink:href="#stroke0_2065_58192" transform="translate(19.541 4.18421) scale(0.0072711) rotate(-116.396)"/>
<use xlink:href="#stroke0_2065_58192" transform="translate(20.712 1.69564) scale(0.00572963) rotate(93.3396)"/>
<use xlink:href="#stroke0_2065_58192" transform="translate(20.6053 2.7268) scale(0.00633894) rotate(160.658)"/>
<use xlink:href="#stroke0_2065_58192" transform="translate(19.658 2.98522) scale(0.0064704) rotate(-163.762)"/>
<use xlink:href="#stroke0_2065_58192" transform="translate(19.765 1.8542) scale(0.00540748) rotate(145.701)"/>
<use xlink:href="#stroke0_2065_58192" transform="translate(19.5536 1.55381) scale(0.00628848) rotate(136.668)"/>
<use xlink:href="#stroke0_2065_58192" transform="translate(17.6458 0.089823) scale(0.00603841) rotate(33.854)"/>
<use xlink:href="#stroke0_2065_58192" transform="translate(18.087 2.36231) scale(0.0065808) rotate(-172.272)"/>
<use xlink:href="#stroke0_2065_58192" transform="translate(17.1828 -0.382619) scale(0.00774864) rotate(55.4918)"/>
<use xlink:href="#stroke0_2065_58192" transform="translate(17.146 0.239474) scale(0.00601777) rotate(86.289)"/>
<use xlink:href="#stroke0_2065_58192" transform="translate(14.3818 1.15275) scale(0.00681529) rotate(-50.3558)"/>
<use xlink:href="#stroke0_2065_58192" transform="translate(15.4472 2.3429) scale(0.00559879) rotate(-144.957)"/>
<use xlink:href="#stroke0_2065_58192" transform="translate(15.0671 2.4612) scale(0.00551378) rotate(-146.071)"/>
<use xlink:href="#stroke0_2065_58192" transform="translate(14.6043 0.428451) scale(0.00525649) rotate(44.4342)"/>
<use xlink:href="#stroke0_2065_58192" transform="translate(12.6317 1.59977) scale(0.0073223) rotate(-42.9816)"/>
<use xlink:href="#stroke0_2065_58192" transform="translate(12.6189 1.85571) scale(0.00545765) rotate(-40.0557)"/>
<use xlink:href="#stroke0_2065_58192" transform="translate(13.9067 1.21588) scale(0.00577735) rotate(66.9335)"/>
<use xlink:href="#stroke0_2065_58192" transform="translate(13.3211 3.95572) scale(0.00666895) rotate(-150.122)"/>
<use xlink:href="#stroke0_2065_58192" transform="translate(13.5974 2.25246) scale(0.00535572) rotate(91.1)"/>
<use xlink:href="#stroke0_2065_58192" transform="translate(14.076 2.95002) scale(0.00808117) rotate(116.016)"/>
<use xlink:href="#stroke0_2065_58192" transform="translate(13.3547 4.77108) scale(0.00711007) rotate(168.267)"/>
<use xlink:href="#stroke0_2065_58192" transform="translate(13.1756 5.32431) scale(0.00755111) rotate(168.263)"/>
<use xlink:href="#stroke0_2065_58192" transform="translate(10.7819 3.99069) scale(0.00638122) rotate(-5.59099)"/>
<use xlink:href="#stroke0_2065_58192" transform="translate(12.0028 6.77087) scale(0.00699693) rotate(-153.941)"/>
<use xlink:href="#stroke0_2065_58192" transform="translate(12.3149 4.95729) scale(0.00581439) rotate(82.2795)"/>
<use xlink:href="#stroke0_2065_58192" transform="translate(11.0451 5.23607) scale(0.00550528) rotate(19.6459)"/>
<use xlink:href="#stroke0_2065_58192" transform="translate(11.7055 5.4043) scale(0.00669919) rotate(54.1009)"/>
<use xlink:href="#stroke0_2065_58192" transform="translate(9.90996 6.57239) scale(0.00778316) rotate(-21.6656)"/>
<use xlink:href="#stroke0_2065_58192" transform="translate(12.3385 7.38074) scale(0.00550466) rotate(109.587)"/>
<use xlink:href="#stroke0_2065_58192" transform="translate(12.7776 8.86399) scale(0.00794564) rotate(151.156)"/>
<use xlink:href="#stroke0_2065_58192" transform="translate(12.7008 9.34935) scale(0.00751458) rotate(148.286)"/>
<use xlink:href="#stroke0_2065_58192" transform="translate(11.632 7.93476) scale(0.0077784) rotate(56.117)"/>
<use xlink:href="#stroke0_2065_58192" transform="translate(10.2456 8.87214) scale(0.00757046) rotate(1.51814)"/>
<use xlink:href="#stroke0_2065_58192" transform="translate(11.1748 9.28059) scale(0.00594211) rotate(37.0703)"/>
<use xlink:href="#stroke1_2065_58192" transform="translate(14.5441 10.7727) scale(0.00634424) rotate(60.1641)"/>
<use xlink:href="#stroke1_2065_58192" transform="translate(12.5406 11.8005) scale(0.00616622) rotate(-27.1589)"/>
<use xlink:href="#stroke1_2065_58192" transform="translate(13.5281 11.4541) scale(0.00527337) rotate(49.5073)"/>
<use xlink:href="#stroke1_2065_58192" transform="translate(11.9256 12.6019) scale(0.00565955) rotate(-38.1472)"/>
<use xlink:href="#stroke1_2065_58192" transform="translate(12.2665 12.0443) scale(0.00615888) rotate(15.4764)"/>
<use xlink:href="#stroke1_2065_58192" transform="translate(14.1905 14.0558) scale(0.00735712) rotate(145.504)"/>
<use xlink:href="#stroke1_2065_58192" transform="translate(12.3242 15.1717) scale(0.00531775) rotate(-115.13)"/>
<use xlink:href="#stroke1_2065_58192" transform="translate(14.1768 14.5393) scale(0.00640423) rotate(128.638)"/>
<use xlink:href="#stroke1_2065_58192" transform="translate(14.231 14.1121) scale(0.00760553) rotate(91.7602)"/>
<use xlink:href="#stroke1_2065_58192" transform="translate(14.4221 15.0527) scale(0.00582054) rotate(108.602)"/>
<use xlink:href="#stroke1_2065_58192" transform="translate(14.7795 15.6214) scale(0.00529) rotate(126.825)"/>
<use xlink:href="#stroke1_2065_58192" transform="translate(14.5842 16.8181) scale(0.00541929) rotate(-165.09)"/>
<use xlink:href="#stroke1_2065_58192" transform="translate(15.8698 16.4727) scale(0.00717654) rotate(158.481)"/>
<use xlink:href="#stroke1_2065_58192" transform="translate(15.1545 16.8976) scale(0.00721934) rotate(-146.546)"/>
<use xlink:href="#stroke1_2065_58192" transform="translate(14.1587 15.4799) scale(0.00564493) rotate(-71.8005)"/>
<use xlink:href="#stroke1_2065_58192" transform="translate(15.2432 13.3855) scale(0.00591808) rotate(36.7688)"/>
<use xlink:href="#stroke1_2065_58192" transform="translate(14.7014 15.1443) scale(0.00577042) rotate(-105.04)"/>
<use xlink:href="#stroke1_2065_58192" transform="translate(16.9082 14.0334) scale(0.00793447) rotate(145.586)"/>
<use xlink:href="#stroke1_2065_58192" transform="translate(14.1867 14.0881) scale(0.00711565) rotate(-92.7436)"/>
<use xlink:href="#stroke1_2065_58192" transform="translate(13.8265 12.1031) scale(0.00639842) rotate(-26.9491)"/>
<use xlink:href="#stroke1_2065_58192" transform="translate(16.0044 12.175) scale(0.00593874) rotate(130.008)"/>
<use xlink:href="#stroke1_2065_58192" transform="translate(14.4711 10.61) scale(0.00683573) rotate(44.9142)"/>
<use xlink:href="#stroke2_2065_58192" transform="translate(23.1326 33.8552) scale(0.00743069) rotate(-179.196)"/>
<use xlink:href="#stroke2_2065_58192" transform="translate(22.9824 32.5297) scale(0.0066533) rotate(129.254)"/>
<use xlink:href="#stroke2_2065_58192" transform="translate(20.2416 33.4443) scale(0.00625838) rotate(-95.1518)"/>
<use xlink:href="#stroke2_2065_58192" transform="translate(19.6666 31.1814) scale(0.00798718) rotate(7.17074)"/>
<use xlink:href="#stroke2_2065_58192" transform="translate(19.6761 33.9065) scale(0.00580122) rotate(-115.632)"/>
<use xlink:href="#stroke2_2065_58192" transform="translate(20.2948 34.4834) scale(0.00697384) rotate(-159.298)"/>
<use xlink:href="#stroke2_2065_58192" transform="translate(19.4239 32.3485) scale(0.0057512) rotate(37.657)"/>
<use xlink:href="#stroke2_2065_58192" transform="translate(20.6488 33.0871) scale(0.00778907) rotate(95.8471)"/>
<use xlink:href="#stroke2_2065_58192" transform="translate(19.6465 35.5321) scale(0.00521822) rotate(-156.986)"/>
<use xlink:href="#stroke2_2065_58192" transform="translate(18.3973 35.5623) scale(0.00549792) rotate(-83.1372)"/>
<use xlink:href="#stroke2_2065_58192" transform="translate(19.6458 33.877) scale(0.0075617) rotate(50.5927)"/>
<use xlink:href="#stroke2_2065_58192" transform="translate(20.378 36.7446) scale(0.00565783) rotate(-179.455)"/>
<use xlink:href="#stroke2_2065_58192" transform="translate(20.4974 37.0841) scale(0.00529987) rotate(-172.334)"/>
<use xlink:href="#stroke2_2065_58192" transform="translate(21.2786 37.3093) scale(0.00651397) rotate(170.313)"/>
<use xlink:href="#stroke2_2065_58192" transform="translate(19.5863 37.2423) scale(0.00568401) rotate(-75.5224)"/>
<use xlink:href="#stroke2_2065_58192" transform="translate(19.5675 37.1855) scale(0.00768126) rotate(-60.405)"/>
<use xlink:href="#stroke2_2065_58192" transform="translate(20.3285 37.1407) scale(0.00650102) rotate(-57.4909)"/>
<use xlink:href="#stroke2_2065_58192" transform="translate(21.7746 38.2999) scale(0.00662993) rotate(-122.716)"/>
<use xlink:href="#stroke2_2065_58192" transform="translate(23.2707 35.7534) scale(0.00679592) rotate(67.3575)"/>
<use xlink:href="#stroke2_2065_58192" transform="translate(23.6465 38.0959) scale(0.0061662) rotate(-161.903)"/>
<use xlink:href="#stroke2_2065_58192" transform="translate(22.3647 36.919) scale(0.00554097) rotate(-62.2668)"/>
<use xlink:href="#stroke2_2065_58192" transform="translate(23.9808 34.8933) scale(0.00663594) rotate(57.3869)"/>
<use xlink:href="#stroke2_2065_58192" transform="translate(23.7441 36.9117) scale(0.00571719) rotate(-142.871)"/>
<use xlink:href="#stroke2_2065_58192" transform="translate(24.0449 36.6805) scale(0.0071744) rotate(-152.608)"/>
<use xlink:href="#stroke2_2065_58192" transform="translate(24.5673 35.7989) scale(0.00687712) rotate(-178.663)"/>
<use xlink:href="#stroke2_2065_58192" transform="translate(22.4024 34.1027) scale(0.0055693) rotate(-40.8656)"/>
<use xlink:href="#stroke2_2065_58192" transform="translate(24.3062 33.2653) scale(0.00554097) rotate(98.736)"/>
<use xlink:href="#stroke2_2065_58192" transform="translate(21.9828 33.4132) scale(0.00528696) rotate(-39.2102)"/>
<use xlink:href="#stroke2_2065_58192" transform="translate(23.4632 34.2215) scale(0.00545362) rotate(179.725)"/>
<use xlink:href="#stroke3_2065_58192" transform="translate(15.4049 29.4689) scale(0.00730708) rotate(-53.0913)"/>
<use xlink:href="#stroke3_2065_58192" transform="translate(16.3907 27.7637) scale(0.00617085) rotate(36.1949)"/>
<use xlink:href="#stroke3_2065_58192" transform="translate(15.338 29.5333) scale(0.00528023) rotate(-91.2987)"/>
<use xlink:href="#stroke3_2065_58192" transform="translate(14.6454 27.9043) scale(0.00630207) rotate(-16.714)"/>
<use xlink:href="#stroke3_2065_58192" transform="translate(16.2206 29.296) scale(0.00604138) rotate(173.184)"/>
<use xlink:href="#stroke3_2065_58192" transform="translate(14.5998 29.4676) scale(0.00528673) rotate(-124.473)"/>
<use xlink:href="#stroke3_2065_58192" transform="translate(14.1215 29.8388) scale(0.0072672) rotate(-128.295)"/>
<use xlink:href="#stroke3_2065_58192" transform="translate(14.3657 27.0756) scale(0.00659306) rotate(63.1928)"/>
<use xlink:href="#stroke3_2065_58192" transform="translate(14.0899 29.2091) scale(0.00529969) rotate(-177.198)"/>
<use xlink:href="#stroke3_2065_58192" transform="translate(14.2915 28.034) scale(0.00676249) rotate(115.387)"/>
<use xlink:href="#stroke3_2065_58192" transform="translate(13.3074 29.3906) scale(0.00579972) rotate(177.986)"/>
<use xlink:href="#stroke3_2065_58192" transform="translate(10.481 28.9798) scale(0.00754396) rotate(-59.4769)"/>
<use xlink:href="#stroke3_2065_58192" transform="translate(13.1094 28.9004) scale(0.00791361) rotate(129.508)"/>
<use xlink:href="#stroke3_2065_58192" transform="translate(10.7714 28.1818) scale(0.00545002) rotate(25.6522)"/>
<use xlink:href="#stroke3_2065_58192" transform="translate(9.6756 30.5927) scale(0.00707186) rotate(-91.704)"/>
<use xlink:href="#stroke3_2065_58192" transform="translate(11.294 30.919) scale(0.00618053) rotate(178.173)"/>
<use xlink:href="#stroke3_2065_58192" transform="translate(10.4717 31.7317) scale(0.00664237) rotate(-151.955)"/>
<use xlink:href="#stroke3_2065_58192" transform="translate(10.7432 29.7623) scale(0.00662447) rotate(78.5785)"/>
<use xlink:href="#stroke3_2065_58192" transform="translate(11.0245 31.284) scale(0.00617671) rotate(130.418)"/>
<use xlink:href="#stroke3_2065_58192" transform="translate(8.4974 31.4582) scale(0.00590246) rotate(-34.253)"/>
<use xlink:href="#stroke3_2065_58192" transform="translate(11.1378 32.1141) scale(0.00736929) rotate(125.778)"/>
<use xlink:href="#stroke3_2065_58192" transform="translate(10.1188 33.8801) scale(0.00596701) rotate(-163.939)"/>
<use xlink:href="#stroke3_2065_58192" transform="translate(11.1576 33.7793) scale(0.00797884) rotate(148.326)"/>
<use xlink:href="#stroke3_2065_58192" transform="translate(11.0272 33.0603) scale(0.00761076) rotate(99.7053)"/>
<use xlink:href="#stroke3_2065_58192" transform="translate(8.8547 33.9087) scale(0.00556166) rotate(-26.9248)"/>
<use xlink:href="#stroke3_2065_58192" transform="translate(11.1367 35.1882) scale(0.005403) rotate(158.543)"/>
<use xlink:href="#stroke3_2065_58192" transform="translate(9.42026 35.3989) scale(0.00532791) rotate(-71.3886)"/>
<use xlink:href="#stroke3_2065_58192" transform="translate(10.9307 34.0369) scale(0.005768) rotate(48.7634)"/>
<use xlink:href="#stroke3_2065_58192" transform="translate(12.3442 35.2263) scale(0.00575987) rotate(122.6)"/>
<use xlink:href="#stroke3_2065_58192" transform="translate(11.3198 34.1249) scale(0.00722824) rotate(29.0868)"/>
<use xlink:href="#stroke3_2065_58192" transform="translate(10.9778 36.7541) scale(0.00766415) rotate(-88.8014)"/>
<use xlink:href="#stroke3_2065_58192" transform="translate(11.9995 37.2505) scale(0.0076627) rotate(-110.096)"/>
<use xlink:href="#stroke3_2065_58192" transform="translate(12.1337 36.0144) scale(0.00546294) rotate(-54.9495)"/>
<use xlink:href="#stroke3_2065_58192" transform="translate(13.4066 36.9972) scale(0.00551309) rotate(-125.208)"/>
<use xlink:href="#stroke3_2065_58192" transform="translate(13.2418 36.8044) scale(0.00605015) rotate(-94.3658)"/>
<use xlink:href="#stroke3_2065_58192" transform="translate(14.064 37.1464) scale(0.00652744) rotate(-115.593)"/>
<use xlink:href="#stroke3_2065_58192" transform="translate(14.9916 34.7971) scale(0.00521979) rotate(39.0778)"/>
<use xlink:href="#stroke3_2065_58192" transform="translate(16.4515 35.2671) scale(0.00553122) rotate(104.901)"/>
<use xlink:href="#stroke3_2065_58192" transform="translate(16.5064 36.4657) scale(0.0056254) rotate(-176.696)"/>
<use xlink:href="#stroke3_2065_58192" transform="translate(15.1736 36.9167) scale(0.00670647) rotate(-124.925)"/>
<use xlink:href="#stroke3_2065_58192" transform="translate(15.1164 34.7821) scale(0.00537014) rotate(39.1212)"/>
<use xlink:href="#stroke3_2065_58192" transform="translate(16.0091 35.7237) scale(0.00609803) rotate(109.763)"/>
<use xlink:href="#stroke3_2065_58192" transform="translate(14.954 37.9996) scale(0.00755004) rotate(-157.476)"/>
<use xlink:href="#stroke3_2065_58192" transform="translate(12.9228 36.5163) scale(0.0057738) rotate(-32.0208)"/>
<use xlink:href="#stroke3_2065_58192" transform="translate(14.6553 38.1856) scale(0.00670079) rotate(178.308)"/>
<use xlink:href="#stroke3_2065_58192" transform="translate(11.84 37.515) scale(0.00731902) rotate(-46.6525)"/>
<use xlink:href="#stroke3_2065_58192" transform="translate(12.4233 39.0029) scale(0.00587179) rotate(-108.328)"/>
<use xlink:href="#stroke3_2065_58192" transform="translate(13.8273 37.2133) scale(0.00773623) rotate(82.759)"/>
<use xlink:href="#stroke3_2065_58192" transform="translate(13.5352 38.3007) scale(0.00522985) rotate(98.9134)"/>
<use xlink:href="#stroke3_2065_58192" transform="translate(13.5084 40.6371) scale(0.00764051) rotate(-174.681)"/>
<use xlink:href="#stroke3_2065_58192" transform="translate(13.8758 40.0677) scale(0.00603105) rotate(140.004)"/>
<use xlink:href="#stroke3_2065_58192" transform="translate(11.4155 40.6705) scale(0.00696581) rotate(-61.5695)"/>
<use xlink:href="#stroke3_2065_58192" transform="translate(14.3046 40.9042) scale(0.00607503) rotate(137.176)"/>
<use xlink:href="#stroke3_2065_58192" transform="translate(12.0717 40.2527) scale(0.00783301) rotate(-12.1827)"/>
<use xlink:href="#stroke3_2065_58192" transform="translate(12.35 41.614) scale(0.00649869) rotate(-46.8931)"/>
<use xlink:href="#stroke3_2065_58192" transform="translate(13.4832 43.4305) scale(0.00707838) rotate(-117.919)"/>
<use xlink:href="#stroke3_2065_58192" transform="translate(15.4393 42.3558) scale(0.00552293) rotate(127.363)"/>
<use xlink:href="#stroke3_2065_58192" transform="translate(14.1014 43.7708) scale(0.00563192) rotate(-112.464)"/>
<use xlink:href="#stroke3_2065_58192" transform="translate(14.4472 41.4886) scale(0.00808969) rotate(21.0772)"/>
<use xlink:href="#stroke3_2065_58192" transform="translate(16.8279 43.5946) scale(0.00653944) rotate(143.057)"/>
<use xlink:href="#stroke3_2065_58192" transform="translate(15.2704 42.4577) scale(0.00586869) rotate(6.24291)"/>
<use xlink:href="#stroke3_2065_58192" transform="translate(16.4822 42.4277) scale(0.00529262) rotate(46.4746)"/>
<use xlink:href="#stroke3_2065_58192" transform="translate(17.8894 44.3328) scale(0.00635762) rotate(167.059)"/>
<use xlink:href="#stroke3_2065_58192" transform="translate(15.9975 43.0849) scale(0.00698359) rotate(-26.8611)"/>
<use xlink:href="#stroke3_2065_58192" transform="translate(18.9225 44.6132) scale(0.00699338) rotate(174.113)"/>
<use xlink:href="#stroke3_2065_58192" transform="translate(19.5153 43.5611) scale(0.00568258) rotate(128.61)"/>
<use xlink:href="#stroke3_2065_58192" transform="translate(18.6897 45.0667) scale(0.0075917) rotate(-133.053)"/>
<use xlink:href="#stroke3_2065_58192" transform="translate(18.0494 43.8018) scale(0.00674941) rotate(-68.5576)"/>
<use xlink:href="#stroke3_2065_58192" transform="translate(20.5651 42.3777) scale(0.00535548) rotate(86.6521)"/>
<use xlink:href="#stroke3_2065_58192" transform="translate(21.0167 42.1269) scale(0.00584362) rotate(85.8398)"/>
<use xlink:href="#stroke3_2065_58192" transform="translate(19.5321 43.9529) scale(0.00791066) rotate(-95.0006)"/>
<use xlink:href="#stroke3_2065_58192" transform="translate(22.5065 42.4867) scale(0.00663832) rotate(130.529)"/>
<use xlink:href="#stroke3_2065_58192" transform="translate(22.6663 41.4865) scale(0.00650194) rotate(99.3233)"/>
<use xlink:href="#stroke3_2065_58192" transform="translate(21.0483 41.0399) scale(0.0054362) rotate(-2.36276)"/>
<use xlink:href="#stroke3_2065_58192" transform="translate(20.8055 41.9188) scale(0.00640664) rotate(-69.3117)"/>
<use xlink:href="#stroke3_2065_58192" transform="translate(20.6109 41.1558) scale(0.00760374) rotate(-44.8663)"/>
<use xlink:href="#stroke3_2065_58192" transform="translate(21.016 40.841) scale(0.00750115) rotate(-8.6241)"/>
<use xlink:href="#stroke3_2065_58192" transform="translate(23.5313 42.0244) scale(0.00659944) rotate(116.678)"/>
<use xlink:href="#stroke3_2065_58192" transform="translate(22.3046 44.0347) scale(0.00580334) rotate(-141.66)"/>
<use xlink:href="#stroke3_2065_58192" transform="translate(21.6993 44.342) scale(0.00585055) rotate(-109.946)"/>
<use xlink:href="#stroke3_2065_58192" transform="translate(23.3116 43.0999) scale(0.00554252) rotate(98.8931)"/>
<use xlink:href="#stroke3_2065_58192" transform="translate(21.0305 43.8053) scale(0.00806444) rotate(-37.8814)"/>
<use xlink:href="#stroke3_2065_58192" transform="translate(24.2716 43.9541) scale(0.00581092) rotate(112.786)"/>
<use xlink:href="#stroke3_2065_58192" transform="translate(22.233 44.0774) scale(0.00691197) rotate(-35.4892)"/>
<use xlink:href="#stroke3_2065_58192" transform="translate(23.2415 43.1843) scale(0.00752443) rotate(4.65548)"/>
<use xlink:href="#stroke3_2065_58192" transform="translate(23.7752 45.3167) scale(0.00616301) rotate(-92.4643)"/>
<use xlink:href="#stroke3_2065_58192" transform="translate(26.7136 44.1413) scale(0.00744292) rotate(120.919)"/>
<use xlink:href="#stroke3_2065_58192" transform="translate(26.8309 43.3994) scale(0.0069236) rotate(90.9883)"/>
<use xlink:href="#stroke3_2065_58192" transform="translate(25.479 45.4833) scale(0.00748357) rotate(-107.669)"/>
<use xlink:href="#stroke3_2065_58192" transform="translate(27.0652 44.9966) scale(0.00529931) rotate(-157.312)"/>
<use xlink:href="#stroke3_2065_58192" transform="translate(26.0202 44.5076) scale(0.00645171) rotate(-86.347)"/>
<use xlink:href="#stroke3_2065_58192" transform="translate(26.5506 44.1412) scale(0.00549311) rotate(-95.0306)"/>
<use xlink:href="#stroke3_2065_58192" transform="translate(28.6027 44.0448) scale(0.00769342) rotate(179.433)"/>
<use xlink:href="#stroke3_2065_58192" transform="translate(29.0649 42.5298) scale(0.00651873) rotate(138.66)"/>
<use xlink:href="#stroke3_2065_58192" transform="translate(28.3308 40.5712) scale(0.00671672) rotate(59.1276)"/>
<use xlink:href="#stroke3_2065_58192" transform="translate(29.2941 41.8512) scale(0.00648458) rotate(151.094)"/>
<use xlink:href="#stroke3_2065_58192" transform="translate(26.9455 41.5728) scale(0.00652486) rotate(-78.0794)"/>
<use xlink:href="#stroke3_2065_58192" transform="translate(26.7911 40.7719) scale(0.00689785) rotate(-63.6748)"/>
<use xlink:href="#stroke3_2065_58192" transform="translate(26.9384 39.4344) scale(0.00645152) rotate(-28.3378)"/>
<use xlink:href="#stroke3_2065_58192" transform="translate(29.0402 37.9668) scale(0.00791622) rotate(73.5156)"/>
<use xlink:href="#stroke3_2065_58192" transform="translate(28.55 40.2595) scale(0.00759545) rotate(-154.939)"/>
<use xlink:href="#stroke3_2065_58192" transform="translate(27.1561 37.5068) scale(0.00543705) rotate(-4.32439)"/>
<use xlink:href="#stroke3_2065_58192" transform="translate(27.897 36.3945) scale(0.00714511) rotate(47.2744)"/>
<use xlink:href="#stroke3_2065_58192" transform="translate(28.9051 36.8777) scale(0.00747187) rotate(112.186)"/>
<use xlink:href="#stroke3_2065_58192" transform="translate(28.2743 36.7571) scale(0.00549905) rotate(119.913)"/>
<use xlink:href="#stroke3_2065_58192" transform="translate(27.4818 35.714) scale(0.00715406) rotate(36.8204)"/>
<use xlink:href="#stroke3_2065_58192" transform="translate(27.4546 35.8497) scale(0.00795246) rotate(16.0688)"/>
<use xlink:href="#stroke3_2065_58192" transform="translate(29.4436 36.3343) scale(0.00627892) rotate(76.8321)"/>
<use xlink:href="#stroke3_2065_58192" transform="translate(30.5896 37.503) scale(0.00680405) rotate(134.846)"/>
<use xlink:href="#stroke3_2065_58192" transform="translate(28.4961 37.4269) scale(0.00569374) rotate(-48.9547)"/>
<use xlink:href="#stroke3_2065_58192" transform="translate(31.1041 38.1285) scale(0.00604291) rotate(168.538)"/>
<use xlink:href="#stroke3_2065_58192" transform="translate(31.0835 35.9614) scale(0.00675429) rotate(62.4289)"/>
<use xlink:href="#stroke3_2065_58192" transform="translate(30.6381 35.8986) scale(0.00595701) rotate(22.9532)"/>
<use xlink:href="#stroke3_2065_58192" transform="translate(30.2306 37.07) scale(0.00547249) rotate(-66.0353)"/>
<use xlink:href="#stroke3_2065_58192" transform="translate(32.5899 37.4025) scale(0.00761839) rotate(177.429)"/>
<use xlink:href="#stroke3_2065_58192" transform="translate(32.7566 36.2113) scale(0.00558027) rotate(152.129)"/>
<use xlink:href="#stroke3_2065_58192" transform="translate(31.9725 36.661) scale(0.00627221) rotate(-144.931)"/>
<use xlink:href="#stroke3_2065_58192" transform="translate(32.8231 35.9447) scale(0.00657233) rotate(-178.405)"/>
<use xlink:href="#stroke3_2065_58192" transform="translate(31.1783 33.6895) scale(0.00549894) rotate(-6.39209)"/>
<use xlink:href="#stroke3_2065_58192" transform="translate(32.1621 32.4873) scale(0.00720838) rotate(45.9322)"/>
<use xlink:href="#stroke3_2065_58192" transform="translate(30.6847 33.4744) scale(0.0066863) rotate(-50.1616)"/>
<use xlink:href="#stroke3_2065_58192" transform="translate(33.1691 33.2522) scale(0.00551915) rotate(145.701)"/>
<use xlink:href="#stroke3_2065_58192" transform="translate(31.5456 31.5644) scale(0.00540252) rotate(14.5773)"/>
<use xlink:href="#stroke3_2065_58192" transform="translate(31.7365 33.3217) scale(0.00582033) rotate(-128.596)"/>
<use xlink:href="#stroke3_2065_58192" transform="translate(33.1563 31.3497) scale(0.00704012) rotate(117.69)"/>
<use xlink:href="#stroke3_2065_58192" transform="translate(31.0145 30.1706) scale(0.00584377) rotate(17.8282)"/>
<use xlink:href="#stroke3_2065_58192" transform="translate(32.4424 31.8017) scale(0.00760858) rotate(168.346)"/>
<use xlink:href="#stroke3_2065_58192" transform="translate(32.002 30.8491) scale(0.00585599) rotate(149.747)"/>
<use xlink:href="#stroke3_2065_58192" transform="translate(30.781 31.2329) scale(0.00529317) rotate(-150.266)"/>
<use xlink:href="#stroke3_2065_58192" transform="translate(30.2899 28.7322) scale(0.00566181) rotate(43.7313)"/>
<use xlink:href="#stroke3_2065_58192" transform="translate(30.465 30.6303) scale(0.00546721) rotate(-169.438)"/>
<use xlink:href="#stroke3_2065_58192" transform="translate(30.5258 30.2824) scale(0.00646368) rotate(169.947)"/>
<use xlink:href="#stroke3_2065_58192" transform="translate(30.2388 29.1875) scale(0.00563336) rotate(129.128)"/>
<use xlink:href="#stroke3_2065_58192" transform="translate(27.6684 28.748) scale(0.00524759) rotate(-31.1619)"/>
<use xlink:href="#stroke3_2065_58192" transform="translate(26.6299 29.1503) scale(0.00783859) rotate(-57.0199)"/>
<use xlink:href="#stroke3_2065_58192" transform="translate(28.7245 28.265) scale(0.00549505) rotate(102.946)"/>
<use xlink:href="#stroke3_2065_58192" transform="translate(27.596 27.7614) scale(0.00530306) rotate(56.0524)"/>
<use xlink:href="#stroke3_2065_58192" transform="translate(26.3445 30.5089) scale(0.00795997) rotate(-121.296)"/>
<use xlink:href="#stroke3_2065_58192" transform="translate(26.0887 27.9652) scale(0.00584162) rotate(29.1727)"/>
<use xlink:href="#stroke3_2065_58192" transform="translate(27.141 29.6753) scale(0.00606477) rotate(146.835)"/>
<use xlink:href="#stroke3_2065_58192" transform="translate(26.0954 27.7055) scale(0.00772493) rotate(63.3438)"/>
<use xlink:href="#stroke3_2065_58192" transform="translate(24.4382 29.3187) scale(0.0057127) rotate(-81.1704)"/>
<use xlink:href="#stroke3_2065_58192" transform="translate(27.1469 28.6479) scale(0.0080716) rotate(147.919)"/>
<use xlink:href="#stroke3_2065_58192" transform="translate(24.8365 26.4824) scale(0.00647894) rotate(11.9958)"/>
<use xlink:href="#stroke3_2065_58192" transform="translate(24.4612 26.068) scale(0.0067081) rotate(7.68447)"/>
<use xlink:href="#stroke3_2065_58192" transform="translate(25.0612 27.9139) scale(0.005193) rotate(-144.024)"/>
<use xlink:href="#stroke3_2065_58192" transform="translate(25.6419 25.8674) scale(0.00561327) rotate(96.2408)"/>
<use xlink:href="#stroke3_2065_58192" transform="translate(24.7084 27.6894) scale(0.00762545) rotate(-151.505)"/>
<use xlink:href="#stroke3_2065_58192" transform="translate(22.9528 25.1056) scale(0.00603657) rotate(-14.9167)"/>
<use xlink:href="#stroke3_2065_58192" transform="translate(23.407 24.4186) scale(0.00544096) rotate(28.6646)"/>
<use xlink:href="#stroke3_2065_58192" transform="translate(24.2715 25.7662) scale(0.00519657) rotate(157.106)"/>
<use xlink:href="#stroke3_2065_58192" transform="translate(21.4752 26.079) scale(0.00801418) rotate(-83.2765)"/>
<use xlink:href="#stroke3_2065_58192" transform="translate(23.5146 24.3238) scale(0.00684905) rotate(102.455)"/>
<use xlink:href="#stroke3_2065_58192" transform="translate(22.6451 23.6978) scale(0.00724754) rotate(78.0083)"/>
<use xlink:href="#stroke3_2065_58192" transform="translate(21.6865 23.6069) scale(0.00648442) rotate(61.2264)"/>
<use xlink:href="#stroke3_2065_58192" transform="translate(21.1698 25.8906) scale(0.00537591) rotate(-159.113)"/>
<use xlink:href="#stroke4_2065_58192" transform="translate(18.5649 29.6012) scale(0.00776647) rotate(118.831)"/>
<use xlink:href="#stroke4_2065_58192" transform="translate(18.0825 30.6672) scale(0.00796109) rotate(-175.512)"/>
<use xlink:href="#stroke4_2065_58192" transform="translate(17.9595 27.5685) scale(0.00707068) rotate(74.4457)"/>
<use xlink:href="#stroke4_2065_58192" transform="translate(16.6625 27.4568) scale(0.00533951) rotate(4.98746)"/>
<use xlink:href="#stroke4_2065_58192" transform="translate(18.8156 28.1902) scale(0.00628614) rotate(141.598)"/>
<use xlink:href="#stroke4_2065_58192" transform="translate(17.7058 26.4767) scale(0.00545577) rotate(36.5854)"/>
<use xlink:href="#stroke4_2065_58192" transform="translate(18.9791 27.8416) scale(0.00528398) rotate(162.929)"/>
<use xlink:href="#stroke4_2065_58192" transform="translate(19.3182 27.3472) scale(0.00528256) rotate(152.38)"/>
<use xlink:href="#stroke4_2065_58192" transform="translate(17.423 26.3322) scale(0.00579527) rotate(-33.8062)"/>
<defs>
<g id="stroke0_2065_58192" data-figma-scatter-ref="stroke0_2065_58192_ref" data-figma-scatter="f0.28_w0_aj180_sj0.25_r0_s16812864715197581114_sw2">
<path d="M103.731 283.547C110.352 281.363 112.807 281.348 116.121 283.468C130.109 292.418 124.85 308.718 107.972 308.727C90.3768 308.737 87.0606 289.046 103.731 283.547ZM139.837 35.4146C140.937 35.1787 142.512 35.114 143.337 35.271C144.162 35.4281 146.516 35.8391 148.567 36.1851C155.802 37.4051 160.179 46.6969 156.734 53.5249C152.924 61.0769 144.715 67.5811 140.859 66.1021C135.872 64.1881 137.625 69.8792 144.066 76.5152C148.306 80.8841 150.337 81.2685 150.337 77.7066C150.337 76.6574 151.622 74.3218 153.193 72.5161C154.823 70.6412 156.597 66.9201 157.324 63.8501C158.925 57.0892 160.788 55.2289 167.369 53.8169C177.32 51.6829 185.581 56.9263 183.752 64.2153C183.293 66.0423 183.901 67.6656 186.09 70.4585C196.859 84.1975 193.875 104.273 180.596 107.418C177.049 108.258 176.832 108.532 176.773 112.27C176.739 114.448 176.365 116.987 175.943 117.912C175.255 119.417 175.946 119.564 182.506 119.31C190.415 119.003 192.674 119.705 195.953 123.487C199.054 127.064 201.598 126.114 202.609 121.002C203.503 116.483 209.096 110.731 212.596 110.731C214.841 110.731 215.934 108.156 214.449 106.367C206.1 96.3056 222.234 73.6632 235.605 76.6792C241.572 78.0252 246.302 83.6302 246.367 89.4312C246.384 90.9712 247.505 94.4811 248.858 97.231C255.362 110.453 243.304 126.225 232.777 118.263C229.924 116.105 229.837 116.226 229.837 122.341C229.837 128.93 225.932 133.292 219.049 134.393C216.068 134.87 214.933 135.67 213.775 138.116C212.964 139.829 211.55 142.415 210.63 143.863C208.984 146.456 209.02 146.565 213.147 151.254C215.451 153.871 217.337 156.555 217.337 157.218C217.337 157.882 218.074 159.901 218.974 161.706C222.148 168.067 221.073 181.731 217.4 181.731C217.052 181.731 215.97 183.081 214.995 184.731C214.02 186.381 212.573 187.731 211.779 187.731C209.595 187.731 210.044 189.817 212.863 192.76C216.384 196.435 217.425 204.867 214.728 207.858C209.503 213.649 203.05 218.01 198.064 219.122C193.944 220.041 192.83 220.705 192.804 222.259C192.669 230.389 188.242 235.387 179.682 237.077C172.845 238.427 172.072 240.31 177.577 242.203C190.358 246.597 192.892 257.693 182.442 263.506C176.521 266.799 172.426 266.758 167.515 263.354C163.894 260.845 163.161 260.686 159.679 261.653C153.737 263.303 147.363 262.934 141.337 260.593C135.874 258.47 130.724 257.068 124.689 256.061C118.715 255.064 115.151 249.943 114.592 241.551C114.184 235.417 113.671 233.745 111.425 231.231C109.951 229.581 107.986 226.544 107.058 224.481C105.42 220.844 105.211 220.731 100.164 220.731C93.7935 220.731 89.0798 217.922 86.2168 212.42C83.0468 206.327 78.9427 207.336 78.8477 214.231C78.8097 216.981 78.4233 220.817 77.9883 222.755C77.2354 226.113 77.3507 226.324 80.4366 227.255C90.5004 230.29 90.3981 247.946 80.2881 252.934C55.9904 264.92 26.2411 240.473 47.875 226.298C49.556 225.196 50.1805 223.494 50.6895 218.626C51.0495 215.185 52.1298 211.262 53.0908 209.91C54.0507 208.557 55.2736 206.856 55.8086 206.127C56.5016 205.184 56.0161 204.003 54.1221 202.017C50.6273 198.355 49.3112 194.657 49.9981 190.428C50.3281 188.392 50.1033 186.705 49.4463 186.299C48.8364 185.922 48.337 184.345 48.3369 182.794C48.3369 181.244 47.6012 179.366 46.7032 178.621C43.9996 176.376 34.3369 162.856 34.3369 161.317C34.3368 160.529 32.7627 157.822 30.8389 155.302C28.915 152.781 27.3998 150.384 27.4727 149.975C28.4457 144.478 24.6467 141.425 20.4727 144.348C18.2547 145.902 11.2222 145.776 6.86624 144.104C-3.23648 140.227 -1.78745 115.126 8.56839 114.62C14.8594 114.313 23.3369 117.551 23.3369 120.261C23.3372 122.018 26.1103 124.731 27.9073 124.731C28.6933 124.731 29.3369 124.041 29.3369 123.198C29.3372 109.814 50.1851 94.3087 69.8369 93.0767C82.9305 92.2547 88.2617 93.4969 97.1895 99.4468C101.45 102.287 108.337 96.8837 108.337 90.7007C108.337 88.6598 109.172 86.4706 110.483 85.0747C112.734 82.6789 111.804 79.7313 108.796 79.731C106.403 79.731 103.556 73.5422 104.077 69.4702C105.046 61.8843 117.633 57.7673 123.289 63.1861C125.639 65.4379 126.708 65.8083 129.245 65.2515C133.054 64.4145 133.128 63.4739 129.587 60.895C121.36 54.902 128.195 37.9086 139.837 35.4146ZM227.337 203.429C239.094 199.654 252.722 207.291 252.722 217.653C252.722 228.495 231.921 239.44 223.927 232.806C221.665 230.929 220.403 232.363 221.012 236.118C222.097 242.802 213.511 254.731 207.616 254.731C194.246 254.731 188.8 246.232 194.457 234.198C198.202 226.231 204.453 223.784 213.238 226.847C217.536 228.345 217.88 227.687 215.921 221.697C213.052 212.925 216.89 206.783 227.337 203.429ZM179.7 192.695C179.049 192.044 178.051 192.413 176.774 193.779C168.37 202.768 165.063 203.713 156.506 199.571C149.746 196.298 146.45 201.459 151.961 206.689C154.209 208.822 154.482 209.744 154.038 213.682C153.54 218.098 153.664 218.344 158.682 222.967C163.836 227.716 163.837 227.716 164.351 222.867C164.987 216.872 169.522 209.969 174.077 208.066C177.094 206.805 177.337 206.359 177.337 202.046C177.337 199.092 177.95 196.711 179.013 195.536C180.117 194.315 180.352 193.347 179.7 192.695ZM13.7354 183.697C21.2304 180.362 25.9355 181.225 32.1055 187.066C40.5644 195.074 37.0287 205.612 24.6309 209.343C9.40689 213.925 -0.704596 190.124 13.7354 183.697ZM252.956 148.251C262.129 145.732 267.81 147.203 270.983 152.921C277.397 164.478 257.352 180.919 247.179 172.445C237.093 164.044 240.016 151.805 252.956 148.251ZM175.822 162.709C174.842 161.123 172.482 161.589 171.417 163.579C170.283 165.699 171.384 170.913 173.086 171.481C174.366 171.905 176.761 164.229 175.822 162.709ZM150.152 111.481C150.492 108.526 149.534 108.177 145.513 109.79C142.108 111.155 143.035 114.231 146.851 114.231C149.365 114.231 149.886 113.796 150.152 111.481ZM156.837 98.731C156.012 98.731 155.337 99.406 155.337 100.231C155.337 101.056 156.012 101.731 156.837 101.731C157.662 101.731 158.337 101.056 158.337 100.231C158.337 99.4061 157.662 98.7312 156.837 98.731ZM131.337 85.6382C131.337 82.8002 129.491 81.4004 127.429 82.6743C126.501 83.2473 126.685 84.2905 128.185 86.9605C129.273 88.9003 130.316 91.46 130.5 92.6489C130.685 93.8379 131.287 94.905 131.837 95.021C133.25 95.317 133.729 90.7224 132.422 89.4155C131.825 88.8185 131.337 87.1191 131.337 85.6382ZM79.8369 36.9214C89.8819 31.2487 102.893 46.8492 95.6582 55.8921C92.2024 60.211 91.2042 63.981 91.8701 70.1997C92.5322 76.3837 92.4821 76.5638 89.0371 80.3628C76.0391 94.6997 55.1533 78.5005 64.8242 61.5825C66.3391 58.9327 67.3172 55.6452 67.3242 53.1753C67.3402 47.7053 72.4159 41.1124 79.8369 36.9214ZM120.896 78.731C120.653 78.731 120.177 79.1811 119.837 79.731C119.497 80.2809 119.695 80.7309 120.277 80.731C120.859 80.731 121.337 80.281 121.337 79.731C121.337 79.181 121.139 78.731 120.896 78.731ZM205.485 39.4898C219.631 37.0418 227.598 50.9151 220.597 65.8081C213.393 81.13 190.339 77.7861 190.091 61.3823C189.98 54.0764 199.509 40.5238 205.485 39.4898ZM51.8369 14.5542C64.4449 5.86451 75.68 19.3671 68.6241 34.731C62.385 48.3167 41.3372 43.775 41.3369 28.8423C41.3369 26.0333 47.6529 17.4382 51.8369 14.5542ZM108.212 2.17043C121.43 -6.81137 141.546 14.0924 133.237 28.1743C132.084 30.1297 130.819 31.7302 130.427 31.731C130.035 31.731 128.813 32.5703 127.713 33.5962C119.456 41.2872 107.786 35.7761 103.367 22.0991C100.152 12.1461 101.463 6.75643 108.212 2.17043Z" fill="#F4C4DB"/>
</g>
<path id="stroke0_2065_58192_ref" d="M11.2863 8.8705C11.2452 8.73212 10.9052 8.23706 10.2669 7.75895C9.46468 7.15817 8.64423 7.00022 7.82259 6.85564C6.76422 6.66941 5.21991 6.78951 3.92637 7.14522C2.60378 7.50893 1.95486 8.32619 1.49689 8.81069C0.961852 9.37672 0.979956 10.5795 1.02594 11.5982C1.07186 12.6155 1.73136 13.4978 2.03594 13.953C2.33393 14.3984 2.70011 14.7384 3.17997 15.0251C3.63211 15.2953 5.10131 15.2354 5.8967 15.1658C5.99521 15.1572 6.07322 15.0706 6.06563 15.1139C5.97127 15.653 5.36466 15.9391 5.08266 16.2516C4.66516 16.7141 4.40926 17.3163 4.13431 18.2204C3.9117 18.9524 3.94907 19.4988 3.94656 20.6472C3.9449 21.4022 4.23528 21.7765 4.39234 22.1726C4.73401 23.0343 5.39111 23.4239 5.89305 23.7026C6.54521 24.0647 7.55072 24.2481 8.36378 24.2862C9.13627 24.3224 9.58794 23.7406 10.0389 23.2227C10.5805 22.6009 10.9934 21.1063 11.1337 20.3866C11.1708 20.1967 11.1848 20.0038 11.2189 19.9656C11.6182 19.5181 11.4069 21.086 11.5699 21.6162C11.8852 22.6415 12.3486 23.1483 12.7759 23.7302C13.5552 24.7917 14.8031 25.3964 16.0415 25.779C17.0858 26.1016 18.1099 25.7819 18.6354 25.6143C19.0374 25.4861 19.488 25.0264 20.0562 24.4323C20.5269 23.9401 20.8749 23.2365 21.1826 22.4319C21.6792 21.1331 21.3943 20.0011 21.2779 19.4941C21.1665 19.0093 20.7934 18.5192 20.0903 18.1086C19.8711 17.9806 19.5876 17.9158 19.4843 17.9225C18.8741 17.9621 21.0028 18.7092 21.6212 18.8631C22.874 19.1749 24.0315 18.9092 25.6336 18.4188C27.0194 17.9945 27.5044 17.2242 28.0587 16.5496C28.9526 15.4616 28.9435 14.4951 29.0043 12.7851C29.0517 11.4534 28.7221 11.0641 28.0583 9.97064C27.3686 8.83427 25.8693 8.03438 25.0644 7.75745C24.5484 7.57997 23.9411 7.64547 23.3911 7.74808C22.23 7.96471 21.33 8.84534 20.751 9.25019C19.8643 9.87017 19.6499 10.2672 19.6225 10.3498C19.5251 10.6435 20.2243 9.5485 20.8358 8.25331C21.1583 7.57004 21.1516 6.60061 21.1202 5.54054C21.0662 3.72258 20.1023 2.74106 19.4017 2.02216C18.8391 1.44491 17.4866 1.19078 16.0823 1.10421C15.0948 1.04334 13.8724 1.8151 13.1279 2.52894C12.658 2.97945 12.1502 3.90756 11.8692 4.52837C11.54 5.25563 11.3368 7.22521 11.2657 8.03166C11.2558 8.1319 11.236 8.23065 11.2258 8.60658C11.2156 8.9825 11.2156 9.63262 11.2672 10.5"/>
<g id="stroke1_2065_58192" data-figma-scatter-ref="stroke1_2065_58192_ref" data-figma-scatter="f0.28_w0_aj180_sj0.25_r0_s12642727262489578170_sw2">
<path d="M103.731 283.547C110.352 281.363 112.807 281.348 116.121 283.468C130.109 292.418 124.85 308.718 107.972 308.727C90.3768 308.737 87.0606 289.046 103.731 283.547ZM139.837 35.4146C140.937 35.1787 142.512 35.114 143.337 35.271C144.162 35.4281 146.516 35.8391 148.567 36.1851C155.802 37.4051 160.179 46.6969 156.734 53.5249C152.924 61.0769 144.715 67.5811 140.859 66.1021C135.872 64.1881 137.625 69.8792 144.066 76.5152C148.306 80.8841 150.337 81.2685 150.337 77.7066C150.337 76.6574 151.622 74.3218 153.193 72.5161C154.823 70.6412 156.597 66.9201 157.324 63.8501C158.925 57.0892 160.788 55.2289 167.369 53.8169C177.32 51.6829 185.581 56.9263 183.752 64.2153C183.293 66.0423 183.901 67.6656 186.09 70.4585C196.859 84.1975 193.875 104.273 180.596 107.418C177.049 108.258 176.832 108.532 176.773 112.27C176.739 114.448 176.365 116.987 175.943 117.912C175.255 119.417 175.946 119.564 182.506 119.31C190.415 119.003 192.674 119.705 195.953 123.487C199.054 127.064 201.598 126.114 202.609 121.002C203.503 116.483 209.096 110.731 212.596 110.731C214.841 110.731 215.934 108.156 214.449 106.367C206.1 96.3056 222.234 73.6632 235.605 76.6792C241.572 78.0252 246.302 83.6302 246.367 89.4312C246.384 90.9712 247.505 94.4811 248.858 97.231C255.362 110.453 243.304 126.225 232.777 118.263C229.924 116.105 229.837 116.226 229.837 122.341C229.837 128.93 225.932 133.292 219.049 134.393C216.068 134.87 214.933 135.67 213.775 138.116C212.964 139.829 211.55 142.415 210.63 143.863C208.984 146.456 209.02 146.565 213.147 151.254C215.451 153.871 217.337 156.555 217.337 157.218C217.337 157.882 218.074 159.901 218.974 161.706C222.148 168.067 221.073 181.731 217.4 181.731C217.052 181.731 215.97 183.081 214.995 184.731C214.02 186.381 212.573 187.731 211.779 187.731C209.595 187.731 210.044 189.817 212.863 192.76C216.384 196.435 217.425 204.867 214.728 207.858C209.503 213.649 203.05 218.01 198.064 219.122C193.944 220.041 192.83 220.705 192.804 222.259C192.669 230.389 188.242 235.387 179.682 237.077C172.845 238.427 172.072 240.31 177.577 242.203C190.358 246.597 192.892 257.693 182.442 263.506C176.521 266.799 172.426 266.758 167.515 263.354C163.894 260.845 163.161 260.686 159.679 261.653C153.737 263.303 147.363 262.934 141.337 260.593C135.874 258.47 130.724 257.068 124.689 256.061C118.715 255.064 115.151 249.943 114.592 241.551C114.184 235.417 113.671 233.745 111.425 231.231C109.951 229.581 107.986 226.544 107.058 224.481C105.42 220.844 105.211 220.731 100.164 220.731C93.7935 220.731 89.0798 217.922 86.2168 212.42C83.0468 206.327 78.9427 207.336 78.8477 214.231C78.8097 216.981 78.4233 220.817 77.9883 222.755C77.2354 226.113 77.3507 226.324 80.4366 227.255C90.5004 230.29 90.3981 247.946 80.2881 252.934C55.9904 264.92 26.2411 240.473 47.875 226.298C49.556 225.196 50.1805 223.494 50.6895 218.626C51.0495 215.185 52.1298 211.262 53.0908 209.91C54.0507 208.557 55.2736 206.856 55.8086 206.127C56.5016 205.184 56.0161 204.003 54.1221 202.017C50.6273 198.355 49.3112 194.657 49.9981 190.428C50.3281 188.392 50.1033 186.705 49.4463 186.299C48.8364 185.922 48.337 184.345 48.3369 182.794C48.3369 181.244 47.6012 179.366 46.7032 178.621C43.9996 176.376 34.3369 162.856 34.3369 161.317C34.3368 160.529 32.7627 157.822 30.8389 155.302C28.915 152.781 27.3998 150.384 27.4727 149.975C28.4457 144.478 24.6467 141.425 20.4727 144.348C18.2547 145.902 11.2222 145.776 6.86624 144.104C-3.23648 140.227 -1.78745 115.126 8.56839 114.62C14.8594 114.313 23.3369 117.551 23.3369 120.261C23.3372 122.018 26.1103 124.731 27.9073 124.731C28.6933 124.731 29.3369 124.041 29.3369 123.198C29.3372 109.814 50.1851 94.3087 69.8369 93.0767C82.9305 92.2547 88.2617 93.4969 97.1895 99.4468C101.45 102.287 108.337 96.8837 108.337 90.7007C108.337 88.6598 109.172 86.4706 110.483 85.0747C112.734 82.6789 111.804 79.7313 108.796 79.731C106.403 79.731 103.556 73.5422 104.077 69.4702C105.046 61.8843 117.633 57.7673 123.289 63.1861C125.639 65.4379 126.708 65.8083 129.245 65.2515C133.054 64.4145 133.128 63.4739 129.587 60.895C121.36 54.902 128.195 37.9086 139.837 35.4146ZM227.337 203.429C239.094 199.654 252.722 207.291 252.722 217.653C252.722 228.495 231.921 239.44 223.927 232.806C221.665 230.929 220.403 232.363 221.012 236.118C222.097 242.802 213.511 254.731 207.616 254.731C194.246 254.731 188.8 246.232 194.457 234.198C198.202 226.231 204.453 223.784 213.238 226.847C217.536 228.345 217.88 227.687 215.921 221.697C213.052 212.925 216.89 206.783 227.337 203.429ZM179.7 192.695C179.049 192.044 178.051 192.413 176.774 193.779C168.37 202.768 165.063 203.713 156.506 199.571C149.746 196.298 146.45 201.459 151.961 206.689C154.209 208.822 154.482 209.744 154.038 213.682C153.54 218.098 153.664 218.344 158.682 222.967C163.836 227.716 163.837 227.716 164.351 222.867C164.987 216.872 169.522 209.969 174.077 208.066C177.094 206.805 177.337 206.359 177.337 202.046C177.337 199.092 177.95 196.711 179.013 195.536C180.117 194.315 180.352 193.347 179.7 192.695ZM13.7354 183.697C21.2304 180.362 25.9355 181.225 32.1055 187.066C40.5644 195.074 37.0287 205.612 24.6309 209.343C9.40689 213.925 -0.704596 190.124 13.7354 183.697ZM252.956 148.251C262.129 145.732 267.81 147.203 270.983 152.921C277.397 164.478 257.352 180.919 247.179 172.445C237.093 164.044 240.016 151.805 252.956 148.251ZM175.822 162.709C174.842 161.123 172.482 161.589 171.417 163.579C170.283 165.699 171.384 170.913 173.086 171.481C174.366 171.905 176.761 164.229 175.822 162.709ZM150.152 111.481C150.492 108.526 149.534 108.177 145.513 109.79C142.108 111.155 143.035 114.231 146.851 114.231C149.365 114.231 149.886 113.796 150.152 111.481ZM156.837 98.731C156.012 98.731 155.337 99.406 155.337 100.231C155.337 101.056 156.012 101.731 156.837 101.731C157.662 101.731 158.337 101.056 158.337 100.231C158.337 99.4061 157.662 98.7312 156.837 98.731ZM131.337 85.6382C131.337 82.8002 129.491 81.4004 127.429 82.6743C126.501 83.2473 126.685 84.2905 128.185 86.9605C129.273 88.9003 130.316 91.46 130.5 92.6489C130.685 93.8379 131.287 94.905 131.837 95.021C133.25 95.317 133.729 90.7224 132.422 89.4155C131.825 88.8185 131.337 87.1191 131.337 85.6382ZM79.8369 36.9214C89.8819 31.2487 102.893 46.8492 95.6582 55.8921C92.2024 60.211 91.2042 63.981 91.8701 70.1997C92.5322 76.3837 92.4821 76.5638 89.0371 80.3628C76.0391 94.6997 55.1533 78.5005 64.8242 61.5825C66.3391 58.9327 67.3172 55.6452 67.3242 53.1753C67.3402 47.7053 72.4159 41.1124 79.8369 36.9214ZM120.896 78.731C120.653 78.731 120.177 79.1811 119.837 79.731C119.497 80.2809 119.695 80.7309 120.277 80.731C120.859 80.731 121.337 80.281 121.337 79.731C121.337 79.181 121.139 78.731 120.896 78.731ZM205.485 39.4898C219.631 37.0418 227.598 50.9151 220.597 65.8081C213.393 81.13 190.339 77.7861 190.091 61.3823C189.98 54.0764 199.509 40.5238 205.485 39.4898ZM51.8369 14.5542C64.4449 5.86451 75.68 19.3671 68.6241 34.731C62.385 48.3167 41.3372 43.775 41.3369 28.8423C41.3369 26.0333 47.6529 17.4382 51.8369 14.5542ZM108.212 2.17043C121.43 -6.81137 141.546 14.0924 133.237 28.1743C132.084 30.1297 130.819 31.7302 130.427 31.731C130.035 31.731 128.813 32.5703 127.713 33.5962C119.456 41.2872 107.786 35.7761 103.367 22.0991C100.152 12.1461 101.463 6.75643 108.212 2.17043Z" fill="#F4C4DB"/>
</g>
<path id="stroke1_2065_58192_ref" d="M14.1242 12.009C13.8747 12.1486 13.3143 12.5139 12.9836 12.9122C12.461 13.5417 12.8447 14.6046 13.0576 15.2001C13.1936 15.5808 13.7844 15.7741 14.242 15.8491C14.6951 15.9234 14.9677 15.3819 15.1874 15.0837C15.4337 14.7496 15.3683 13.9339 15.2771 13.2044C15.1476 12.736 14.9737 12.3372 14.6687 12.1046C14.5822 12.0635 14.4956 12.0392 14.385 12.0142"/>
<g id="stroke2_2065_58192" data-figma-scatter-ref="stroke2_2065_58192_ref" data-figma-scatter="f0.28_w0_aj180_sj0.25_r0_s10432971815304232711_sw2">
<path d="M103.731 283.547C110.352 281.363 112.807 281.348 116.121 283.468C130.109 292.418 124.85 308.718 107.972 308.727C90.3768 308.737 87.0606 289.046 103.731 283.547ZM139.837 35.4146C140.937 35.1787 142.512 35.114 143.337 35.271C144.162 35.4281 146.516 35.8391 148.567 36.1851C155.802 37.4051 160.179 46.6969 156.734 53.5249C152.924 61.0769 144.715 67.5811 140.859 66.1021C135.872 64.1881 137.625 69.8792 144.066 76.5152C148.306 80.8841 150.337 81.2685 150.337 77.7066C150.337 76.6574 151.622 74.3218 153.193 72.5161C154.823 70.6412 156.597 66.9201 157.324 63.8501C158.925 57.0892 160.788 55.2289 167.369 53.8169C177.32 51.6829 185.581 56.9263 183.752 64.2153C183.293 66.0423 183.901 67.6656 186.09 70.4585C196.859 84.1975 193.875 104.273 180.596 107.418C177.049 108.258 176.832 108.532 176.773 112.27C176.739 114.448 176.365 116.987 175.943 117.912C175.255 119.417 175.946 119.564 182.506 119.31C190.415 119.003 192.674 119.705 195.953 123.487C199.054 127.064 201.598 126.114 202.609 121.002C203.503 116.483 209.096 110.731 212.596 110.731C214.841 110.731 215.934 108.156 214.449 106.367C206.1 96.3056 222.234 73.6632 235.605 76.6792C241.572 78.0252 246.302 83.6302 246.367 89.4312C246.384 90.9712 247.505 94.4811 248.858 97.231C255.362 110.453 243.304 126.225 232.777 118.263C229.924 116.105 229.837 116.226 229.837 122.341C229.837 128.93 225.932 133.292 219.049 134.393C216.068 134.87 214.933 135.67 213.775 138.116C212.964 139.829 211.55 142.415 210.63 143.863C208.984 146.456 209.02 146.565 213.147 151.254C215.451 153.871 217.337 156.555 217.337 157.218C217.337 157.882 218.074 159.901 218.974 161.706C222.148 168.067 221.073 181.731 217.4 181.731C217.052 181.731 215.97 183.081 214.995 184.731C214.02 186.381 212.573 187.731 211.779 187.731C209.595 187.731 210.044 189.817 212.863 192.76C216.384 196.435 217.425 204.867 214.728 207.858C209.503 213.649 203.05 218.01 198.064 219.122C193.944 220.041 192.83 220.705 192.804 222.259C192.669 230.389 188.242 235.387 179.682 237.077C172.845 238.427 172.072 240.31 177.577 242.203C190.358 246.597 192.892 257.693 182.442 263.506C176.521 266.799 172.426 266.758 167.515 263.354C163.894 260.845 163.161 260.686 159.679 261.653C153.737 263.303 147.363 262.934 141.337 260.593C135.874 258.47 130.724 257.068 124.689 256.061C118.715 255.064 115.151 249.943 114.592 241.551C114.184 235.417 113.671 233.745 111.425 231.231C109.951 229.581 107.986 226.544 107.058 224.481C105.42 220.844 105.211 220.731 100.164 220.731C93.7935 220.731 89.0798 217.922 86.2168 212.42C83.0468 206.327 78.9427 207.336 78.8477 214.231C78.8097 216.981 78.4233 220.817 77.9883 222.755C77.2354 226.113 77.3507 226.324 80.4366 227.255C90.5004 230.29 90.3981 247.946 80.2881 252.934C55.9904 264.92 26.2411 240.473 47.875 226.298C49.556 225.196 50.1805 223.494 50.6895 218.626C51.0495 215.185 52.1298 211.262 53.0908 209.91C54.0507 208.557 55.2736 206.856 55.8086 206.127C56.5016 205.184 56.0161 204.003 54.1221 202.017C50.6273 198.355 49.3112 194.657 49.9981 190.428C50.3281 188.392 50.1033 186.705 49.4463 186.299C48.8364 185.922 48.337 184.345 48.3369 182.794C48.3369 181.244 47.6012 179.366 46.7032 178.621C43.9996 176.376 34.3369 162.856 34.3369 161.317C34.3368 160.529 32.7627 157.822 30.8389 155.302C28.915 152.781 27.3998 150.384 27.4727 149.975C28.4457 144.478 24.6467 141.425 20.4727 144.348C18.2547 145.902 11.2222 145.776 6.86624 144.104C-3.23648 140.227 -1.78745 115.126 8.56839 114.62C14.8594 114.313 23.3369 117.551 23.3369 120.261C23.3372 122.018 26.1103 124.731 27.9073 124.731C28.6933 124.731 29.3369 124.041 29.3369 123.198C29.3372 109.814 50.1851 94.3087 69.8369 93.0767C82.9305 92.2547 88.2617 93.4969 97.1895 99.4468C101.45 102.287 108.337 96.8837 108.337 90.7007C108.337 88.6598 109.172 86.4706 110.483 85.0747C112.734 82.6789 111.804 79.7313 108.796 79.731C106.403 79.731 103.556 73.5422 104.077 69.4702C105.046 61.8843 117.633 57.7673 123.289 63.1861C125.639 65.4379 126.708 65.8083 129.245 65.2515C133.054 64.4145 133.128 63.4739 129.587 60.895C121.36 54.902 128.195 37.9086 139.837 35.4146ZM227.337 203.429C239.094 199.654 252.722 207.291 252.722 217.653C252.722 228.495 231.921 239.44 223.927 232.806C221.665 230.929 220.403 232.363 221.012 236.118C222.097 242.802 213.511 254.731 207.616 254.731C194.246 254.731 188.8 246.232 194.457 234.198C198.202 226.231 204.453 223.784 213.238 226.847C217.536 228.345 217.88 227.687 215.921 221.697C213.052 212.925 216.89 206.783 227.337 203.429ZM179.7 192.695C179.049 192.044 178.051 192.413 176.774 193.779C168.37 202.768 165.063 203.713 156.506 199.571C149.746 196.298 146.45 201.459 151.961 206.689C154.209 208.822 154.482 209.744 154.038 213.682C153.54 218.098 153.664 218.344 158.682 222.967C163.836 227.716 163.837 227.716 164.351 222.867C164.987 216.872 169.522 209.969 174.077 208.066C177.094 206.805 177.337 206.359 177.337 202.046C177.337 199.092 177.95 196.711 179.013 195.536C180.117 194.315 180.352 193.347 179.7 192.695ZM13.7354 183.697C21.2304 180.362 25.9355 181.225 32.1055 187.066C40.5644 195.074 37.0287 205.612 24.6309 209.343C9.40689 213.925 -0.704596 190.124 13.7354 183.697ZM252.956 148.251C262.129 145.732 267.81 147.203 270.983 152.921C277.397 164.478 257.352 180.919 247.179 172.445C237.093 164.044 240.016 151.805 252.956 148.251ZM175.822 162.709C174.842 161.123 172.482 161.589 171.417 163.579C170.283 165.699 171.384 170.913 173.086 171.481C174.366 171.905 176.761 164.229 175.822 162.709ZM150.152 111.481C150.492 108.526 149.534 108.177 145.513 109.79C142.108 111.155 143.035 114.231 146.851 114.231C149.365 114.231 149.886 113.796 150.152 111.481ZM156.837 98.731C156.012 98.731 155.337 99.406 155.337 100.231C155.337 101.056 156.012 101.731 156.837 101.731C157.662 101.731 158.337 101.056 158.337 100.231C158.337 99.4061 157.662 98.7312 156.837 98.731ZM131.337 85.6382C131.337 82.8002 129.491 81.4004 127.429 82.6743C126.501 83.2473 126.685 84.2905 128.185 86.9605C129.273 88.9003 130.316 91.46 130.5 92.6489C130.685 93.8379 131.287 94.905 131.837 95.021C133.25 95.317 133.729 90.7224 132.422 89.4155C131.825 88.8185 131.337 87.1191 131.337 85.6382ZM79.8369 36.9214C89.8819 31.2487 102.893 46.8492 95.6582 55.8921C92.2024 60.211 91.2042 63.981 91.8701 70.1997C92.5322 76.3837 92.4821 76.5638 89.0371 80.3628C76.0391 94.6997 55.1533 78.5005 64.8242 61.5825C66.3391 58.9327 67.3172 55.6452 67.3242 53.1753C67.3402 47.7053 72.4159 41.1124 79.8369 36.9214ZM120.896 78.731C120.653 78.731 120.177 79.1811 119.837 79.731C119.497 80.2809 119.695 80.7309 120.277 80.731C120.859 80.731 121.337 80.281 121.337 79.731C121.337 79.181 121.139 78.731 120.896 78.731ZM205.485 39.4898C219.631 37.0418 227.598 50.9151 220.597 65.8081C213.393 81.13 190.339 77.7861 190.091 61.3823C189.98 54.0764 199.509 40.5238 205.485 39.4898ZM51.8369 14.5542C64.4449 5.86451 75.68 19.3671 68.6241 34.731C62.385 48.3167 41.3372 43.775 41.3369 28.8423C41.3369 26.0333 47.6529 17.4382 51.8369 14.5542ZM108.212 2.17043C121.43 -6.81137 141.546 14.0924 133.237 28.1743C132.084 30.1297 130.819 31.7302 130.427 31.731C130.035 31.731 128.813 32.5703 127.713 33.5962C119.456 41.2872 107.786 35.7761 103.367 22.0991C100.152 12.1461 101.463 6.75643 108.212 2.17043Z" fill="#F4C4DB"/>
</g>
<path id="stroke2_2065_58192_ref" d="M22.1374 32.6941C22.1374 32.68 21.7337 32.5839 21.014 32.4947C20.4785 32.4283 20.0897 32.8374 19.7637 33.1646C19.2019 33.7285 19.2852 34.5881 19.3647 35.2441C19.422 35.7174 19.7461 36.114 20.3294 36.5369C20.8504 36.9147 21.3799 36.8917 22.1608 36.9892C22.7604 37.064 23.1913 36.9535 23.3298 36.8368C23.6745 36.5462 23.6435 35.7033 23.7006 35.0811C23.6356 34.2414 23.3823 33.8808 23.1841 33.6929C23.0905 33.6095 23.0109 33.5504 22.7169 33.3833"/>
<g id="stroke3_2065_58192" data-figma-scatter-ref="stroke3_2065_58192_ref" data-figma-scatter="f0.28_w0_aj180_sj0.25_r0_s17367733881549140322_sw2">
<path d="M103.731 283.547C110.352 281.363 112.807 281.348 116.121 283.468C130.109 292.418 124.85 308.718 107.972 308.727C90.3768 308.737 87.0606 289.046 103.731 283.547ZM139.837 35.4146C140.937 35.1787 142.512 35.114 143.337 35.271C144.162 35.4281 146.516 35.8391 148.567 36.1851C155.802 37.4051 160.179 46.6969 156.734 53.5249C152.924 61.0769 144.715 67.5811 140.859 66.1021C135.872 64.1881 137.625 69.8792 144.066 76.5152C148.306 80.8841 150.337 81.2685 150.337 77.7066C150.337 76.6574 151.622 74.3218 153.193 72.5161C154.823 70.6412 156.597 66.9201 157.324 63.8501C158.925 57.0892 160.788 55.2289 167.369 53.8169C177.32 51.6829 185.581 56.9263 183.752 64.2153C183.293 66.0423 183.901 67.6656 186.09 70.4585C196.859 84.1975 193.875 104.273 180.596 107.418C177.049 108.258 176.832 108.532 176.773 112.27C176.739 114.448 176.365 116.987 175.943 117.912C175.255 119.417 175.946 119.564 182.506 119.31C190.415 119.003 192.674 119.705 195.953 123.487C199.054 127.064 201.598 126.114 202.609 121.002C203.503 116.483 209.096 110.731 212.596 110.731C214.841 110.731 215.934 108.156 214.449 106.367C206.1 96.3056 222.234 73.6632 235.605 76.6792C241.572 78.0252 246.302 83.6302 246.367 89.4312C246.384 90.9712 247.505 94.4811 248.858 97.231C255.362 110.453 243.304 126.225 232.777 118.263C229.924 116.105 229.837 116.226 229.837 122.341C229.837 128.93 225.932 133.292 219.049 134.393C216.068 134.87 214.933 135.67 213.775 138.116C212.964 139.829 211.55 142.415 210.63 143.863C208.984 146.456 209.02 146.565 213.147 151.254C215.451 153.871 217.337 156.555 217.337 157.218C217.337 157.882 218.074 159.901 218.974 161.706C222.148 168.067 221.073 181.731 217.4 181.731C217.052 181.731 215.97 183.081 214.995 184.731C214.02 186.381 212.573 187.731 211.779 187.731C209.595 187.731 210.044 189.817 212.863 192.76C216.384 196.435 217.425 204.867 214.728 207.858C209.503 213.649 203.05 218.01 198.064 219.122C193.944 220.041 192.83 220.705 192.804 222.259C192.669 230.389 188.242 235.387 179.682 237.077C172.845 238.427 172.072 240.31 177.577 242.203C190.358 246.597 192.892 257.693 182.442 263.506C176.521 266.799 172.426 266.758 167.515 263.354C163.894 260.845 163.161 260.686 159.679 261.653C153.737 263.303 147.363 262.934 141.337 260.593C135.874 258.47 130.724 257.068 124.689 256.061C118.715 255.064 115.151 249.943 114.592 241.551C114.184 235.417 113.671 233.745 111.425 231.231C109.951 229.581 107.986 226.544 107.058 224.481C105.42 220.844 105.211 220.731 100.164 220.731C93.7935 220.731 89.0798 217.922 86.2168 212.42C83.0468 206.327 78.9427 207.336 78.8477 214.231C78.8097 216.981 78.4233 220.817 77.9883 222.755C77.2354 226.113 77.3507 226.324 80.4366 227.255C90.5004 230.29 90.3981 247.946 80.2881 252.934C55.9904 264.92 26.2411 240.473 47.875 226.298C49.556 225.196 50.1805 223.494 50.6895 218.626C51.0495 215.185 52.1298 211.262 53.0908 209.91C54.0507 208.557 55.2736 206.856 55.8086 206.127C56.5016 205.184 56.0161 204.003 54.1221 202.017C50.6273 198.355 49.3112 194.657 49.9981 190.428C50.3281 188.392 50.1033 186.705 49.4463 186.299C48.8364 185.922 48.337 184.345 48.3369 182.794C48.3369 181.244 47.6012 179.366 46.7032 178.621C43.9996 176.376 34.3369 162.856 34.3369 161.317C34.3368 160.529 32.7627 157.822 30.8389 155.302C28.915 152.781 27.3998 150.384 27.4727 149.975C28.4457 144.478 24.6467 141.425 20.4727 144.348C18.2547 145.902 11.2222 145.776 6.86624 144.104C-3.23648 140.227 -1.78745 115.126 8.56839 114.62C14.8594 114.313 23.3369 117.551 23.3369 120.261C23.3372 122.018 26.1103 124.731 27.9073 124.731C28.6933 124.731 29.3369 124.041 29.3369 123.198C29.3372 109.814 50.1851 94.3087 69.8369 93.0767C82.9305 92.2547 88.2617 93.4969 97.1895 99.4468C101.45 102.287 108.337 96.8837 108.337 90.7007C108.337 88.6598 109.172 86.4706 110.483 85.0747C112.734 82.6789 111.804 79.7313 108.796 79.731C106.403 79.731 103.556 73.5422 104.077 69.4702C105.046 61.8843 117.633 57.7673 123.289 63.1861C125.639 65.4379 126.708 65.8083 129.245 65.2515C133.054 64.4145 133.128 63.4739 129.587 60.895C121.36 54.902 128.195 37.9086 139.837 35.4146ZM227.337 203.429C239.094 199.654 252.722 207.291 252.722 217.653C252.722 228.495 231.921 239.44 223.927 232.806C221.665 230.929 220.403 232.363 221.012 236.118C222.097 242.802 213.511 254.731 207.616 254.731C194.246 254.731 188.8 246.232 194.457 234.198C198.202 226.231 204.453 223.784 213.238 226.847C217.536 228.345 217.88 227.687 215.921 221.697C213.052 212.925 216.89 206.783 227.337 203.429ZM179.7 192.695C179.049 192.044 178.051 192.413 176.774 193.779C168.37 202.768 165.063 203.713 156.506 199.571C149.746 196.298 146.45 201.459 151.961 206.689C154.209 208.822 154.482 209.744 154.038 213.682C153.54 218.098 153.664 218.344 158.682 222.967C163.836 227.716 163.837 227.716 164.351 222.867C164.987 216.872 169.522 209.969 174.077 208.066C177.094 206.805 177.337 206.359 177.337 202.046C177.337 199.092 177.95 196.711 179.013 195.536C180.117 194.315 180.352 193.347 179.7 192.695ZM13.7354 183.697C21.2304 180.362 25.9355 181.225 32.1055 187.066C40.5644 195.074 37.0287 205.612 24.6309 209.343C9.40689 213.925 -0.704596 190.124 13.7354 183.697ZM252.956 148.251C262.129 145.732 267.81 147.203 270.983 152.921C277.397 164.478 257.352 180.919 247.179 172.445C237.093 164.044 240.016 151.805 252.956 148.251ZM175.822 162.709C174.842 161.123 172.482 161.589 171.417 163.579C170.283 165.699 171.384 170.913 173.086 171.481C174.366 171.905 176.761 164.229 175.822 162.709ZM150.152 111.481C150.492 108.526 149.534 108.177 145.513 109.79C142.108 111.155 143.035 114.231 146.851 114.231C149.365 114.231 149.886 113.796 150.152 111.481ZM156.837 98.731C156.012 98.731 155.337 99.406 155.337 100.231C155.337 101.056 156.012 101.731 156.837 101.731C157.662 101.731 158.337 101.056 158.337 100.231C158.337 99.4061 157.662 98.7312 156.837 98.731ZM131.337 85.6382C131.337 82.8002 129.491 81.4004 127.429 82.6743C126.501 83.2473 126.685 84.2905 128.185 86.9605C129.273 88.9003 130.316 91.46 130.5 92.6489C130.685 93.8379 131.287 94.905 131.837 95.021C133.25 95.317 133.729 90.7224 132.422 89.4155C131.825 88.8185 131.337 87.1191 131.337 85.6382ZM79.8369 36.9214C89.8819 31.2487 102.893 46.8492 95.6582 55.8921C92.2024 60.211 91.2042 63.981 91.8701 70.1997C92.5322 76.3837 92.4821 76.5638 89.0371 80.3628C76.0391 94.6997 55.1533 78.5005 64.8242 61.5825C66.3391 58.9327 67.3172 55.6452 67.3242 53.1753C67.3402 47.7053 72.4159 41.1124 79.8369 36.9214ZM120.896 78.731C120.653 78.731 120.177 79.1811 119.837 79.731C119.497 80.2809 119.695 80.7309 120.277 80.731C120.859 80.731 121.337 80.281 121.337 79.731C121.337 79.181 121.139 78.731 120.896 78.731ZM205.485 39.4898C219.631 37.0418 227.598 50.9151 220.597 65.8081C213.393 81.13 190.339 77.7861 190.091 61.3823C189.98 54.0764 199.509 40.5238 205.485 39.4898ZM51.8369 14.5542C64.4449 5.86451 75.68 19.3671 68.6241 34.731C62.385 48.3167 41.3372 43.775 41.3369 28.8423C41.3369 26.0333 47.6529 17.4382 51.8369 14.5542ZM108.212 2.17043C121.43 -6.81137 141.546 14.0924 133.237 28.1743C132.084 30.1297 130.819 31.7302 130.427 31.731C130.035 31.731 128.813 32.5703 127.713 33.5962C119.456 41.2872 107.786 35.7761 103.367 22.0991C100.152 12.1461 101.463 6.75643 108.212 2.17043Z" fill="#F4C4DB"/>
</g>
<path id="stroke3_2065_58192_ref" d="M16.9041 29.351C16.85 29.2824 16.4969 28.9691 15.8072 28.6176C15.4603 28.4408 14.8704 28.4177 14.2696 28.3554C13.5125 28.2769 12.3985 28.4272 11.6022 28.8815C10.6876 29.4034 10.0993 30.4203 9.85705 30.988C9.66046 31.4486 9.64406 32.0846 9.59823 32.6975C9.52016 33.7417 9.7237 34.0215 10.0476 34.5383C10.4873 35.2399 11.3632 35.5399 12.5222 35.8215C12.9568 35.9271 13.2997 35.8714 13.768 35.8979C15.2462 35.9818 15.5896 35.7364 15.777 35.5703C15.8227 35.5299 15.8305 35.4644 15.8207 35.4575C15.6243 35.319 15.1841 35.939 14.3768 36.5901C13.6035 37.2136 13.104 37.8055 12.8896 38.181C12.5748 38.7322 12.5433 39.2932 12.6124 39.7054C12.7166 40.327 13.0239 40.7305 13.1867 40.9548C13.4412 41.3054 13.7651 41.7846 14.1351 42.2406C14.4417 42.6186 14.8238 42.9311 15.2452 43.1939C15.5807 43.4032 16.0246 43.4661 16.6621 43.5498C17.5443 43.6657 18.1823 43.6469 18.4718 43.603C18.8882 43.5399 19.6555 43.2171 20.5829 42.8063C21.622 42.346 21.8528 41.8139 22.0175 41.5002C22.0696 41.401 22.0929 41.2341 22.0992 41.2054C22.2481 40.5238 22.142 43.3412 22.3878 43.8133C22.5259 44.0785 22.8042 44.2144 23.0364 44.3046C23.318 44.4139 23.987 44.4217 24.7877 44.4399C25.5934 44.4583 26.5197 44.1166 26.8856 43.8598C27.4019 43.4976 27.6556 42.5279 27.846 42.0607C28.0292 41.6111 28.1158 41.0573 28.162 40.4C28.2275 39.4666 28.1372 38.8436 28.0899 38.6689C27.8714 37.8617 27.2307 37.0832 27.1746 37.0017C27.0948 36.8858 27.5388 37.2502 28.1275 37.3254C29.9633 37.5598 30.4434 37.3268 30.8985 37.1315C31.2722 36.971 31.3756 36.5882 31.5616 36.1186C31.7058 35.7546 31.8502 35.3647 31.9428 34.9716C32.045 34.5374 32.0559 33.7602 32.0698 32.8835C32.0824 32.0913 31.5949 31.3231 30.9967 30.6267C30.2021 29.7016 29.7699 29.6322 29.3199 29.3609C29.0107 29.1744 28.4568 28.9582 27.9239 28.8354C27.3554 28.7043 26.8318 28.9321 26.3012 29.1581C26.0969 29.2451 25.8317 29.4408 25.7259 29.3807C25.0247 28.9827 25.7524 28.167 25.551 27.7591C25.3816 27.4159 25.092 27.0014 24.8185 26.6747C24.2675 26.0166 23.7579 25.5673 23.513 25.4104C23.2888 25.2668 22.9413 25.1536 22.3182 25.0147C22.0304 24.9472 21.8365 24.8985 21.5859 24.8738C21.3939 24.8637 21.0704 24.8588 20.7371 24.8538"/>
<g id="stroke4_2065_58192" data-figma-scatter-ref="stroke4_2065_58192_ref" data-figma-scatter="f0.28_w0_aj180_sj0.25_r0_s18066490810781100207_sw2">
<path d="M103.731 283.547C110.352 281.363 112.807 281.348 116.121 283.468C130.109 292.418 124.85 308.718 107.972 308.727C90.3768 308.737 87.0606 289.046 103.731 283.547ZM139.837 35.4146C140.937 35.1787 142.512 35.114 143.337 35.271C144.162 35.4281 146.516 35.8391 148.567 36.1851C155.802 37.4051 160.179 46.6969 156.734 53.5249C152.924 61.0769 144.715 67.5811 140.859 66.1021C135.872 64.1881 137.625 69.8792 144.066 76.5152C148.306 80.8841 150.337 81.2685 150.337 77.7066C150.337 76.6574 151.622 74.3218 153.193 72.5161C154.823 70.6412 156.597 66.9201 157.324 63.8501C158.925 57.0892 160.788 55.2289 167.369 53.8169C177.32 51.6829 185.581 56.9263 183.752 64.2153C183.293 66.0423 183.901 67.6656 186.09 70.4585C196.859 84.1975 193.875 104.273 180.596 107.418C177.049 108.258 176.832 108.532 176.773 112.27C176.739 114.448 176.365 116.987 175.943 117.912C175.255 119.417 175.946 119.564 182.506 119.31C190.415 119.003 192.674 119.705 195.953 123.487C199.054 127.064 201.598 126.114 202.609 121.002C203.503 116.483 209.096 110.731 212.596 110.731C214.841 110.731 215.934 108.156 214.449 106.367C206.1 96.3056 222.234 73.6632 235.605 76.6792C241.572 78.0252 246.302 83.6302 246.367 89.4312C246.384 90.9712 247.505 94.4811 248.858 97.231C255.362 110.453 243.304 126.225 232.777 118.263C229.924 116.105 229.837 116.226 229.837 122.341C229.837 128.93 225.932 133.292 219.049 134.393C216.068 134.87 214.933 135.67 213.775 138.116C212.964 139.829 211.55 142.415 210.63 143.863C208.984 146.456 209.02 146.565 213.147 151.254C215.451 153.871 217.337 156.555 217.337 157.218C217.337 157.882 218.074 159.901 218.974 161.706C222.148 168.067 221.073 181.731 217.4 181.731C217.052 181.731 215.97 183.081 214.995 184.731C214.02 186.381 212.573 187.731 211.779 187.731C209.595 187.731 210.044 189.817 212.863 192.76C216.384 196.435 217.425 204.867 214.728 207.858C209.503 213.649 203.05 218.01 198.064 219.122C193.944 220.041 192.83 220.705 192.804 222.259C192.669 230.389 188.242 235.387 179.682 237.077C172.845 238.427 172.072 240.31 177.577 242.203C190.358 246.597 192.892 257.693 182.442 263.506C176.521 266.799 172.426 266.758 167.515 263.354C163.894 260.845 163.161 260.686 159.679 261.653C153.737 263.303 147.363 262.934 141.337 260.593C135.874 258.47 130.724 257.068 124.689 256.061C118.715 255.064 115.151 249.943 114.592 241.551C114.184 235.417 113.671 233.745 111.425 231.231C109.951 229.581 107.986 226.544 107.058 224.481C105.42 220.844 105.211 220.731 100.164 220.731C93.7935 220.731 89.0798 217.922 86.2168 212.42C83.0468 206.327 78.9427 207.336 78.8477 214.231C78.8097 216.981 78.4233 220.817 77.9883 222.755C77.2354 226.113 77.3507 226.324 80.4366 227.255C90.5004 230.29 90.3981 247.946 80.2881 252.934C55.9904 264.92 26.2411 240.473 47.875 226.298C49.556 225.196 50.1805 223.494 50.6895 218.626C51.0495 215.185 52.1298 211.262 53.0908 209.91C54.0507 208.557 55.2736 206.856 55.8086 206.127C56.5016 205.184 56.0161 204.003 54.1221 202.017C50.6273 198.355 49.3112 194.657 49.9981 190.428C50.3281 188.392 50.1033 186.705 49.4463 186.299C48.8364 185.922 48.337 184.345 48.3369 182.794C48.3369 181.244 47.6012 179.366 46.7032 178.621C43.9996 176.376 34.3369 162.856 34.3369 161.317C34.3368 160.529 32.7627 157.822 30.8389 155.302C28.915 152.781 27.3998 150.384 27.4727 149.975C28.4457 144.478 24.6467 141.425 20.4727 144.348C18.2547 145.902 11.2222 145.776 6.86624 144.104C-3.23648 140.227 -1.78745 115.126 8.56839 114.62C14.8594 114.313 23.3369 117.551 23.3369 120.261C23.3372 122.018 26.1103 124.731 27.9073 124.731C28.6933 124.731 29.3369 124.041 29.3369 123.198C29.3372 109.814 50.1851 94.3087 69.8369 93.0767C82.9305 92.2547 88.2617 93.4969 97.1895 99.4468C101.45 102.287 108.337 96.8837 108.337 90.7007C108.337 88.6598 109.172 86.4706 110.483 85.0747C112.734 82.6789 111.804 79.7313 108.796 79.731C106.403 79.731 103.556 73.5422 104.077 69.4702C105.046 61.8843 117.633 57.7673 123.289 63.1861C125.639 65.4379 126.708 65.8083 129.245 65.2515C133.054 64.4145 133.128 63.4739 129.587 60.895C121.36 54.902 128.195 37.9086 139.837 35.4146ZM227.337 203.429C239.094 199.654 252.722 207.291 252.722 217.653C252.722 228.495 231.921 239.44 223.927 232.806C221.665 230.929 220.403 232.363 221.012 236.118C222.097 242.802 213.511 254.731 207.616 254.731C194.246 254.731 188.8 246.232 194.457 234.198C198.202 226.231 204.453 223.784 213.238 226.847C217.536 228.345 217.88 227.687 215.921 221.697C213.052 212.925 216.89 206.783 227.337 203.429ZM179.7 192.695C179.049 192.044 178.051 192.413 176.774 193.779C168.37 202.768 165.063 203.713 156.506 199.571C149.746 196.298 146.45 201.459 151.961 206.689C154.209 208.822 154.482 209.744 154.038 213.682C153.54 218.098 153.664 218.344 158.682 222.967C163.836 227.716 163.837 227.716 164.351 222.867C164.987 216.872 169.522 209.969 174.077 208.066C177.094 206.805 177.337 206.359 177.337 202.046C177.337 199.092 177.95 196.711 179.013 195.536C180.117 194.315 180.352 193.347 179.7 192.695ZM13.7354 183.697C21.2304 180.362 25.9355 181.225 32.1055 187.066C40.5644 195.074 37.0287 205.612 24.6309 209.343C9.40689 213.925 -0.704596 190.124 13.7354 183.697ZM252.956 148.251C262.129 145.732 267.81 147.203 270.983 152.921C277.397 164.478 257.352 180.919 247.179 172.445C237.093 164.044 240.016 151.805 252.956 148.251ZM175.822 162.709C174.842 161.123 172.482 161.589 171.417 163.579C170.283 165.699 171.384 170.913 173.086 171.481C174.366 171.905 176.761 164.229 175.822 162.709ZM150.152 111.481C150.492 108.526 149.534 108.177 145.513 109.79C142.108 111.155 143.035 114.231 146.851 114.231C149.365 114.231 149.886 113.796 150.152 111.481ZM156.837 98.731C156.012 98.731 155.337 99.406 155.337 100.231C155.337 101.056 156.012 101.731 156.837 101.731C157.662 101.731 158.337 101.056 158.337 100.231C158.337 99.4061 157.662 98.7312 156.837 98.731ZM131.337 85.6382C131.337 82.8002 129.491 81.4004 127.429 82.6743C126.501 83.2473 126.685 84.2905 128.185 86.9605C129.273 88.9003 130.316 91.46 130.5 92.6489C130.685 93.8379 131.287 94.905 131.837 95.021C133.25 95.317 133.729 90.7224 132.422 89.4155C131.825 88.8185 131.337 87.1191 131.337 85.6382ZM79.8369 36.9214C89.8819 31.2487 102.893 46.8492 95.6582 55.8921C92.2024 60.211 91.2042 63.981 91.8701 70.1997C92.5322 76.3837 92.4821 76.5638 89.0371 80.3628C76.0391 94.6997 55.1533 78.5005 64.8242 61.5825C66.3391 58.9327 67.3172 55.6452 67.3242 53.1753C67.3402 47.7053 72.4159 41.1124 79.8369 36.9214ZM120.896 78.731C120.653 78.731 120.177 79.1811 119.837 79.731C119.497 80.2809 119.695 80.7309 120.277 80.731C120.859 80.731 121.337 80.281 121.337 79.731C121.337 79.181 121.139 78.731 120.896 78.731ZM205.485 39.4898C219.631 37.0418 227.598 50.9151 220.597 65.8081C213.393 81.13 190.339 77.7861 190.091 61.3823C189.98 54.0764 199.509 40.5238 205.485 39.4898ZM51.8369 14.5542C64.4449 5.86451 75.68 19.3671 68.6241 34.731C62.385 48.3167 41.3372 43.775 41.3369 28.8423C41.3369 26.0333 47.6529 17.4382 51.8369 14.5542ZM108.212 2.17043C121.43 -6.81137 141.546 14.0924 133.237 28.1743C132.084 30.1297 130.819 31.7302 130.427 31.731C130.035 31.731 128.813 32.5703 127.713 33.5962C119.456 41.2872 107.786 35.7761 103.367 22.0991C100.152 12.1461 101.463 6.75643 108.212 2.17043Z" fill="#F4C4DB"/>
</g>
<path id="stroke4_2065_58192_ref" d="M17.0049 29.9492C17.0258 29.8043 17.1048 29.4071 17.1507 28.9051C17.1977 28.3901 17.5118 28.0114 17.7105 27.7211C17.8993 27.4452 18.1477 27.1667 18.3737 26.8654C18.4292 26.7949 18.4727 26.746 18.5168 26.6988C18.561 26.6516 18.6045 26.6075 18.6786 26.5325"/>
</defs>
</svg>
